<?xml version="1.0" encoding="UTF-8"?>
<svg version="1.1" xmlns="http://www.w3.org/2000/svg" width="318" height="159">
<path d="M0 0 C9.00188395 0 17.55595913 5.24133715 23.9375 11.25 C31.02464732 18.87638679 35.60051952 28.8794425 35.3125 39.41015625 C34.00881137 50.21447578 29.91715588 58.19459767 22.25 65.6875 C10.97834246 73.70771787 -0.32241895 76.0936664 -14 75 C-21.71680868 73.17207477 -27.20560709 69.43311129 -32.1875 63.3125 C-38.50662927 51.76374651 -38.5912131 38.6167226 -35.375 26.0625 C-32.7353959 17.24213277 -28.7111138 10.19319909 -21 5 C-15.64561123 2.85824449 -10.2768677 2.62995572 -4.57421875 2.34375 C-1.83881057 2.24367203 -1.83881057 2.24367203 0 0 Z M-24 15 C-31.00496959 26.16289013 -32.67670348 38.98313775 -30.25 51.875 C-28.81304089 57.35526474 -26.49814897 61.32079963 -21.5625 64.25 C-12.58937389 68.65785142 -2.90598118 70.51980647 6.94921875 67.78125 C15.04155053 64.69845694 21.23131667 59.16167513 25.32421875 51.53125 C28.71013764 43.45256634 29.69053244 34.55781242 27.1171875 26.09765625 C24.62290359 20.60527611 21.31807129 16.00402031 16 13 C13.70788945 12.28396546 11.4860767 11.82043256 9.1171875 11.43359375 C7 11 7 11 4.0625 9.375 C-4.52068039 5.52132717 -17.67271203 7.9495934 -24 15 Z " fill="#5D5D5D" transform="translate(162,17)"/>
<path d="M0 0 C2.4375 2.0625 2.4375 2.0625 4 4 C4.515625 3.360625 5.03125 2.72125 5.5625 2.0625 C8.78987141 -0.66835273 10.79440184 -0.92871868 15 -1 C19.3515223 0.16040595 21.36756343 0.93522803 23.69140625 4.84765625 C25.7910079 10.17890284 25.31793594 15.80199842 25.1875 21.4375 C25.16719727 23.1071582 25.16719727 23.1071582 25.14648438 24.81054688 C25.11132997 27.54087212 25.06212106 30.27017744 25 33 C22.69 33 20.38 33 18 33 C17.9906543 32.32420898 17.98130859 31.64841797 17.97167969 30.95214844 C17.91792699 27.8840289 17.83429008 24.81742613 17.75 21.75 C17.73582031 20.68652344 17.72164062 19.62304688 17.70703125 18.52734375 C17.67480469 17.50253906 17.64257812 16.47773437 17.609375 15.421875 C17.58842773 14.47924805 17.56748047 13.53662109 17.54589844 12.56542969 C16.84744783 9.28308669 15.61587657 8.04391642 13 6 C10.34872531 5.83022506 10.34872531 5.83022506 8 7 C6.02975486 10.04920931 5.71103348 12.61704016 5.5859375 16.203125 C5.54726562 17.1828125 5.50859375 18.1625 5.46875 19.171875 C5.42234375 20.69554687 5.42234375 20.69554687 5.375 22.25 C5.33632812 23.28125 5.29765625 24.3125 5.2578125 25.375 C5.16368326 27.9164894 5.07805021 30.45797433 5 33 C2.69 33 0.38 33 -2 33 C-2.01458252 32.2886792 -2.02916504 31.5773584 -2.04418945 30.84448242 C-2.11861006 27.62493668 -2.21529 24.40643482 -2.3125 21.1875 C-2.33505859 20.06794922 -2.35761719 18.94839844 -2.38085938 17.79492188 C-2.4340332 16.18520508 -2.4340332 16.18520508 -2.48828125 14.54296875 C-2.51446533 13.55321045 -2.54064941 12.56345215 -2.56762695 11.54370117 C-2.80865684 8.96671734 -2.80865684 8.96671734 -4.37182617 7.14575195 C-6.0182636 5.73775712 -6.0182636 5.73775712 -8.5625 6.125 C-11.3261611 6.84389168 -11.3261611 6.84389168 -13 10 C-13.35026976 12.4012076 -13.35026976 12.4012076 -13.37890625 15.0703125 C-13.41306641 16.04871094 -13.44722656 17.02710937 -13.48242188 18.03515625 C-13.50884766 19.05480469 -13.53527344 20.07445313 -13.5625 21.125 C-13.62216593 23.14856369 -13.68575032 25.17201697 -13.75390625 27.1953125 C-13.77783447 28.09266113 -13.8017627 28.99000977 -13.82641602 29.91455078 C-14 32 -14 32 -15 33 C-18 33.125 -18 33.125 -21 33 C-22 32 -22 32 -22.11352539 28.94897461 C-22.11336634 27.60008729 -22.10767612 26.25119386 -22.09765625 24.90234375 C-22.0962413 24.19348526 -22.09482635 23.48462677 -22.09336853 22.75428772 C-22.08775443 20.48198288 -22.07519963 18.20977525 -22.0625 15.9375 C-22.05748681 14.40039204 -22.05292359 12.86328255 -22.04882812 11.32617188 C-22.03778042 7.55074358 -22.02050641 3.77538829 -22 0 C-19.69 0 -17.38 0 -15 0 C-14.67 0.66 -14.34 1.32 -14 2 C-12.989375 1.484375 -11.97875 0.96875 -10.9375 0.4375 C-6.97831137 -1.2455559 -4.19529099 -1.18734651 0 0 Z " fill="#DE9292" transform="translate(198,101)"/>
<path d="M0 0 C2.31 0 4.62 0 7 0 C7.33 5.61 7.66 11.22 8 17 C8.99 16.34 9.98 15.68 11 15 C17.03053749 13.69338354 20.4757209 13.8129159 26 17 C31.32494648 22.74533699 31.34399865 26.89929041 31.28125 34.5703125 C30.93365722 38.80901338 29.96668175 40.95313767 27 44 C26.2575 44.763125 25.515 45.52625 24.75 46.3125 C21.19030304 48.4968595 18.17234924 49.23632447 14 49 C9 47 9 47 7 45 C6.67 45.99 6.34 46.98 6 48 C4.02 48 2.04 48 0 48 C0 32.16 0 16.32 0 0 Z M8 24 C6.65716351 26.68567297 6.75712481 28.87746853 6.6875 31.875 C6.65011719 32.92429687 6.61273438 33.97359375 6.57421875 35.0546875 C6.77566764 38.08310519 6.77566764 38.08310519 8.734375 40.35546875 C11.28307394 42.20547264 12.45386991 42.51639924 15.5625 42.4375 C16.32691406 42.43621094 17.09132813 42.43492187 17.87890625 42.43359375 C20.47199832 41.90351416 21.36410664 41.03981764 23 39 C24.52503844 35.25672382 24.45058938 30.97625365 24 27 C22.36312815 23.41447119 21.31027417 22.20684945 18 20 C13.36128843 19.26757186 11.32430947 20.86037439 8 24 Z " fill="#D15758" transform="translate(43,86)"/>
<path d="M0 0 C0.66 0.66 1.32 1.32 2 2 C2.33 1.34 2.66 0.68 3 0 C5.31 0 7.62 0 10 0 C10.02527062 6.39037231 10.04283317 12.78073183 10.05493164 19.17114258 C10.05997308 21.34692873 10.06680607 23.52271147 10.07543945 25.69848633 C10.08751338 28.81853067 10.09323005 31.93853038 10.09765625 35.05859375 C10.10281754 36.03775253 10.10797882 37.01691132 10.11329651 38.02574158 C10.11340981 39.37702904 10.11340981 39.37702904 10.11352539 40.75561523 C10.115746 41.55281479 10.11796661 42.35001434 10.12025452 43.17137146 C10 45 10 45 9 46 C6 46.125 6 46.125 3 46 C1.05909174 44.05909174 1.60080565 40.52706098 1.4375 37.9375 C1.35371094 36.64714844 1.26992188 35.35679687 1.18359375 34.02734375 C1.12300781 33.02832031 1.06242187 32.02929688 1 31 C0.2678125 31.495 -0.464375 31.99 -1.21875 32.5 C-5.34544063 34.7256309 -8.58245668 34.3172311 -13 33 C-17.38880036 29.56528667 -20.58411007 25.51790723 -21.50390625 19.94921875 C-21.62384006 13.27290328 -21.35885642 8.61106929 -16.76953125 3.52734375 C-11.30742476 -1.18718967 -6.69887686 -1.47602371 0 0 Z M-12 8 C-14.98395333 12.47593 -14.58949928 16.75575312 -14 22 C-12.82322797 25.32783723 -12.82322797 25.32783723 -10 27 C-6.89362579 27.6167891 -4.07299086 27.82059609 -1 27 C1.60789436 24.63024299 1.97938753 23.17318514 2.3984375 19.65234375 C2.39070313 18.42644531 2.38296875 17.20054688 2.375 15.9375 C2.38273437 14.70902344 2.39046875 13.48054688 2.3984375 12.21484375 C2.26672071 9.05708351 2.26672071 9.05708351 0.65625 7.12109375 C-3.99059184 3.97570788 -7.76461732 4.70581347 -12 8 Z " fill="#C72828" transform="translate(262,101)"/>
<path d="M0 0 C5.43279764 5.43279764 4.11097037 15.00593341 4.13061523 22.2668457 C4.12256676 25.19893871 4.09854764 28.13062558 4.0625 31.0625 C1.7525 31.0625 -0.5575 31.0625 -2.9375 31.0625 C-3.2675 30.4025 -3.5975 29.7425 -3.9375 29.0625 C-4.783125 29.578125 -5.62875 30.09375 -6.5 30.625 C-10.65979031 32.36454868 -12.62939526 32.31576683 -16.9375 31.0625 C-20.11065478 28.6481431 -21.61811694 26.92671299 -23 23.1875 C-22.91513155 18.94407738 -21.64354825 16.30155775 -18.9375 13.0625 C-14.26809565 9.80477604 -9.4738887 9.41928949 -3.9375 9.0625 C-4.28536708 7.08713255 -4.28536708 7.08713255 -4.9375 5.0625 C-9.21749354 2.92250323 -14.42798355 3.96928389 -18.9375 5.0625 C-19.2675 3.4125 -19.5975 1.7625 -19.9375 0.0625 C-13.8301702 -4.0090532 -6.09832622 -4.02230027 0 0 Z M-14.9375 18.0625 C-16.09224612 20.50060155 -16.09224612 20.50060155 -15.9375 23.0625 C-15.06620693 25.10132095 -15.06620693 25.10132095 -12.9375 26.0625 C-7.89184998 25.87112516 -7.89184998 25.87112516 -3.9375 23.0625 C-3.69537127 21.08121492 -3.69537127 21.08121492 -3.8125 18.9375 C-3.85375 17.65875 -3.895 16.38 -3.9375 15.0625 C-8.54138896 14.74129844 -11.32670743 15.07070044 -14.9375 18.0625 Z " fill="#CB3C3E" transform="translate(166.9375,102.9375)"/>
<path d="M0 0 C5.19320601 5.80417142 4.37412048 13.4750698 4.25 20.8125 C4.24097656 21.83021484 4.23195313 22.84792969 4.22265625 23.89648438 C4.19924698 26.38957156 4.166457 28.88215859 4.125 31.375 C1.25 31.5 1.25 31.5 -1.875 31.375 C-2.535 30.715 -3.195 30.055 -3.875 29.375 C-4.720625 29.890625 -5.56625 30.40625 -6.4375 30.9375 C-10.59729031 32.67704868 -12.56689526 32.62826683 -16.875 31.375 C-19.74392259 29.3606501 -21.57396003 27.95545986 -22.25 24.40625 C-22.3616058 20.66745581 -22.27810035 17.30051347 -19.875 14.375 C-14.63563448 10.63259606 -10.25183303 9.66419878 -3.875 9.375 C-4.22286708 7.39963255 -4.22286708 7.39963255 -4.875 5.375 C-9.15499354 3.23500323 -14.36548355 4.28178389 -18.875 5.375 C-19.205 3.725 -19.535 2.075 -19.875 0.375 C-13.79088047 -3.68107969 -6.29030254 -3.55538839 0 0 Z M-14.875 18.375 C-15.54180368 21.41779372 -15.54180368 21.41779372 -14.875 24.375 C-12.05901813 26.67760759 -12.05901813 26.67760759 -8.875 26.25 C-5.85852365 25.60569992 -5.85852365 25.60569992 -4 23.6875 C-2.58516519 20.77922845 -2.65723767 18.56884754 -2.875 15.375 C-7.7415175 15.08873426 -11.15114035 14.98967304 -14.875 18.375 Z " fill="#CB4E4E" transform="translate(98.875,102.625)"/>
<path d="M0 0 C0.69671839 6.3865852 -0.43047669 9.73260475 -4.23828125 14.8984375 C-10.99904517 22.96338426 -19.81770694 27.55451835 -30 30 C-40.82188773 30.94870779 -50.48922532 30.42129796 -59.375 23.625 C-63.01148612 19.98851388 -65.70932127 17.07627665 -66.4375 11.875 C-65.95214614 8.68553181 -64.98964569 7.45934984 -63 5 C-62.64808594 5.74765625 -62.29617187 6.4953125 -61.93359375 7.265625 C-58.73646203 13.64319323 -56.63510315 17.2253205 -50 20 C-49.23300781 20.34417969 -48.46601563 20.68835938 -47.67578125 21.04296875 C-39.12923897 24.09976124 -29.19507708 23.82561722 -20.953125 20.06640625 C-15.83992314 17.20261684 -12.35340475 13.29808189 -8.6640625 8.79296875 C-7.84035156 7.90544922 -7.84035156 7.90544922 -7 7 C-6.34 7 -5.68 7 -5 7 C-5.061875 6.21625 -5.12375 5.4325 -5.1875 4.625 C-5.0946875 3.325625 -5.0946875 3.325625 -5 2 C-2 0 -2 0 0 0 Z " fill="#616161" transform="translate(194,62)"/>
<path d="M0 0 C0.88300781 0.19464844 1.76601562 0.38929687 2.67578125 0.58984375 C3.33964844 0.74582031 4.00351563 0.90179688 4.6875 1.0625 C4.0275 3.0425 3.3675 5.0225 2.6875 7.0625 C2.06101563 6.9903125 1.43453125 6.918125 0.7890625 6.84375 C-0.02820313 6.7509375 -0.84546875 6.658125 -1.6875 6.5625 C-2.49960938 6.4696875 -3.31171875 6.376875 -4.1484375 6.28125 C-6.28162825 6.02897649 -6.28162825 6.02897649 -8.3125 6.0625 C-8.19196251 8.48937043 -8.19196251 8.48937043 -7.3125 11.0625 C-5.12912258 12.60500838 -5.12912258 12.60500838 -2.4375 13.625 C1.36674352 15.22766236 3.55460329 16.46150556 5.6875 20.0625 C6.12121102 23.45990298 5.88421024 25.5649388 4.625 28.75 C2.08209892 31.78507549 -0.49267047 33.2502374 -4.3125 34.0625 C-9.01987063 34.11723687 -12.36152565 33.6964829 -16.3125 31.0625 C-15.9825 29.4125 -15.6525 27.7625 -15.3125 26.0625 C-14.54164062 26.14628906 -13.77078125 26.23007813 -12.9765625 26.31640625 C-11.97367187 26.41824219 -10.97078125 26.52007812 -9.9375 26.625 C-8.93976563 26.72941406 -7.94203125 26.83382812 -6.9140625 26.94140625 C-4.328463 27.27394708 -4.328463 27.27394708 -2.3125 26.0625 C-2.18434635 23.6772267 -2.18434635 23.6772267 -3.3125 21.0625 C-5.23834782 19.84176809 -7.22584539 18.9541941 -9.30078125 18.01171875 C-12.04289884 16.71786521 -13.61979171 15.60156243 -15.3125 13.0625 C-16.02922773 8.04540592 -16.16930874 6.21307174 -13.125 2.125 C-8.66757035 -1.14378174 -5.28972832 -1.19900509 0 0 Z " fill="#CF5B5A" transform="translate(136.3125,100.9375)"/>
<path d="M0 0 C0.495 1.485 0.495 1.485 1 3 C0.31292969 3.03738281 -0.37414062 3.07476563 -1.08203125 3.11328125 C-1.98308594 3.17902344 -2.88414062 3.24476562 -3.8125 3.3125 C-4.70582031 3.37050781 -5.59914062 3.42851562 -6.51953125 3.48828125 C-9.30604 4.06313581 -10.24135754 4.8206856 -12 7 C-11.01 6.67 -10.02 6.34 -9 6 C-7.10529184 5.9314505 -5.2083166 5.91519628 -3.3125 5.9375 C-2.31863281 5.94652344 -1.32476562 5.95554687 -0.30078125 5.96484375 C0.83810547 5.98224609 0.83810547 5.98224609 2 6 C2 6.33 2 6.66 2 7 C0.60587891 7.16435547 0.60587891 7.16435547 -0.81640625 7.33203125 C-13.99847802 8.86807662 -13.99847802 8.86807662 -24 17 C-28.6593747 26.24030874 -29.17940494 34.98399914 -28.78515625 45.12304688 C-28.7421875 47.33203125 -28.7421875 47.33203125 -29 51 C-29.99 51.66 -30.98 52.32 -32 53 C-32.66 53.99 -33.32 54.98 -34 56 C-38.26775213 42.75289739 -36.87493103 27.68139393 -30.609375 15.23828125 C-27.06380825 9.59336576 -23.16789841 5.26715936 -16.875 2.75 C-12.40957895 1.88572496 -8.01280018 1.52186999 -3.4765625 1.24609375 C-1.058756 1.26999639 -1.058756 1.26999639 0 0 Z " fill="#717171" transform="translate(161,18)"/>
<path d="M0 0 C2.31 0 4.62 0 7 0 C7 15.84 7 31.68 7 48 C4.69 48 2.38 48 0 48 C0 32.16 0 16.32 0 0 Z " fill="#C93A3B" transform="translate(109,86)"/>
<path d="M0 0 C3.13433041 4.17910721 3.93813572 7.81556023 3.8828125 12.98828125 C3.87636719 14.05498047 3.86992187 15.12167969 3.86328125 16.22070312 C3.84652344 17.32349609 3.82976562 18.42628906 3.8125 19.5625 C3.80347656 20.68462891 3.79445312 21.80675781 3.78515625 22.96289062 C3.76164486 25.72547909 3.72878155 28.48762932 3.6875 31.25 C1.3775 31.25 -0.9325 31.25 -3.3125 31.25 C-3.3218457 30.57420898 -3.33119141 29.89841797 -3.34082031 29.20214844 C-3.39457301 26.1340289 -3.47820992 23.06742613 -3.5625 20 C-3.57667969 18.93652344 -3.59085938 17.87304688 -3.60546875 16.77734375 C-3.63769531 15.75253906 -3.66992188 14.72773437 -3.703125 13.671875 C-3.72407227 12.72924805 -3.74501953 11.78662109 -3.76660156 10.81542969 C-4.46818677 7.51835571 -5.67363653 6.29372061 -8.3125 4.25 C-11.480332 3.91551741 -11.480332 3.91551741 -14.3125 4.25 C-14.6425 3.26 -14.9725 2.27 -15.3125 1.25 C-13.3125 -1.75 -13.3125 -1.75 -11.625 -2.5 C-7.21623036 -2.97662375 -3.5902874 -2.71697425 0 0 Z " fill="#DE6968" transform="translate(219.3125,102.75)"/>
<path d="M0 0 C2.01788836 2.52236045 2 3.75096951 2 7 C2.99 7.33 3.98 7.66 5 8 C5.33 15.92 5.66 23.84 6 32 C4.35 32 2.7 32 1 32 C-0.06723961 28.53777385 -0.10173486 25.35960734 -0.0625 21.75 C-0.05347656 20.67234375 -0.04445312 19.5946875 -0.03515625 18.484375 C-0.02355469 17.66453125 -0.01195312 16.8446875 0 16 C-3.63 16.66 -7.26 17.32 -11 18 C-11 16.68 -11 15.36 -11 14 C-5.555 13.01 -5.555 13.01 0 12 C-1.33563616 7.05536365 -1.33563616 7.05536365 -4 6 C-8.16735187 5.84274144 -11.94441928 6.01682892 -16 7 C-16.33 5.35 -16.66 3.7 -17 2 C-11.54305231 -1.63796513 -6.20139372 -1.34363531 0 0 Z " fill="#C74141" transform="translate(164,101)"/>
<path d="M0 0 C3 1 3 1 4.375 3.375 C6.51796077 6.83670586 8.95426072 8.37054176 12.828125 9.5625 C19.9019038 10.98743386 26.67872878 10.59444834 33 7 C35.11372405 5.42175271 37.03719091 3.77131552 39 2 C38.88036935 8.93857783 38.88036935 8.93857783 36.48046875 11.83203125 C30.2908198 17.18770645 24.77215567 17.43418597 16.74609375 17.27734375 C10.41380236 16.80852968 6.37960154 14.70018335 2 10.1875 C-0.33754717 6.4620342 -0.43186431 4.31864308 0 0 Z " fill="#353535" transform="translate(140,56)"/>
<path d="M0 0 C1.65 0 3.3 0 5 0 C5 6.27 5 12.54 5 19 C5.66 19 6.32 19 7 19 C7 19.66 7 20.32 7 21 C6.34 21 5.68 21 5 21 C5.33 27.6 5.66 34.2 6 41 C5.34 41 4.68 41 4 41 C4 42.65 4 44.3 4 46 C2.68 46 1.36 46 0 46 C0 30.82 0 15.64 0 0 Z " fill="#BB0709" transform="translate(44,87)"/>
<path d="M0 0 C2.31 0 4.62 0 7 0 C7.16750929 4.37803185 7.32807935 8.75624599 7.48217773 13.13476562 C7.53560003 14.62474442 7.59092962 16.11465609 7.64819336 17.60449219 C7.73009836 19.74399337 7.80517709 21.88364093 7.87890625 24.0234375 C7.9260376 25.31169434 7.97316895 26.59995117 8.02172852 27.92724609 C8 31 8 31 7 33 C4.69 33 2.38 33 0 33 C0 22.11 0 11.22 0 0 Z " fill="#CE3C3D" transform="translate(229,101)"/>
<path d="M0 0 C5 2 5 2 5.80639648 3.79980469 C6.0248451 6.28235065 6.1121506 8.71009637 6.09765625 11.203125 C6.09443359 12.1828125 6.09121094 13.1625 6.08789062 14.171875 C6.07951172 15.18765625 6.07113281 16.2034375 6.0625 17.25 C6.05798828 18.28125 6.05347656 19.3125 6.04882812 20.375 C6.03706088 22.91672573 6.02062011 25.45833319 6 28 C3.125 28.125 3.125 28.125 0 28 C-0.66 27.34 -1.32 26.68 -2 26 C-2.845625 26.515625 -3.69125 27.03125 -4.5625 27.5625 C-8.58736786 29.24562656 -10.80214298 28.92352855 -15 28 C-15 27.67 -15 27.34 -15 27 C-12.03 27 -9.06 27 -6 27 C-6 26.01 -6 25.02 -6 24 C-8.31 23.67 -10.62 23.34 -13 23 C-12.67 22.34 -12.34 21.68 -12 21 C-10.88625 21.309375 -10.88625 21.309375 -9.75 21.625 C-7.08519804 22.140954 -7.08519804 22.140954 -4.8125 21.5625 C-1.83394687 18.99478179 -1.73376883 15.79113894 -1 12 C-4.63 12.66 -8.26 13.32 -12 14 C-9 11 -9 11 -6.73828125 10.70703125 C-5.93777344 10.74183594 -5.13726562 10.77664062 -4.3125 10.8125 C-2.889375 10.874375 -1.46625 10.93625 0 11 C0 7.37 0 3.74 0 0 Z " fill="#D14B4C" transform="translate(97,106)"/>
<path d="M0 0 C0.66 0.33 1.32 0.66 2 1 C2.29857303 4.13312706 2.41568996 7.22095924 2.47851562 10.36523438 C2.59876512 13.36560584 2.86268007 15.7167208 4.1796875 18.43359375 C6.66291216 20.57044587 8.44723496 20.59751694 11.6875 20.75 C12.68136719 20.80671875 13.67523438 20.8634375 14.69921875 20.921875 C15.45847656 20.94765625 16.21773438 20.9734375 17 21 C17 22.32 17 23.64 17 25 C14.726148 27.12715187 12.95857294 27.93933083 9.83984375 28.13671875 C5.55313993 27.88624357 3.47179979 27.38145515 0.0625 24.625 C-3.41063073 20.2046518 -4.2568959 18.10214182 -4.1875 12.5 C-4.18105469 11.3553125 -4.17460937 10.210625 -4.16796875 9.03125 C-4 6 -4 6 -3 3 C-2.34 3 -1.68 3 -1 3 C-0.67 2.01 -0.34 1.02 0 0 Z " fill="#D76768" transform="translate(246,107)"/>
<path d="M0 0 C5.53896846 0.4615807 10.39647899 1.74385099 15 5 C15.33 5.99 15.66 6.98 16 8 C16.99 8.33 17.98 8.66 19 9 C18.67 10.32 18.34 11.64 18 13 C11.11509775 13.57374185 6.97332123 12.4753869 1 9 C1 8.34 1 7.68 1 7 C-3.62 7.33 -8.24 7.66 -13 8 C-12.67 7.01 -12.34 6.02 -12 5 C-9.47524538 3.73762269 -7.68799534 3.90143596 -4.875 3.9375 C-3.96492187 3.94652344 -3.05484375 3.95554687 -2.1171875 3.96484375 C-1.41851562 3.97644531 -0.71984375 3.98804688 0 4 C0 2.68 0 1.36 0 0 Z " fill="#575757" transform="translate(162,17)"/>
<path d="M0 0 C1.32 0 2.64 0 4 0 C4 1.65 4 3.3 4 5 C4.66 5 5.32 5 6 5 C5.67 13.58 5.34 22.16 5 31 C3.35 31 1.7 31 0 31 C0 20.77 0 10.54 0 0 Z " fill="#BD0F10" transform="translate(178,102)"/>
<path d="M0 0 C0.78375 0.33 1.5675 0.66 2.375 1 C4.84332497 2.11866511 4.84332497 2.11866511 7 2 C6.76228882 2.82902832 6.76228882 2.82902832 6.51977539 3.67480469 C5.95067733 6.22064305 5.7896572 8.59699445 5.68359375 11.203125 C5.64169922 12.1828125 5.59980469 13.1625 5.55664062 14.171875 C5.49766602 15.69554688 5.49766602 15.69554688 5.4375 17.25 C5.39431641 18.28125 5.35113281 19.3125 5.30664062 20.375 C5.20074318 22.9165387 5.09866557 25.45817196 5 28 C3.35 28 1.7 28 0 28 C-0.19581346 23.52115561 -0.3802636 19.04191574 -0.5625 14.5625 C-0.61857422 13.28310547 -0.67464844 12.00371094 -0.73242188 10.68554688 C-0.78076172 9.47060547 -0.82910156 8.25566406 -0.87890625 7.00390625 C-0.9260376 5.87799072 -0.97316895 4.7520752 -1.02172852 3.59204102 C-1 1 -1 1 0 0 Z " fill="#CB0001" transform="translate(197,105)"/>
<path d="M0 0 C1.65 0 3.3 0 5 0 C6.02450386 8.623102 6.1550986 17.20417856 6.13037109 25.87402344 C6.12492683 28.15566398 6.13039169 30.43711478 6.13671875 32.71875 C6.13605934 34.16927127 6.13478103 35.61979242 6.1328125 37.0703125 C6.13168457 38.37758301 6.13055664 39.68485352 6.12939453 41.03173828 C6 44 6 44 5 45 C2 45.125 2 45.125 -1 45 C-1.33 44.67 -1.66 44.34 -2 44 C-1.99245847 40.62893641 -1.92129882 37.27039255 -1.78515625 33.90234375 C-1.63454191 29.65969887 -1.63454191 29.65969887 -3.5078125 25.9921875 C-4.00023437 25.66476563 -4.49265625 25.33734375 -5 25 C-4.01 24.01 -3.02 23.02 -2 22 C-2 23.32 -2 24.64 -2 26 C-1.34 26 -0.68 26 0 26 C0 31.61 0 37.22 0 43 C1.32 43 2.64 43 4 43 C4 29.14 4 15.28 4 1 C3.01 1 2.02 1 1 1 C0.67 1.66 0.34 2.32 0 3 C0 2.01 0 1.02 0 0 Z " fill="#CF7E7F" transform="translate(266,102)"/>
<path d="M0 0 C1.75 1.5625 1.75 1.5625 3 3 C3.33 2.34 3.66 1.68 4 1 C6 2 6 2 6.75 3.8125 C7 6 7 6 6.04150391 7.81152344 C4.80715926 10.40520966 4.6858254 12.33967179 4.5859375 15.203125 C4.54726562 16.1828125 4.50859375 17.1625 4.46875 18.171875 C4.42234375 19.69554687 4.42234375 19.69554687 4.375 21.25 C4.33632812 22.28125 4.29765625 23.3125 4.2578125 24.375 C4.16368326 26.9164894 4.07805021 29.45797433 4 32 C1.69 32 -0.62 32 -3 32 C-3.01981934 31.29391602 -3.03963867 30.58783203 -3.06005859 29.86035156 C-3.15540415 26.65653006 -3.26504513 23.45335199 -3.375 20.25 C-3.4059375 19.13882813 -3.436875 18.02765625 -3.46875 16.8828125 C-3.50742188 15.81289062 -3.54609375 14.74296875 -3.5859375 13.640625 C-3.6173584 12.65610352 -3.6487793 11.67158203 -3.68115234 10.65722656 C-4.00735079 7.93873967 -4.44714553 6.24985595 -6 4 C-9.05908413 3.18415432 -9.05908413 3.18415432 -12 3 C-11.67 2.01 -11.34 1.02 -11 0 C-3.16438356 -1.35616438 -3.16438356 -1.35616438 0 0 Z M-2 3 C-3.02245821 6.31868591 -3.04443871 9.18283589 -2.87890625 12.640625 C-2.83056641 13.71054688 -2.78222656 14.78046875 -2.73242188 15.8828125 C-2.67634766 16.99398437 -2.62027344 18.10515625 -2.5625 19.25 C-2.51029297 20.37664062 -2.45808594 21.50328125 -2.40429688 22.6640625 C-2.27477014 25.44299972 -2.13980947 28.22156424 -2 31 C-0.35 31 1.3 31 3 31 C3.02505615 30.35450195 3.0501123 29.70900391 3.07592773 29.04394531 C3.19214433 26.11244106 3.31475442 23.18123783 3.4375 20.25 C3.47681641 19.23421875 3.51613281 18.2184375 3.55664062 17.171875 C3.59853516 16.1921875 3.64042969 15.2125 3.68359375 14.203125 C3.73858032 12.85202637 3.73858032 12.85202637 3.79467773 11.47363281 C3.98306407 9.20403661 4.37366501 7.18437113 5 5 C4.21625 4.855625 3.4325 4.71125 2.625 4.5625 C0 4 0 4 -2 3 Z " fill="#E08181" transform="translate(199,102)"/>
<path d="M0 0 C0.33 0 0.66 0 1 0 C0.88036935 6.93857783 0.88036935 6.93857783 -1.51953125 9.83203125 C-6.69070277 14.30645545 -10.71203884 15.18103528 -17.5 15.1875 C-18.51513672 15.20586914 -18.51513672 15.20586914 -19.55078125 15.22460938 C-23.26357044 15.23559396 -24.82983076 15.11344616 -28 13 C-22.72 13.33 -17.44 13.66 -12 14 C-12 13.34 -12 12.68 -12 12 C-12.84304687 11.87882812 -13.68609375 11.75765625 -14.5546875 11.6328125 C-15.65039062 11.46523437 -16.74609375 11.29765625 -17.875 11.125 C-18.96554688 10.96257812 -20.05609375 10.80015625 -21.1796875 10.6328125 C-24 10 -24 10 -26 8 C-24.60587891 8.05220703 -24.60587891 8.05220703 -23.18359375 8.10546875 C-11.57430939 8.3988051 -11.57430939 8.3988051 -2.125 2.3125 C-1.42375 1.549375 -0.7225 0.78625 0 0 Z " fill="#747474" transform="translate(178,58)"/>
<path d="M0 0 C0.33 0 0.66 0 1 0 C1 13.86 1 27.72 1 42 C-0.32 42 -1.64 42 -3 42 C-3 36.39 -3 30.78 -3 25 C-3.66 25 -4.32 25 -5 25 C-5 23.68 -5 22.36 -5 21 C-4.01 21 -3.02 21 -2 21 C-1.11360611 18.34081834 -0.82010975 16.51935359 -0.68359375 13.76953125 C-0.64169922 12.96708984 -0.59980469 12.16464844 -0.55664062 11.33789062 C-0.51732422 10.50451172 -0.47800781 9.67113281 -0.4375 8.8125 C-0.37272461 7.5450293 -0.37272461 7.5450293 -0.30664062 6.25195312 C-0.20068482 4.16815567 -0.0998498 2.08409897 0 0 Z " fill="#C50305" transform="translate(269,103)"/>
<path d="M0 0 C0.66 0.33 1.32 0.66 2 1 C2.32366639 5.63921823 2.02936588 8.38430524 -1 12 C-5.93007096 14.95804257 -9.33849141 15.25981319 -14.984375 14.51953125 C-17 14 -17 14 -20 12 C-19.67 10.35 -19.34 8.7 -19 7 C-14.71 7.33 -10.42 7.66 -6 8 C-6 8.66 -6 9.32 -6 10 C-4.68 10.33 -3.36 10.66 -2 11 C-2 10.01 -2 9.02 -2 8 C-1.34 8 -0.68 8 0 8 C0 5.36 0 2.72 0 0 Z " fill="#CE494A" transform="translate(140,120)"/>
<path d="M0 0 C2.475 0.495 2.475 0.495 5 1 C5 8.26 5 15.52 5 23 C3.35 23 1.7 23 0 23 C0 15.41 0 7.82 0 0 Z " fill="#BB0B0B" transform="translate(217,110)"/>
<path d="M0 0 C2.31 0 4.62 0 7 0 C7.33 6.6 7.66 13.2 8 20 C7.34 20 6.68 20 6 20 C6 13.73 6 7.46 6 1 C4.35 1 2.7 1 1 1 C1 16.18 1 31.36 1 47 C2.32 47 3.64 47 5 47 C5 45.35 5 43.7 5 42 C5.66 42 6.32 42 7 42 C7.33 40.68 7.66 39.36 8 38 C8.33 38.474375 8.66 38.94875 9 39.4375 C12.09813267 41.85791615 15.12026792 41.68198917 19 42 C19 42.33 19 42.66 19 43 C18.30132812 43.06058594 17.60265625 43.12117188 16.8828125 43.18359375 C15.97273438 43.26738281 15.06265625 43.35117188 14.125 43.4375 C13.22007813 43.51871094 12.31515625 43.59992188 11.3828125 43.68359375 C8.98889139 43.86989285 8.98889139 43.86989285 7 45 C6.67 45.99 6.34 46.98 6 48 C4.02 48 2.04 48 0 48 C0 32.16 0 16.32 0 0 Z " fill="#FCBEBE" transform="translate(43,86)"/>
<path d="M0 0 C0.7178848 6.58061069 -0.68009479 9.88300275 -4.39453125 15.3125 C-5.18923828 16.1478125 -5.18923828 16.1478125 -6 17 C-6.99 17 -7.98 17 -9 17 C-12.0745356 17.7763932 -12.0745356 17.7763932 -14 20 C-14 16.43327362 -13.14474605 15.29896369 -11.1875 12.375 C-10.66542969 11.57835938 -10.14335937 10.78171875 -9.60546875 9.9609375 C-8 8 -8 8 -5 7 C-5.061875 6.21625 -5.12375 5.4325 -5.1875 4.625 C-5.125625 3.75875 -5.06375 2.8925 -5 2 C-2 0 -2 0 0 0 Z " fill="#4F4F4F" transform="translate(194,62)"/>
<path d="M0 0 C2.34462316 2.13207942 3.64793685 4.05397038 4.9375 6.9375 C6.51677471 10.24848907 8.17980364 12.58268883 11 15 C10.649375 15.61875 10.29875 16.2375 9.9375 16.875 C9.628125 17.57625 9.31875 18.2775 9 19 C9.33 19.66 9.66 20.32 10 21 C6.1644173 19.4373552 3.79598009 17.01105548 1 14 C0.401875 13.360625 -0.19625 12.72125 -0.8125 12.0625 C-2.45093406 9.21679874 -2.33692382 7.23446867 -2 4 C-1 1.625 -1 1.625 0 0 Z " fill="#616161" transform="translate(130,67)"/>
<path d="M0 0 C0.33 0.99 0.66 1.98 1 3 C-0.03060547 3.05607422 -0.03060547 3.05607422 -1.08203125 3.11328125 C-1.98308594 3.17902344 -2.88414062 3.24476562 -3.8125 3.3125 C-4.70582031 3.37050781 -5.59914062 3.42851562 -6.51953125 3.48828125 C-9.30604 4.06313581 -10.24135754 4.8206856 -12 7 C-11.01 6.67 -10.02 6.34 -9 6 C-7.10529184 5.9314505 -5.2083166 5.91519628 -3.3125 5.9375 C-2.31863281 5.94652344 -1.32476562 5.95554687 -0.30078125 5.96484375 C0.83810547 5.98224609 0.83810547 5.98224609 2 6 C2 6.33 2 6.66 2 7 C0.64068359 7.16435547 0.64068359 7.16435547 -0.74609375 7.33203125 C-7.8525627 8.25700022 -14.29684675 9.45742463 -21 12 C-20.67 11.01 -20.34 10.02 -20 9 C-21.32 9.33 -22.64 9.66 -24 10 C-24 9.01 -24 8.02 -24 7 C-19.32679477 2.96777667 -15.21933382 2.27015832 -9.1875 1.8125 C-4.19141948 1.81032264 -4.19141948 1.81032264 0 0 Z " fill="#7D7D7D" transform="translate(161,18)"/>
<path d="M0 0 C1.45922693 0.11409593 2.91740598 0.24165544 4.375 0.375 C5.59316406 0.47941406 5.59316406 0.47941406 6.8359375 0.5859375 C9 1 9 1 11 3 C11.1953125 5.3828125 11.1953125 5.3828125 11.125 8.125 C11.10695312 9.03507812 11.08890625 9.94515625 11.0703125 10.8828125 C11.04710937 11.58148438 11.02390625 12.28015625 11 13 C10.34 13 9.68 13 9 13 C9 13.99 9 14.98 9 16 C7.68 15.67 6.36 15.34 5 15 C5.1546875 13.4221875 5.1546875 13.4221875 5.3125 11.8125 C4.92375267 7.0697826 3.43801157 6.09421041 0 3 C0 2.01 0 1.02 0 0 Z " fill="#C92D2E" transform="translate(129,115)"/>
<path d="M0 0 C0.33 0.66 0.66 1.32 1 2 C1.99 2.33 2.98 2.66 4 3 C4.33 10.92 4.66 18.84 5 27 C3.35 27 1.7 27 0 27 C-0.38063221 24.6739143 -0.71269945 22.33944736 -1 20 C-0.67 19.67 -0.34 19.34 0 19 C0.08651611 17.58429877 0.10704904 16.164405 0.09765625 14.74609375 C0.09443359 13.89208984 0.09121094 13.03808594 0.08789062 12.15820312 C0.07951172 11.26037109 0.07113281 10.36253906 0.0625 9.4375 C0.05573242 8.08495117 0.05573242 8.08495117 0.04882812 6.70507812 C0.03700225 4.46998686 0.0205222 2.23502563 0 0 Z " fill="#BA0C0E" transform="translate(165,106)"/>
<path d="M0 0 C0 6.6 0 13.2 0 20 C-1.65 20.33 -3.3 20.66 -5 21 C-5.08107646 18.24940619 -5.14052813 15.50120979 -5.1875 12.75 C-5.21263672 11.97269531 -5.23777344 11.19539063 -5.26367188 10.39453125 C-5.30906596 6.85379229 -5.33187823 4.6095341 -3.61328125 1.453125 C-2 0 -2 0 0 0 Z " fill="#CA0204" transform="translate(269,103)"/>
<path d="M0 0 C2.9375 0.8125 2.9375 0.8125 4.9375 3.8125 C4.75 6.375 4.75 6.375 3.9375 8.8125 C0.9375 10.8125 0.9375 10.8125 -1.5625 10.625 C-4.2836493 9.74062648 -5.51332809 9.22232297 -7.0625 6.8125 C-6.9375 4.25 -6.9375 4.25 -6.0625 1.8125 C-3.0625 -0.1875 -3.0625 -0.1875 0 0 Z M-4.0625 3.8125 C-3.0625 6.8125 -3.0625 6.8125 -3.0625 6.8125 Z M0.9375 3.8125 C1.9375 6.8125 1.9375 6.8125 1.9375 6.8125 Z " fill="#DA9A9E" transform="translate(282.0625,100.1875)"/>
<path d="M0 0 C2.7265625 1.63671875 2.7265625 1.63671875 5 4 C5.48828125 7.234375 5.48828125 7.234375 5.3125 10.75 C5.24482422 12.50570312 5.24482422 12.50570312 5.17578125 14.296875 C5.11777344 15.18890625 5.05976562 16.0809375 5 17 C4.67 17 4.34 17 4 17 C3.505 12.05 3.505 12.05 3 7 C-2.56069582 4.74566386 -8.0785651 4.40038172 -14 4 C-14 3.34 -14 2.68 -14 2 C-9.21790161 -0.98881149 -5.32882275 -1.87894906 0 0 Z " fill="#BB090A" transform="translate(96,101)"/>
<path d="M0 0 C3.7214917 5.58223755 3.78580324 11.86599167 2.55078125 18.36328125 C2.0773577 20.25361785 1.54433454 22.12885003 1 24 C0.67 24 0.34 24 0 24 C0 22.35 0 20.7 0 19 C-2.03241727 19.63979849 -2.03241727 19.63979849 -4 21 C-4.81171228 23.55519921 -4.81171228 23.55519921 -5 26 C-5.99 26.33 -6.98 26.66 -8 27 C-7.79503906 26.42894531 -7.59007812 25.85789062 -7.37890625 25.26953125 C-5.03126261 18.20413485 -4.33709974 11.41619434 -4 4 C-3.67 4 -3.34 4 -3 4 C-2.67 6.97 -2.34 9.94 -2 13 C-1.34 12.67 -0.68 12.34 0 12 C0 8.04 0 4.08 0 0 Z " fill="#8B8B8B" transform="translate(194,43)"/>
<path d="M0 0 C0.66 0.33 1.32 0.66 2 1 C2 7.27 2 13.54 2 20 C1.01 20 0.02 20 -1 20 C-1 19.01 -1 18.02 -1 17 C-1.99 17 -2.98 17 -4 17 C-4.02705729 15.22925083 -4.04642195 13.45838289 -4.0625 11.6875 C-4.07410156 10.70136719 -4.08570313 9.71523437 -4.09765625 8.69921875 C-4 6 -4 6 -3 3 C-2.34 3 -1.68 3 -1 3 C-0.67 2.01 -0.34 1.02 0 0 Z " fill="#B90B0D" transform="translate(246,107)"/>
<path d="M0 0 C0.33 1.32 0.66 2.64 1 4 C-2.63 4.66 -6.26 5.32 -10 6 C-9.67 6.99 -9.34 7.98 -9 9 C-8.34 8.67 -7.68 8.34 -7 8 C-4.3276379 7.86584528 -1.67749512 7.95681459 1 8 C1 10.64 1 13.28 1 16 C0.67 16 0.34 16 0 16 C0 13.69 0 11.38 0 9 C-6.53637992 10.34180694 -6.53637992 10.34180694 -12 14 C-12.33 12.68 -12.66 11.36 -13 10 C-13.33 10.66 -13.66 11.32 -14 12 C-14.99 12 -15.98 12 -17 12 C-17 14.64 -17 17.28 -17 20 C-17.66 19.34 -18.32 18.68 -19 18 C-18.92253597 13.89440652 -18.42951951 11.59058932 -16 8.25 C-11.07145776 4.55359332 -6.14175049 3 0 3 C0 2.01 0 1.02 0 0 Z " fill="#E18686" transform="translate(163,109)"/>
<path d="M0 0 C0 0.99 0 1.98 0 3 C1.36893239 3.05270463 1.36893239 3.05270463 4 2 C4 3.32 4 4.64 4 6 C2.20703125 7.66796875 2.20703125 7.66796875 -0.1875 9.1875 C-0.96480469 9.69667969 -1.74210938 10.20585938 -2.54296875 10.73046875 C-5.06030597 12.03115968 -7.20948888 12.58861026 -10 13 C-10 11 -10 11 -9 10 C-9.99 9.34 -10.98 8.68 -12 8 C-11.38511719 7.67386719 -10.77023438 7.34773438 -10.13671875 7.01171875 C-8.92435547 6.35623047 -8.92435547 6.35623047 -7.6875 5.6875 C-6.88699219 5.25824219 -6.08648437 4.82898438 -5.26171875 4.38671875 C-3.16212728 3.09940446 -1.64552279 1.81593292 0 0 Z " fill="#7B7B7B" transform="translate(181,76)"/>
<path d="M0 0 C2.475 0.99 2.475 0.99 5 2 C5 5.63 5 9.26 5 13 C4.34 13 3.68 13 3 13 C2.34 14.32 1.68 15.64 1 17 C0.01 17 -0.98 17 -2 17 C-1.835 16.29359375 -1.67 15.5871875 -1.5 14.859375 C-0.98440867 11.91083708 -0.93538198 9.23858341 -1 6.25 C-1.03742459 4.50040022 -1.04696295 2.74936974 -1 1 C-0.67 0.67 -0.34 0.34 0 0 Z " fill="#BD0809" transform="translate(68,110)"/>
<path d="M0 0 C1.32 0 2.64 0 4 0 C4.33 2.64 4.66 5.28 5 8 C7.31 8.33 9.62 8.66 12 9 C12 9.99 12 10.98 12 12 C3.84615385 12.61538462 3.84615385 12.61538462 0.9375 10.5 C-0.4196317 6.88098213 -0.19274768 3.85495364 0 0 Z " fill="#BA0F14" transform="translate(79,121)"/>
<path d="M0 0 C-4.85753655 3.2383577 -9.14034648 3.18223885 -14.875 3.1875 C-15.91720703 3.20586914 -15.91720703 3.20586914 -16.98046875 3.22460938 C-21.37692393 3.23702874 -24.91709235 2.61908407 -29 1 C-24.47907032 -0.45606519 -21.48351204 0.72967159 -17 2 C-16.67 1.01 -16.34 0.02 -16 -1 C-14.27277272 -1.22384382 -12.54303993 -1.42839969 -10.8125 -1.625 C-9.84957031 -1.74101563 -8.88664062 -1.85703125 -7.89453125 -1.9765625 C-4.75924677 -2.00194942 -2.80513465 -1.34359283 0 0 Z " fill="#787878" transform="translate(171,89)"/>
<path d="M0 0 C2 2 2 2 2.22705078 3.87939453 C2.21657715 4.62302246 2.20610352 5.36665039 2.1953125 6.1328125 C2.18886719 6.93847656 2.18242187 7.74414062 2.17578125 8.57421875 C2.15902344 9.41597656 2.14226562 10.25773437 2.125 11.125 C2.11597656 11.97449219 2.10695312 12.82398437 2.09765625 13.69921875 C2.07405647 15.79959884 2.03818483 17.89983444 2 20 C2.66 20 3.32 20 4 20 C4 13.4 4 6.8 4 0 C4.33 0 4.66 0 5 0 C5 7.26 5 14.52 5 22 C3.35 22 1.7 22 0 22 C0 14.74 0 7.48 0 0 Z " fill="#B11B1C" transform="translate(197,111)"/>
<path d="M0 0 C3.16115776 1.36983503 3.9927092 1.9890638 6 5 C7.52899686 13.82779318 7.10978473 23.07084174 7 32 C4.69 32 2.38 32 0 32 C-0.33 30.68 -0.66 29.36 -1 28 C-0.34 27.67 0.32 27.34 1 27 C1 28.32 1 29.64 1 31 C2.65 31 4.3 31 6 31 C5.84152588 30.43829102 5.68305176 29.87658203 5.51977539 29.29785156 C4.97811638 26.90325571 4.79358526 24.68561447 4.68359375 22.234375 C4.64169922 21.34492187 4.59980469 20.45546875 4.55664062 19.5390625 C4.51732422 18.61867188 4.47800781 17.69828125 4.4375 16.75 C4.39431641 15.81414062 4.35113281 14.87828125 4.30664062 13.9140625 C4.2008195 11.60951359 4.09873443 9.30486161 4 7 C3.34 6.67 2.68 6.34 2 6 C1.27306096 4.02111039 0.60183749 2.02045442 0 0 Z " fill="#E69595" transform="translate(164,102)"/>
<path d="M0 0 C0.33 0.66 0.66 1.32 1 2 C-0.13888672 1.93039063 -0.13888672 1.93039063 -1.30078125 1.859375 C-2.29464844 1.82328125 -3.28851563 1.7871875 -4.3125 1.75 C-5.79169922 1.68039063 -5.79169922 1.68039063 -7.30078125 1.609375 C-10.12846322 1.71564976 -10.12846322 1.71564976 -11.66796875 3.953125 C-12.10753906 4.62859375 -12.54710937 5.3040625 -13 6 C-13.99 6.33 -14.98 6.66 -16 7 C-16.33 7.66 -16.66 8.32 -17 9 C-17.66 9 -18.32 9 -19 9 C-19.33 13.62 -19.66 18.24 -20 23 C-20.33 23 -20.66 23 -21 23 C-22.03175652 10.46606892 -22.03175652 10.46606892 -18.4375 5.375 C-13.0223038 -0.62356628 -7.61078018 -1.70586452 0 0 Z " fill="#D36A6B" transform="translate(262,101)"/>
<path d="M0 0 C0 0.99 0 1.98 0 3 C-1.32 3 -2.64 3 -4 3 C-4 3.66 -4 4.32 -4 5 C-7.63 5 -11.26 5 -15 5 C-15 3.68 -15 2.36 -15 1 C-13.43784452 0.83013455 -11.8752548 0.66426036 -10.3125 0.5 C-9.44238281 0.4071875 -8.57226562 0.314375 -7.67578125 0.21875 C-5.10276661 0.00840136 -2.58015636 -0.03719144 0 0 Z " fill="#BD0808" transform="translate(67,128)"/>
<path d="M0 0 C0.33 0 0.66 0 1 0 C1 13.86 1 27.72 1 42 C0.67 42 0.34 42 0 42 C-0.33 35.73 -0.66 29.46 -1 23 C-1.99 22.67 -2.98 22.34 -4 22 C-3.67 22.99 -3.34 23.98 -3 25 C-3.66 25 -4.32 25 -5 25 C-5 23.68 -5 22.36 -5 21 C-4.01 21 -3.02 21 -2 21 C-1.11360611 18.34081834 -0.82010975 16.51935359 -0.68359375 13.76953125 C-0.64169922 12.96708984 -0.59980469 12.16464844 -0.55664062 11.33789062 C-0.51732422 10.50451172 -0.47800781 9.67113281 -0.4375 8.8125 C-0.37272461 7.5450293 -0.37272461 7.5450293 -0.30664062 6.25195312 C-0.20068482 4.16815567 -0.0998498 2.08409897 0 0 Z " fill="#BA0708" transform="translate(269,103)"/>
<path d="M0 0 C1.4540625 0.0309375 1.4540625 0.0309375 2.9375 0.0625 C3.5625 2.9375 3.5625 2.9375 3.9375 6.0625 C3.2775 6.7225 2.6175 7.3825 1.9375 8.0625 C-1.1875 7.6875 -1.1875 7.6875 -4.0625 7.0625 C-4.10504356 5.06295254 -4.10330783 3.06208364 -4.0625 1.0625 C-3.0625 0.0625 -3.0625 0.0625 0 0 Z " fill="#CB4C4D" transform="translate(233.0625,88.9375)"/>
<path d="M0 0 C0.99 0.33 1.98 0.66 3 1 C7.17023918 1.1544533 10.94146318 0.98388771 15 0 C15 1.32 15 2.64 15 4 C14 5 14 5 11.27734375 5.09765625 C9.62412109 5.08025391 9.62412109 5.08025391 7.9375 5.0625 C6.28041016 5.04896484 6.28041016 5.04896484 4.58984375 5.03515625 C3.73519531 5.02355469 2.88054687 5.01195312 2 5 C1.34 3.35 0.68 1.7 0 0 Z " fill="#BE090A" transform="translate(248,128)"/>
<path d="M0 0 C2.14336161 3.4766338 2.21277626 6.21229195 2.125 10.25 C2.10695312 11.32765625 2.08890625 12.4053125 2.0703125 13.515625 C2.04710937 14.33546875 2.02390625 15.1553125 2 16 C1.34 15.01 0.68 14.02 0 13 C-0.66 13.99 -1.32 14.98 -2 16 C-2.33 11.05 -2.66 6.1 -3 1 C-2.01 0.67 -1.02 0.34 0 0 Z " fill="#343434" transform="translate(193,43)"/>
<path d="M0 0 C0.33 0.99 0.66 1.98 1 3 C0.01 4.485 0.01 4.485 -1 6 C-0.01 5.67 0.98 5.34 2 5 C1 8 1 8 -2.125 9.75 C-5.96582975 11.28474149 -8.96631637 10.90552081 -13 10 C-13 9.67 -13 9.34 -13 9 C-10.03 9 -7.06 9 -4 9 C-4 8.01 -4 7.02 -4 6 C-6.31 5.67 -8.62 5.34 -11 5 C-10.67 4.34 -10.34 3.68 -10 3 C-9.2575 3.20625 -8.515 3.4125 -7.75 3.625 C-4.65256571 4.0473774 -3.54868779 3.72946672 -1 2 C-0.67 1.34 -0.34 0.68 0 0 Z " fill="#DF8180" transform="translate(95,124)"/>
<path d="M0 0 C5.61 0 11.22 0 17 0 C17 4 17 4 16 7 C13.5622037 7.05397335 11.12560315 7.09365616 8.6875 7.125 C7.65206055 7.15013672 7.65206055 7.15013672 6.59570312 7.17578125 C2.82864604 7.21217794 1.21568296 7.14378864 -2 5 C3.28 5.33 8.56 5.66 14 6 C14 5.34 14 4.68 14 4 C13.15695313 3.87882812 12.31390625 3.75765625 11.4453125 3.6328125 C10.34960938 3.46523437 9.25390625 3.29765625 8.125 3.125 C7.03445312 2.96257812 5.94390625 2.80015625 4.8203125 2.6328125 C2 2 2 2 0 0 Z " fill="#8F8F8F" transform="translate(152,66)"/>
<path d="M0 0 C3 1 3 1 4.375 3.3125 C6.19131134 6.31639952 8.18448626 7.94543592 11 10 C7.91441876 11.02852708 6.22643349 11 3 11 C0.22473478 8.43030998 0.00437794 7.0875589 -0.1875 3.25 C-0.125625 2.1775 -0.06375 1.105 0 0 Z " fill="#757575" transform="translate(140,56)"/>
<path d="M0 0 C1.9375 0.1875 1.9375 0.1875 4 1 C5.3125 2.8125 5.3125 2.8125 6 5 C5.625 7.25 5.625 7.25 5 9 C4.01 9 3.02 9 2 9 C1.67 9.66 1.34 10.32 1 11 C-0.59555725 7.50971852 -1.32049797 4.84597567 -1 1 C-0.67 0.67 -0.34 0.34 0 0 Z " fill="#5D5D5D" transform="translate(188,35)"/>
<path d="M0 0 C0.66 0.33 1.32 0.66 2 1 C1.72342508 4.31889905 1.21633092 5.76400263 -1.0625 8.25 C-4.94516296 10.56307581 -7.48276169 10.85428264 -12 11 C-12.99 10.34 -13.98 9.68 -15 9 C-12.03 9 -9.06 9 -6 9 C-6 8.34 -6 7.68 -6 7 C-4.68 7 -3.36 7 -2 7 C-2 6.01 -2 5.02 -2 4 C-3.32 3.67 -4.64 3.34 -6 3 C-5.01 2.34 -4.02 1.68 -3 1 C-3 1.66 -3 2.32 -3 3 C-2.01 3 -1.02 3 0 3 C0 2.01 0 1.02 0 0 Z " fill="#D25C5C" transform="translate(69,124)"/>
<path d="M0 0 C0.33 0.66 0.66 1.32 1 2 C2.32 2 3.64 2 5 2 C4.54738642 3.43931117 4.08767021 4.87638999 3.625 6.3125 C3.36976563 7.11300781 3.11453125 7.91351563 2.8515625 8.73828125 C2 11 2 11 0 14 C0 12.68 0 11.36 0 10 C-0.66 10 -1.32 10 -2 10 C-1.85950482 8.52031676 -1.71245174 7.04125484 -1.5625 5.5625 C-1.48128906 4.73878906 -1.40007812 3.91507813 -1.31640625 3.06640625 C-1 1 -1 1 0 0 Z " fill="#858585" transform="translate(130,35)"/>
<path d="M0 0 C2.7972908 2.06756277 3.02692273 3.14440371 3.6875 6.6875 C3.790625 7.780625 3.89375 8.87375 4 10 C2.35 10.66 0.7 11.32 -1 12 C-2.3899408 9.2201184 -2.18488204 7.0813674 -2 4 C-1 1.625 -1 1.625 0 0 Z " fill="#525252" transform="translate(130,67)"/>
<path d="M0 0 C1.65 0.33 3.3 0.66 5 1 C5.625 3.375 5.625 3.375 6 6 C5.34 6.66 4.68 7.32 4 8 C2 7.875 2 7.875 0 7 C-1.25 4.9375 -1.25 4.9375 -2 3 C-1.34 2.01 -0.68 1.02 0 0 Z " fill="#6C6C6C" transform="translate(146,44)"/>
<path d="M0 0 C2.125 0.375 2.125 0.375 4 1 C4.625 3.375 4.625 3.375 5 6 C4.34 6.66 3.68 7.32 3 8 C1.68 8 0.36 8 -1 8 C-1.625 5.125 -1.625 5.125 -2 2 C-1.34 1.34 -0.68 0.68 0 0 Z " fill="#404040" transform="translate(170,44)"/>
<path d="M0 0 C0.66 0.33 1.32 0.66 2 1 C1.67 1.99 1.34 2.98 1 4 C1.66 3.67 2.32 3.34 3 3 C4.99960012 2.960008 7.00047242 2.95653201 9 3 C9 3.33 9 3.66 9 4 C7.3603125 4.37125 7.3603125 4.37125 5.6875 4.75 C1.7472347 6.08568315 0.99513056 6.53227308 -1 10 C-1.57229868 12.80883637 -1.57229868 12.80883637 -1.6875 15.75 C-1.75324219 16.73484375 -1.81898437 17.7196875 -1.88671875 18.734375 C-1.92410156 19.48203125 -1.96148437 20.2296875 -2 21 C-2.33 21 -2.66 21 -3 21 C-3 16.05 -3 11.1 -3 6 C-2.34 6 -1.68 6 -1 6 C-1.0309375 4.7934375 -1.0309375 4.7934375 -1.0625 3.5625 C-1 1 -1 1 0 0 Z " fill="#D86767" transform="translate(52,102)"/>
<path d="M0 0 C0.99 0 1.98 0 3 0 C3 4.62 3 9.24 3 14 C2.01 14 1.02 14 0 14 C0 9.38 0 4.76 0 0 Z " fill="#D15C5B" transform="translate(264,110)"/>
<path d="M0 0 C0.33 0 0.66 0 1 0 C1.28571429 8.57142857 1.28571429 8.57142857 -1 12 C-1.99 11.34 -2.98 10.68 -4 10 C-4.1875 6.375 -4.1875 6.375 -4 3 C-3.01 3 -2.02 3 -1 3 C-0.67 2.01 -0.34 1.02 0 0 Z " fill="#BD0708" transform="translate(150,118)"/>
<path d="M0 0 C0.33 0.66 0.66 1.32 1 2 C1.66 2 2.32 2 3 2 C3 7.28 3 12.56 3 18 C2.34 18 1.68 18 1 18 C0.22959149 11.93303301 -0.09706112 6.11485027 0 0 Z " fill="#C80205" transform="translate(165,106)"/>
<path d="M0 0 C0.33 0.99 0.66 1.98 1 3 C0.34 3 -0.32 3 -1 3 C-1 3.66 -1 4.32 -1 5 C-1.67804688 4.83371094 -2.35609375 4.66742188 -3.0546875 4.49609375 C-7.64065256 3.72365666 -12.18428654 4.03763971 -16.8203125 4.16015625 C-20 4 -20 4 -23 2 C-21.62328125 2.01740234 -21.62328125 2.01740234 -20.21875 2.03515625 C-10.56544685 2.10679815 -10.56544685 2.10679815 -1 1 C-0.67 0.67 -0.34 0.34 0 0 Z " fill="#292929" transform="translate(172,84)"/>
<path d="M0 0 C0.33 0.66 0.66 1.32 1 2 C2.32 2.33 3.64 2.66 5 3 C4.67 8.94 4.34 14.88 4 21 C3.67 21 3.34 21 3 21 C2.67 16.38 2.34 11.76 2 7 C1.01 7 0.02 7 -1 7 C-0.67 4.69 -0.34 2.38 0 0 Z " fill="#8D8D8D" transform="translate(127,43)"/>
<path d="M0 0 C0.66 0 1.32 0 2 0 C2.66 4.29 3.32 8.58 4 13 C3.01 13 2.02 13 1 13 C1 12.01 1 11.02 1 10 C0.34 10 -0.32 10 -1 10 C-1.02689216 8.52093108 -1.04634621 7.04172517 -1.0625 5.5625 C-1.07410156 4.73878906 -1.08570313 3.91507812 -1.09765625 3.06640625 C-1 1 -1 1 0 0 Z " fill="#C70203" transform="translate(244,114)"/>
<path d="M0 0 C0 0.99 0 1.98 0 3 C-3.63 3.33 -7.26 3.66 -11 4 C-11 2.68 -11 1.36 -11 0 C-6.98195309 -0.84098656 -3.98196457 -1.05404945 0 0 Z " fill="#B7090A" transform="translate(138,102)"/>
<path d="M0 0 C0.598125 0.20625 1.19625 0.4125 1.8125 0.625 C0.4925 0.955 -0.8275 1.285 -2.1875 1.625 C-2.1875 2.285 -2.1875 2.945 -2.1875 3.625 C1.4425 3.625 5.0725 3.625 8.8125 3.625 C9.1425 4.285 9.4725 4.945 9.8125 5.625 C9.22082031 5.61339844 8.62914063 5.60179688 8.01953125 5.58984375 C3.81018215 5.54177614 -0.0797333 5.56493117 -4.1875 6.625 C-4.5175 4.975 -4.8475 3.325 -5.1875 1.625 C-2.1875 -0.375 -2.1875 -0.375 0 0 Z " fill="#DF8584" transform="translate(84.1875,101.375)"/>
<path d="M0 0 C0.66 0.33 1.32 0.66 2 1 C2 6.28 2 11.56 2 17 C1.67 17 1.34 17 1 17 C0.67 15.35 0.34 13.7 0 12 C-0.33 12 -0.66 12 -1 12 C-1.02687279 10.18757948 -1.04633715 8.37504767 -1.0625 6.5625 C-1.07410156 5.55316406 -1.08570312 4.54382812 -1.09765625 3.50390625 C-1 1 -1 1 0 0 Z " fill="#343434" transform="translate(128,49)"/>
<path d="M0 0 C1.19109375 -0.03867187 1.19109375 -0.03867187 2.40625 -0.078125 C3.0971875 0.03015625 3.788125 0.1384375 4.5 0.25 C5.16 1.24 5.82 2.23 6.5 3.25 C1.88 3.58 -2.74 3.91 -7.5 4.25 C-7.17 3.26 -6.84 2.27 -6.5 1.25 C-4.15897141 0.07948571 -2.60647047 0.0507754 0 0 Z " fill="#3B3B3B" transform="translate(156.5,20.75)"/>
<path d="M0 0 C2.31 0.33 4.62 0.66 7 1 C7.33 2.65 7.66 4.3 8 6 C4.38462395 6 2.88834003 5.10770759 0 3 C0 2.01 0 1.02 0 0 Z " fill="#BF0707" transform="translate(129,115)"/>
<path d="M0 0 C1.35439668 2.70879335 1.06501451 5.00933268 1 8 C1.94875 8.226875 2.8975 8.45375 3.875 8.6875 C7 10 7 10 8.375 12.625 C8.58125 13.40875 8.7875 14.1925 9 15 C5.60601966 14.7090874 3.96886249 13.97716583 1.1875 11.9375 C-1.7922394 7.93613567 -1.48917768 5.89177677 -1 1 C-0.67 0.67 -0.34 0.34 0 0 Z " fill="#DC7779" transform="translate(122,105)"/>
<path d="M0 0 C0.33 1.32 0.66 2.64 1 4 C-0.8125 5.5625 -0.8125 5.5625 -3 7 C-3.99 6.67 -4.98 6.34 -6 6 C-6.33 5.34 -6.66 4.68 -7 4 C-4.83989616 0.75984424 -3.8842653 0 0 0 Z " fill="#666666" transform="translate(174,65)"/>
<path d="M0 0 C0.99 0 1.98 0 3 0 C3.33 2.97 3.66 5.94 4 9 C1.525 8.01 1.525 8.01 -1 7 C-1.04254356 5.00045254 -1.04080783 2.99958364 -1 1 C-0.67 0.67 -0.34 0.34 0 0 Z " fill="#C00408" transform="translate(123,106)"/>
<path d="M0 0 C0.66 0 1.32 0 2 0 C2 4.29 2 8.58 2 13 C1.01 12.67 0.02 12.34 -1 12 C-1.08159574 7.83861737 -0.98248524 4.0527516 0 0 Z " fill="#C40205" transform="translate(98,119)"/>
<path d="M0 0 C0.99 0 1.98 0 3 0 C4.4783226 2.95664519 4.06032783 5.74229737 4 9 C3.67 8.34 3.34 7.68 3 7 C1.68 7 0.36 7 -1 7 C-1.33 6.01 -1.66 5.02 -2 4 C-1.34 4 -0.68 4 0 4 C0 2.68 0 1.36 0 0 Z " fill="#C32025" transform="translate(217,103)"/>
<path d="M0 0 C0.78375 0.33 1.5675 0.66 2.375 1 C4.84332497 2.11866511 4.84332497 2.11866511 7 2 C6.67 3.32 6.34 4.64 6 6 C4.68 5.67 3.36 5.34 2 5 C1.67 5.99 1.34 6.98 1 8 C-0.42944945 5.64561267 -1.08661261 4.51967567 -0.625 1.75 C-0.41875 1.1725 -0.2125 0.595 0 0 Z " fill="#BE0507" transform="translate(197,105)"/>
<path d="M0 0 C5.71241466 0.38728235 8.73688282 0.87010523 13 5 C12.67 5.66 12.34 6.32 12 7 C11.01 6.34 10.02 5.68 9 5 C9 4.34 9 3.68 9 3 C4.545 3.495 4.545 3.495 0 4 C0 2.66666667 0 1.33333333 0 0 Z " fill="#CD5B5E" transform="translate(88,100)"/>
<path d="M0 0 C4.29 0.33 8.58 0.66 13 1 C13 1.66 13 2.32 13 3 C9.04 3 5.08 3 1 3 C1.33 3.99 1.66 4.98 2 6 C1.01 5.67 0.02 5.34 -1 5 C-0.67 3.35 -0.34 1.7 0 0 Z " fill="#D47876" transform="translate(121,127)"/>
<path d="M0 0 C0.80050781 0.03480469 1.60101563 0.06960937 2.42578125 0.10546875 C3.84890625 0.16734375 5.27203125 0.22921875 6.73828125 0.29296875 C6.73828125 4.25296875 6.73828125 8.21296875 6.73828125 12.29296875 C5.74828125 12.62296875 4.75828125 12.95296875 3.73828125 13.29296875 C4.39828125 9.33296875 5.05828125 5.37296875 5.73828125 1.29296875 C2.10828125 1.95296875 -1.52171875 2.61296875 -5.26171875 3.29296875 C-2.26171875 0.29296875 -2.26171875 0.29296875 0 0 Z " fill="#DC615F" transform="translate(90.26171875,116.70703125)"/>
<path d="M0 0 C6.52307692 0.49230769 6.52307692 0.49230769 8.9375 3.0625 C9.288125 3.701875 9.63875 4.34125 10 5 C2 5 2 5 0 4 C0 2.68 0 1.36 0 0 Z " fill="#4D4D4D" transform="translate(145,65)"/>
<path d="M0 0 C1.32 0 2.64 0 4 0 C4 0.66 4 1.32 4 2 C4.99 2.33 5.98 2.66 7 3 C6.67 4.32 6.34 5.64 6 7 C5.01 6.67 4.02 6.34 3 6 C3 5.34 3 4.68 3 4 C2.01 3.67 1.02 3.34 0 3 C0 2.01 0 1.02 0 0 Z " fill="#3D3D3D" transform="translate(174,23)"/>
<path d="M0 0 C-0.33 2.31 -0.66 4.62 -1 7 C-1.99 7.33 -2.98 7.66 -4 8 C-4 7.34 -4 6.68 -4 6 C-6.97 5.505 -6.97 5.505 -10 5 C-9.443125 4.731875 -8.88625 4.46375 -8.3125 4.1875 C-6.6114292 3.31397716 -4.9488699 2.36443296 -3.3125 1.375 C-1 0 -1 0 0 0 Z " fill="#CE5A5C" transform="translate(164,125)"/>
<path d="M0 0 C1.65 0.33 3.3 0.66 5 1 C4.34 2.98 3.68 4.96 3 7 C1.54119891 6.85892253 0.08296449 6.71197585 -1.375 6.5625 C-2.59316406 6.44068359 -2.59316406 6.44068359 -3.8359375 6.31640625 C-6 6 -6 6 -8 5 C-7 4 -7 4 -4.93359375 3.90234375 C-3.69802734 3.91974609 -3.69802734 3.91974609 -2.4375 3.9375 C-1.61121094 3.94652344 -0.78492188 3.95554687 0.06640625 3.96484375 C0.70449219 3.97644531 1.34257812 3.98804687 2 4 C2 3.01 2 2.02 2 1 C1.34 0.67 0.68 0.34 0 0 Z " fill="#DE8C8B" transform="translate(136,101)"/>
<path d="M0 0 C1.32 0.33 2.64 0.66 4 1 C4 3.64 4 6.28 4 9 C2.68 8.67 1.36 8.34 0 8 C0 5.36 0 2.72 0 0 Z " fill="#C60303" transform="translate(79,121)"/>
<path d="M0 0 C1.670625 0.061875 1.670625 0.061875 3.375 0.125 C3.045 1.115 2.715 2.105 2.375 3.125 C2.375 2.465 2.375 1.805 2.375 1.125 C0.725 1.125 -0.925 1.125 -2.625 1.125 C-2.74875 1.888125 -2.8725 2.65125 -3 3.4375 C-3.625 6.125 -3.625 6.125 -5.625 9.125 C-5.625 8.465 -5.625 7.805 -5.625 7.125 C-6.285 6.795 -6.945 6.465 -7.625 6.125 C-4.84462617 0.16705607 -4.84462617 0.16705607 0 0 Z " fill="#D87E7E" transform="translate(268.625,100.875)"/>
<path d="M0 0 C0.495 0.474375 0.99 0.94875 1.5 1.4375 C4.99468651 3.62167907 7.90966936 3.65913911 12 4 C12 4.33 12 4.66 12 5 C10.95199219 5.09087891 10.95199219 5.09087891 9.8828125 5.18359375 C8.97273438 5.26738281 8.06265625 5.35117188 7.125 5.4375 C6.22007813 5.51871094 5.31515625 5.59992188 4.3828125 5.68359375 C1.98889139 5.86989285 1.98889139 5.86989285 0 7 C0 6.34 0 5.68 0 5 C-0.66 4.67 -1.32 4.34 -2 4 C-1.34 4 -0.68 4 0 4 C0 2.68 0 1.36 0 0 Z " fill="#DB7478" transform="translate(50,124)"/>
<path d="M0 0 C3.3 0 6.6 0 10 0 C9.67 0.66 9.34 1.32 9 2 C7.02 2 5.04 2 3 2 C3.33 2.66 3.66 3.32 4 4 C2.35 3.67 0.7 3.34 -1 3 C-0.67 2.01 -0.34 1.02 0 0 Z " fill="#BC3132" transform="translate(52,129)"/>
<path d="M0 0 C0.99 0 1.98 0 3 0 C3 1.32 3 2.64 3 4 C3.66 4 4.32 4 5 4 C4.67 4.99 4.34 5.98 4 7 C2.68 6.67 1.36 6.34 0 6 C0.66 6 1.32 6 2 6 C2 5.34 2 4.68 2 4 C1.01 4 0.02 4 -1 4 C-0.67 2.68 -0.34 1.36 0 0 Z " fill="#B15955" transform="translate(280,103)"/>
<path d="M0 0 C1.010625 0.0825 2.02125 0.165 3.0625 0.25 C3.7225 1.24 4.3825 2.23 5.0625 3.25 C1.7625 3.58 -1.5375 3.91 -4.9375 4.25 C-3.62363139 0.30839416 -3.62363139 0.30839416 0 0 Z " fill="#B30C09" transform="translate(153.9375,101.75)"/>
<path d="M0 0 C3.53600465 1.91135386 5.78972846 3.62642766 8 7 C7.34 7 6.68 7 6 7 C5.67 7.66 5.34 8.32 5 9 C5 8.34 5 7.68 5 7 C4.01 6.67 3.02 6.34 2 6 C2 5.01 2 4.02 2 3 C1.34 2.67 0.68 2.34 0 2 C0 1.34 0 0.68 0 0 Z " fill="#7E7E7E" transform="translate(178,23)"/>
<path d="M0 0 C1.485 0.99 1.485 0.99 3 2 C5.0492094 2.45139459 5.0492094 2.45139459 7.1875 2.625 C8.445625 2.74875 9.70375 2.8725 11 3 C9 5 9 5 5.375 5.125 C4.26125 5.08375 3.1475 5.0425 2 5 C1.34 3.35 0.68 1.7 0 0 Z " fill="#DB7D80" transform="translate(249,125)"/>
<path d="M0 0 C2.31 0 4.62 0 7 0 C7.33 0.66 7.66 1.32 8 2 C5.04335481 3.4783226 2.25770263 3.06032783 -1 3 C-0.67 2.01 -0.34 1.02 0 0 Z " fill="#BE0606" transform="translate(188,102)"/>
<path d="M0 0 C-0.99 0.495 -0.99 0.495 -2 1 C-1.01 1.66 -0.02 2.32 1 3 C-1.97 3 -4.94 3 -8 3 C-8 2.34 -8 1.68 -8 1 C-4.93251126 -0.86240388 -3.40254489 -1.2151946 0 0 Z " fill="#AF0D0D" transform="translate(90,102)"/>
<path d="M0 0 C0.33 0.66 0.66 1.32 1 2 C-3.29 2 -7.58 2 -12 2 C-11 0 -11 0 -9.375 -0.6875 C-6.07889932 -1.12119746 -3.24136438 -0.672736 0 0 Z " fill="#CB6363" transform="translate(217,101)"/>
<path d="M0 0 C0.66 0.33 1.32 0.66 2 1 C0.95125002 3.62187494 0.35068687 4.79371361 -2.125 6.25 C-2.74375 6.4975 -3.3625 6.745 -4 7 C-3.6875 4.625 -3.6875 4.625 -3 2 C-2.01 1.34 -1.02 0.68 0 0 Z " fill="#686868" transform="translate(184,78)"/>
<path d="M0 0 C2.125 0.375 2.125 0.375 4 1 C3.01 1.66 2.02 2.32 1 3 C0.27617533 5.05925139 0.27617533 5.05925139 0 7 C0.99 7.33 1.98 7.66 3 8 C1.68 8 0.36 8 -1 8 C-1.625 5.125 -1.625 5.125 -2 2 C-1.34 1.34 -0.68 0.68 0 0 Z " fill="#858585" transform="translate(170,44)"/>
<path d="M0 0 C0.66 0 1.32 0 2 0 C2.625 2.8125 2.625 2.8125 3 6 C2.01 7.485 2.01 7.485 1 9 C1 7.68 1 6.36 1 5 C0.34 5 -0.32 5 -1 5 C-0.67 3.35 -0.34 1.7 0 0 Z " fill="#363636" transform="translate(129,40)"/>
<path d="M0 0 C0.66 0.66 1.32 1.32 2 2 C1.625 4.125 1.625 4.125 1 6 C0.01 6 -0.98 6 -2 6 C-2.33 6.66 -2.66 7.32 -3 8 C-2.74438677 5.6568787 -2.40729228 3.32156597 -2 1 C-1.34 0.67 -0.68 0.34 0 0 Z " fill="#6A6A6A" transform="translate(192,38)"/>
<path d="M0 0 C1.98 0.495 1.98 0.495 4 1 C3.34 2.32 2.68 3.64 2 5 C1.01 5 0.02 5 -1 5 C-0.67 3.35 -0.34 1.7 0 0 Z " fill="#BD2D2C" transform="translate(260,128)"/>
<path d="M0 0 C2 1.375 2 1.375 4 3 C4 3.66 4 4.32 4 5 C3.01 5.495 3.01 5.495 2 6 C1.01 7.485 1.01 7.485 0 9 C-0.66 7.68 -1.32 6.36 -2 5 C-1.34 4.67 -0.68 4.34 0 4 C0 2.68 0 1.36 0 0 Z " fill="#7D7D7D" transform="translate(186,30)"/>
<path d="M0 0 C-0.33 1.32 -0.66 2.64 -1 4 C-2.98 4 -4.96 4 -7 4 C-3.375 0 -3.375 0 0 0 Z " fill="#BC0709" transform="translate(86,116)"/>
<path d="M0 0 C0.33 0.99 0.66 1.98 1 3 C1.66 3.66 2.32 4.32 3 5 C2.01 5.495 2.01 5.495 1 6 C0.5875 5.54625 0.175 5.0925 -0.25 4.625 C-2.06408095 2.94049626 -3.75285627 2.00734029 -6 1 C-4 0 -4 0 0 0 Z " fill="#C52728" transform="translate(161,102)"/>
<path d="M0 0 C1.48199902 0.44909061 2.96055236 0.90956564 4.4375 1.375 C5.26121094 1.63023438 6.08492187 1.88546875 6.93359375 2.1484375 C9 3 9 3 10 5 C4.60158311 5.49076517 4.60158311 5.49076517 1.625 3.0625 C0 1 0 1 0 0 Z " fill="#8C8C8C" transform="translate(167,18)"/>
<path d="M0 0 C0.33 0.66 0.66 1.32 1 2 C-2.63 2 -6.26 2 -10 2 C-10 1.67 -10 1.34 -10 1 C-3.44680851 -1.53191489 -3.44680851 -1.53191489 0 0 Z " fill="#323232" transform="translate(162,22)"/>
<path d="M0 0 C0.66 1.32 1.32 2.64 2 4 C0.68 5.32 -0.64 6.64 -2 8 C-2.33 6.35 -2.66 4.7 -3 3 C-2.34 3 -1.68 3 -1 3 C-0.67 2.01 -0.34 1.02 0 0 Z " fill="#CF3534" transform="translate(250,104)"/>
<path d="M0 0 C2.475 0.99 2.475 0.99 5 2 C1.3558226 4.4294516 -0.71241272 4.16179575 -5 4 C-3.35 2.68 -1.7 1.36 0 0 Z " fill="#717171" transform="translate(166,87)"/>
<path d="M0 0 C0.66 0.33 1.32 0.66 2 1 C2 2.32 2 3.64 2 5 C0.35 5.33 -1.3 5.66 -3 6 C-3 5.34 -3 4.68 -3 4 C-2.34 4 -1.68 4 -1 4 C-0.67 2.68 -0.34 1.36 0 0 Z " fill="#616161" transform="translate(174,83)"/>
<path d="M0 0 C4.75 0.75 4.75 0.75 7 3 C3.91441876 4.02852708 2.22643349 4 -1 4 C-0.67 2.68 -0.34 1.36 0 0 Z " fill="#696969" transform="translate(144,63)"/>
<path d="M0 0 C1.65 0 3.3 0 5 0 C4.34 1.65 3.68 3.3 3 5 C2.34 5 1.68 5 1 5 C0.67 3.35 0.34 1.7 0 0 Z " fill="#414141" transform="translate(136,27)"/>
<path d="M0 0 C2.31 0 4.62 0 7 0 C6 2 6 2 2.9375 3.125 C1.968125 3.41375 0.99875 3.7025 0 4 C0 2.68 0 1.36 0 0 Z " fill="#B80A0B" transform="translate(153,115)"/>
<path d="M0 0 C2.31 0.33 4.62 0.66 7 1 C7 1.66 7 2.32 7 3 C5.35 3.33 3.7 3.66 2 4 C2 3.34 2 2.68 2 2 C1.34 2 0.68 2 0 2 C0 1.34 0 0.68 0 0 Z " fill="#C30307" transform="translate(63,104)"/>
<path d="M0 0 C0.33 0.99 0.66 1.98 1 3 C0.34 3 -0.32 3 -1 3 C-1 3.66 -1 4.32 -1 5 C-2.32 4.67 -3.64 4.34 -5 4 C-4.67 3.01 -4.34 2.02 -4 1 C-1.9375 0.3125 -1.9375 0.3125 0 0 Z " fill="#393939" transform="translate(172,84)"/>
<path d="M0 0 C-0.66 1.32 -1.32 2.64 -2 4 C-3.32 4 -4.64 4 -6 4 C-5.67 3.01 -5.34 2.02 -5 1 C-2 0 -2 0 0 0 Z " fill="#353535" transform="translate(174,65)"/>
</svg>
