<?xml version="1.0" encoding="UTF-8"?>
<svg version="1.1" xmlns="http://www.w3.org/2000/svg" width="245" height="245">
<path d="M0 0 C0.70382813 0.57234375 1.40765625 1.1446875 2.1328125 1.734375 C23.03965556 18.95177517 38.0157588 48.14182922 41 75 C41.16242188 76.30710938 41.16242188 76.30710938 41.328125 77.640625 C44.66347738 108.36097589 37.07854683 140.13102173 18.66796875 165.171875 C16.50453427 167.84023371 14.27672436 170.42814471 12 173 C11.42765625 173.70382813 10.8553125 174.40765625 10.265625 175.1328125 C-6.95177517 196.03965556 -36.14182922 211.0157588 -63 214 C-63.87140625 214.10828125 -64.7428125 214.2165625 -65.640625 214.328125 C-96.36097589 217.66347738 -128.13102173 210.07854683 -153.171875 191.66796875 C-155.84023371 189.50453427 -158.42814471 187.27672436 -161 185 C-161.70382813 184.42765625 -162.40765625 183.8553125 -163.1328125 183.265625 C-184.03965556 166.04822483 -199.0157588 136.85817078 -202 110 C-202.16242188 108.69289062 -202.16242188 108.69289062 -202.328125 107.359375 C-205.66347738 76.63902411 -198.07854683 44.86897827 -179.66796875 19.828125 C-177.50453427 17.15976629 -175.27672436 14.57185529 -173 12 C-172.42765625 11.29617187 -171.8553125 10.59234375 -171.265625 9.8671875 C-154.04822483 -11.03965556 -124.85817078 -26.0157588 -98 -29 C-96.69289062 -29.16242187 -96.69289062 -29.16242187 -95.359375 -29.328125 C-60.9441559 -33.0646345 -26.02122861 -23.03518599 0 0 Z " fill="#357DDB" transform="translate(203,30)"/>
<path d="M0 0 C4.15354331 2.90748031 4.15354331 2.90748031 5.5 5.75 C6.1587389 9.58532428 6.33453467 13.09466785 4.55078125 16.6328125 C2.53116797 19.2704147 0.86023909 20.63792562 -2.3125 21.625 C-3.034375 21.66625 -3.75625 21.7075 -4.5 21.75 C-4.542721 20.08388095 -4.54063832 18.41617115 -4.5 16.75 C-4.005 16.255 -4.005 16.255 -3.5 15.75 C-3.40176063 14.08570949 -3.37026369 12.41718069 -3.375 10.75 C-3.37242188 9.8425 -3.36984375 8.935 -3.3671875 8 C-3.24826221 5.78033389 -3.24826221 5.78033389 -4.5 4.75 C-9.47697238 3.8896481 -13.47778452 4.23996333 -17.6875 7.125 C-24.52854461 12.88731702 -29.00447736 21.46058392 -29.8359375 30.3359375 C-29.92666996 39.13698591 -29.61767015 44.86979834 -23.8125 51.75 C-19.97284361 53.41039195 -16.59769935 53.53145228 -12.5 52.75 C-3.65651461 49.04097241 0.09152731 41.94893433 3.953125 33.61328125 C6.96248221 27.17484069 9.02136322 22.98931839 15.5 19.75 C20.17165712 19.00253486 22.6811598 20.0543481 26.5 22.75 C27.056875 22.234375 27.61375 21.71875 28.1875 21.1875 C30.5 19.75 30.5 19.75 33.25 20.0625 C33.9925 20.289375 34.735 20.51625 35.5 20.75 C35.01107049 25.73708099 34.12989196 30.44169133 32.9375 35.3125 C31.82351934 39.96309888 31.16774006 43.98760748 31.5 48.75 C35.21172331 47.55694608 36.70195668 45.37682955 38.4921875 42.0078125 C41.52924957 35.20385175 43.54229688 27.92824479 45.5 20.75 C47.875 20.125 47.875 20.125 50.5 19.75 C53.50617269 22.75617269 53.09585316 25.57381598 53.5 29.75 C53.97050781 29.19570312 54.44101563 28.64140625 54.92578125 28.0703125 C55.54839844 27.34585938 56.17101562 26.62140625 56.8125 25.875 C57.42738281 25.15570313 58.04226562 24.43640625 58.67578125 23.6953125 C60.95730568 21.26233785 62.64043459 19.85744568 66 19.4375 C68.5 19.75 68.5 19.75 70.13671875 20.9765625 C72.74270017 24.36657844 71.86957916 28.67251186 71.5 32.75 C71.20687705 34.17552955 70.87650749 35.59419146 70.5 37 C69.57705749 40.46103443 69.3223618 43.19723598 69.5 46.75 C71.42519158 46.57517593 71.42519158 46.57517593 73.5 45.75 C77.85221427 40.01517622 79.17163731 33.43354681 79.84765625 26.4140625 C80.65472225 23.11814028 81.85806797 21.83033835 84.5 19.75 C87.25 19.5 87.25 19.5 89.5 19.75 C90.96632711 24.14898134 90.54192453 28.56247547 90.4609375 33.15039062 C90.40814491 38.11729362 90.78711044 42.83217595 91.5 47.75 C97.24175243 44.2036235 99.57194518 38.58598555 102.5 32.75 C101.86578125 32.45480469 101.2315625 32.15960938 100.578125 31.85546875 C97.93213014 30.44791885 97.42145278 29.59114607 96.5 26.75 C96.03654118 22.57887065 96.31423849 20.17570345 98 16.3125 C100.67979637 13.56570872 101.03439516 13.34792559 104.625 13.25 C108.5 13.75 108.5 13.75 110.5 15.75 C111.27703544 21.36065297 110.30317693 26.45316778 108.5 31.75 C113.71523251 29.663907 116.92384319 26.55732871 120.765625 22.4921875 C123.30661992 19.93974666 124.24565129 19.76387357 127.9375 19.5625 C131.5 19.75 131.5 19.75 134.5 21.75 C134.5 22.41 134.5 23.07 134.5 23.75 C135.16 23.75 135.82 23.75 136.5 23.75 C136.83 22.76 137.16 21.77 137.5 20.75 C139.4914056 20.36866701 141.49279077 20.03674418 143.5 19.75 C144.5 20.75 144.5 20.75 144.6875 23.875 C144.43906906 29.00923942 142.93913306 33.38380827 141.375 38.25 C140.46618359 41.88526564 140.34770653 45.01880993 140.5 48.75 C141.49 48.75 142.48 48.75 143.5 48.75 C144.89727317 46.97671235 144.89727317 46.97671235 146.0625 44.75 C147.31640625 42.5 147.31640625 42.5 148.5 40.75 C149.16 40.75 149.82 40.75 150.5 40.75 C150.25021432 44.91309459 149.64147693 47.51125769 147.5 51.125 C144.08443498 54.11361939 142.10275369 54.81814503 137.66015625 55.0703125 C134.13718812 54.5479194 132.56860733 52.48590002 130.5 49.75 C129.654375 50.575 128.80875 51.4 127.9375 52.25 C125.3100514 54.43643477 124.46011455 54.75550144 120.875 55.25 C117.38814162 54.73342839 115.91969984 54.26276522 113.5 51.75 C112.37410509 48.37231526 112.36705725 45.74187928 112.375 42.1875 C112.37242187 41.03121094 112.36984375 39.87492187 112.3671875 38.68359375 C112.5 35.75 112.5 35.75 113.5 33.75 C110.56670326 34.04931599 109.0179724 34.30130355 106.5 35.75 C104.51557336 38.35810359 102.91316952 41.08532549 101.25390625 43.91015625 C98.11754646 48.98840473 94.93184797 53.08676874 89.0625 54.6875 C88.216875 54.708125 87.37125 54.72875 86.5 54.75 C83.07068046 50.9940786 81.93570917 46.51533255 80.5 41.75 C80.20867187 42.35328125 79.91734375 42.9565625 79.6171875 43.578125 C76.99135439 48.69767384 74.9022668 52.21424211 69.5 54.75 C66.30907406 55.18797023 64.4826672 55.32604629 61.6875 53.6875 C58.47208514 48.44129681 59.5853223 42.09778094 60.4375 36.3125 C60.58735352 35.21518555 60.58735352 35.21518555 60.74023438 34.09570312 C60.98497233 32.31261231 61.24127853 30.53111558 61.5 28.75 C53.98315676 35.71147509 49.70809266 45.12572203 46.5 54.75 C44.1875 55.0625 44.1875 55.0625 41.5 54.75 C39.6875 52.25 39.6875 52.25 38.5 49.75 C37.654375 50.575 36.80875 51.4 35.9375 52.25 C33.28595723 54.4617134 32.4449418 54.75746552 28.8125 55.25 C25.5 54.75 25.5 54.75 23.5625 53.375 C22.5 51.75 22.5 51.75 22.5 49.75 C21.51 50.575 20.52 51.4 19.5 52.25 C15.26887801 55.25383914 12.61791115 55.58900183 7.5 54.75 C5 52.5 5 52.5 3.5 49.75 C3.5 48.43 3.5 47.11 3.5 45.75 C2.84 45.75 2.18 45.75 1.5 45.75 C1.335 46.430625 1.17 47.11125 1 47.8125 C-1.5377003 52.78216308 -5.90654623 56.46174845 -10.890625 58.9375 C-16.69620252 60.74522474 -23.11308644 60.50143575 -28.875 58.6875 C-35.69080752 53.65678492 -39.04597419 48.11981244 -40.5 39.75 C-41.57546658 27.64673323 -39.1112889 18.32922672 -31.5 8.75 C-22.84345269 0.21756089 -11.95364409 -4.2691586 0 0 Z " fill="#F8FAFD" transform="translate(67.5,93.25)"/>
<path d="M0 0 C0.99 0.66 1.98 1.32 3 2 C3 2.66 3 3.32 3 4 C3.66 4 4.32 4 5 4 C5.33 3.01 5.66 2.02 6 1 C7.9914056 0.61866701 9.99279077 0.28674418 12 0 C13 1 13 1 13.1875 4.125 C12.93906906 9.25923942 11.43913306 13.63380827 9.875 18.5 C8.96618359 22.13526564 8.84770653 25.26880993 9 29 C9.99 29 10.98 29 12 29 C13.39727317 27.22671235 13.39727317 27.22671235 14.5625 25 C15.81640625 22.75 15.81640625 22.75 17 21 C17.66 21 18.32 21 19 21 C18.75021432 25.16309459 18.14147693 27.76125769 16 31.375 C12.58443498 34.36361939 10.60275369 35.06814503 6.16015625 35.3203125 C2.63718812 34.7979194 1.06860733 32.73590002 -1 30 C-1.845625 30.825 -2.69125 31.65 -3.5625 32.5 C-6.1899486 34.68643477 -7.03988545 35.00550144 -10.625 35.5 C-14.11185838 34.98342839 -15.58030016 34.51276522 -18 32 C-20.03810355 25.88568936 -20.0473125 18.37180528 -19 12 C-17.23335268 8.48661125 -15.07682841 6.39308876 -12 4 C-11.175 3.175 -10.35 2.35 -9.5 1.5 C-6.1464038 -0.51215772 -3.84371139 -0.42707904 0 0 Z " fill="#F9F9FE" transform="translate(199,113)"/>
<path d="M0 0 C0.928125 0.28810547 0.928125 0.28810547 1.875 0.58203125 C2.49595126 8.61300087 2.33421804 16.15228556 -3.125 22.58203125 C-5.67578125 23.4765625 -5.67578125 23.4765625 -8.125 23.58203125 C-10.125 21.58203125 -10.125 21.58203125 -10.5 18.08203125 C-10.3378378 11.73453947 -7.88313282 5.94452223 -4.125 0.89453125 C-2.125 -0.41796875 -2.125 -0.41796875 0 0 Z " fill="#3B85DC" transform="translate(89.125,118.41796875)"/>
<path d="M0 0 C1.32 0.66 2.64 1.32 4 2 C4.5239199 8.94193865 3.13992884 14.75890687 0 21 C-2.140625 23.328125 -2.140625 23.328125 -4 25 C-5.32 24.34 -6.64 23.68 -8 23 C-8.55984568 15.69090356 -7.80532889 9.40093903 -4 3 C-1.859375 1.21484375 -1.859375 1.21484375 0 0 Z " fill="#5366E3" transform="translate(197,118)"/>
<path d="M0 0 C0.66 0 1.32 0 2 0 C2.05399736 1.45792884 2.09279177 2.91642712 2.125 4.375 C2.14820313 5.18710938 2.17140625 5.99921875 2.1953125 6.8359375 C2 9 2 9 0 11 C-1.16461426 7.50615721 -1.13568319 4.66344611 -1 1 C-0.67 0.67 -0.34 0.34 0 0 Z " fill="#507AE1" transform="translate(171,111)"/>
</svg>
