<?xml version="1.0" encoding="UTF-8"?>
<svg version="1.1" xmlns="http://www.w3.org/2000/svg" width="3840" height="2160">
<path d="M0 0 C3.52076101 0.00422778 7.04150241 -0.00326367 10.56225839 -0.00915251 C16.7137065 -0.01785885 22.86512131 -0.01924662 29.01657405 -0.01564924 C38.16484608 -0.0103136 47.31308621 -0.01646618 56.46135478 -0.02473217 C73.75643629 -0.03993103 91.0515031 -0.04168143 108.34658989 -0.03920914 C121.70876581 -0.03737262 135.07093696 -0.03914361 148.43311229 -0.04343358 C150.3565519 -0.044036 152.27999151 -0.0446372 154.20343112 -0.04523719 C157.10231262 -0.0461445 160.00119412 -0.04705317 162.90007561 -0.04796954 C189.8355952 -0.0563931 216.77111299 -0.06073895 243.70663371 -0.05656282 C244.72098085 -0.05640644 245.735328 -0.05625007 246.78041293 -0.05608895 C251.92087246 -0.05528324 257.06133197 -0.05443746 262.20179149 -0.05357565 C263.22259954 -0.05340456 264.24340758 -0.05323347 265.29514921 -0.0530572 C267.35946947 -0.05271054 269.42378973 -0.05236201 271.48810999 -0.05201161 C303.59434579 -0.04665686 335.7005541 -0.05458031 367.80678477 -0.07304517 C403.92667713 -0.09379431 440.04655247 -0.10448223 476.16645112 -0.10046969 C480.02326216 -0.10007438 483.88007321 -0.09971282 487.73688426 -0.0993723 C488.68644024 -0.09928157 489.63599622 -0.09919084 490.61432662 -0.09909736 C504.90487101 -0.09793482 519.19539813 -0.10455354 533.48593821 -0.11518422 C549.75385211 -0.12727396 566.02172815 -0.12875201 582.28964265 -0.11639406 C591.37543431 -0.10979959 600.46113524 -0.11131696 609.5469195 -0.12498257 C615.63828504 -0.13329838 621.72958345 -0.1304383 627.82094367 -0.1190073 C631.27682398 -0.11282039 634.73238759 -0.11267732 638.18827864 -0.12287064 C661.14328495 -0.18581447 684.03599999 1.18374713 706.55776133 5.88813647 C708.38827037 6.26228686 708.38827037 6.26228686 710.25575938 6.64399584 C724.0044329 9.58315476 737.29662114 13.80220938 750.62026133 18.26313647 C752.25039323 18.79462098 753.88059213 19.32590006 755.51088633 19.85688647 C769.94941382 24.6593376 784.06627053 30.7839905 797.05385508 38.73188647 C799.42798235 40.14841294 801.80540518 41.34342074 804.30776133 42.51313647 C816.79365882 48.61556868 828.31090727 57.23411991 839.62026133 65.26313647 C840.89643321 66.16419116 840.89643321 66.16419116 842.19838633 67.08344897 C842.93573008 67.61712084 843.67307383 68.15079272 844.43276133 68.70063647 C845.05795665 69.15309741 845.68315196 69.60555834 846.32729258 70.07173022 C846.75397227 70.46489428 847.18065196 70.85805834 847.62026133 71.26313647 C847.62026133 71.92313647 847.62026133 72.58313647 847.62026133 73.26313647 C848.17455821 73.49903491 848.72885508 73.73493334 849.29994883 73.97798022 C852.18473375 75.57578197 854.33198166 77.58164656 856.74526133 79.82563647 C859.93533643 82.90032833 859.93533643 82.90032833 863.62026133 85.26313647 C863.62026133 85.92313647 863.62026133 86.58313647 863.62026133 87.26313647 C864.45557383 87.63438647 864.45557383 87.63438647 865.30776133 88.01313647 C868.04437047 89.49238465 870.29677003 91.19781086 872.62026133 93.26313647 C872.62026133 93.92313647 872.62026133 94.58313647 872.62026133 95.26313647 C873.28026133 95.59313647 873.94026133 95.92313647 874.62026133 96.26313647 C876.97951636 98.79845531 879.24603817 101.40688142 881.52651133 104.01313647 C883.41597344 106.30687861 883.41597344 106.30687861 885.62026133 107.26313647 C885.62026133 107.92313647 885.62026133 108.58313647 885.62026133 109.26313647 C886.61026133 109.59313647 887.60026133 109.92313647 888.62026133 110.26313647 C889.98202715 112.24388674 891.31619249 114.2439331 892.62026133 116.26313647 C893.28026133 116.59313647 893.94026133 116.92313647 894.62026133 117.26313647 C895.20807383 118.28407397 895.20807383 118.28407397 895.80776133 119.32563647 C897.36135024 121.84352193 898.86851333 123.72613346 900.84291758 125.89594897 C904.53496965 130.07538808 907.74477377 134.4624693 910.87026133 139.07563647 C911.42528331 139.8902434 911.98030528 140.70485034 912.5521461 141.54414233 C917.88199215 149.47091123 922.65721428 157.68168804 927.32485118 166.01045092 C928.69593286 168.39472734 930.14268141 170.72315682 931.59291758 173.06001147 C934.95544625 178.63947374 937.5537261 184.47183853 940.12026133 190.45063647 C940.59947032 191.55632983 941.0786793 192.66202319 941.57240977 193.80122241 C942.93180257 196.95098998 944.27905792 200.10558766 945.62026133 203.26313647 C945.94059337 204.01353198 946.2609254 204.76392749 946.59096446 205.53706225 C949.88476804 213.30631172 952.71219778 221.21607303 955.43276133 229.20063647 C955.73536876 230.07752124 956.03797618 230.954406 956.34975352 231.85786303 C957.8413916 236.33277726 958.90646836 240.51819121 959.36659922 245.20918139 C959.76294831 248.41850271 960.54669806 251.52511246 961.28334727 254.67085131 C963.64119421 264.76349988 965.44370094 274.87294351 966.87026133 285.13813647 C967.03308604 286.28822192 967.19591075 287.43830737 967.36366954 288.62324389 C969.80690681 306.93000688 969.76582485 325.21124929 969.7539741 343.64422473 C969.75529446 346.41223351 969.75810684 349.18024035 969.76083943 351.94824805 C969.76596429 357.94416468 969.76741572 363.94007324 969.76638331 369.93599185 C969.76485173 378.85293525 969.76903481 387.7698698 969.77425794 396.68681148 C969.78390687 413.54407912 969.78674127 430.4013437 969.787315 447.25861378 C969.78777535 460.28239525 969.7898379 473.30617553 969.79301562 486.32995661 C969.79391323 490.08509042 969.79480305 493.84022423 969.7956905 497.59535804 C969.79591155 498.52902095 969.7961326 499.46268387 969.79636034 500.4246396 C969.80251087 526.67176406 969.80646128 552.91888811 969.80601706 579.16601332 C969.80600148 580.15471747 969.80598591 581.14342161 969.80596986 582.16208648 C969.80588675 587.17271652 969.80578771 592.18334656 969.80568515 597.1939766 C969.80565523 598.68654342 969.80565523 598.68654342 969.80562471 600.2092631 C969.80558427 602.22148462 969.80554247 604.23370614 969.80549932 606.24592766 C969.80488683 637.53934761 969.81238981 668.83275673 969.82607188 700.12617358 C969.84145464 735.32347871 969.85003678 770.52077672 969.84910866 805.71808543 C969.84903403 809.47604843 969.84898532 813.23401143 969.84895434 816.99197444 C969.84894269 817.91720806 969.84893103 818.84244167 969.84891903 819.79571267 C969.84888834 834.64187222 969.85525591 849.4880223 969.86388661 864.33417904 C969.87239101 879.27276515 969.87333131 894.21133751 969.86677729 909.14992471 C969.86310014 918.00726047 969.86485867 926.86455428 969.87471963 935.72188553 C969.88076647 941.65852014 969.87937258 947.59512472 969.87224913 953.53175802 C969.86840679 956.90090933 969.86861635 960.26991531 969.87570648 963.63907065 C969.91775888 985.05897996 969.28491827 1006.53111144 965.74526133 1027.70063647 C965.57526622 1028.76137377 965.4052711 1029.82211108 965.23012462 1030.91499194 C962.51937171 1047.44585513 958.88693931 1063.6111392 953.80776133 1079.57563647 C953.4771168 1080.63975756 953.14647227 1081.70387866 952.80580821 1082.80024584 C950.86159686 1088.91648846 948.63126575 1094.73057982 945.89882579 1100.53681811 C944.58335036 1103.34184277 943.34372155 1106.17076685 942.12026133 1109.01704272 C941.70776133 1109.97417163 941.29526133 1110.93130053 940.87026133 1111.91743334 C940.03551061 1113.85953307 939.20218164 1115.8022445 938.37026133 1117.74555834 C935.65815509 1124.03001703 932.75007187 1130.17582146 929.62026133 1136.26313647 C928.96026133 1136.26313647 928.30026133 1136.26313647 927.62026133 1136.26313647 C927.37018321 1136.93860522 927.12010508 1137.61407397 926.86244883 1138.31001147 C920.1799105 1154.19680071 909.56699004 1169.38391171 897.77260508 1181.86079272 C895.30552212 1184.61443341 893.16658182 1187.52162073 890.99526133 1190.51313647 C887.58231144 1195.15688885 884.12753583 1198.72735472 879.62026133 1202.26313647 C876.94533901 1204.75143631 874.85521336 1206.86552535 872.99526133 1210.01313647 C870.34262499 1214.20775247 866.30096481 1216.96554269 862.45229258 1220.00532397 C859.24204125 1222.56466917 856.20395226 1225.27476288 853.17885508 1228.04829272 C851.62026133 1229.26313647 851.62026133 1229.26313647 849.62026133 1229.26313647 C849.3224879 1230.10038256 849.3224879 1230.10038256 849.01869883 1230.95454272 C847.0573761 1234.19236879 844.28078175 1236.04737449 841.24526133 1238.20063647 C840.59404307 1238.67009692 839.94282481 1239.13955737 839.27187266 1239.62324389 C825.47857449 1249.45215542 811.10782867 1259.24909439 795.87026133 1266.70063647 C794.66172908 1267.29267851 793.45340139 1267.88513826 792.24526133 1268.47798022 C791.34033946 1268.92053149 791.34033946 1268.92053149 790.41713633 1269.37202319 C788.68240961 1270.23231565 786.96343509 1271.12414918 785.24526133 1272.01704272 C768.97837181 1280.43289876 751.79722358 1286.03151186 734.33266368 1291.42329272 C732.15998981 1292.09601982 729.99269322 1292.78610377 727.82729258 1293.48188647 C697.26293359 1302.89798713 664.96145908 1304.72995265 633.20215525 1304.6440874 C630.35921275 1304.6458934 627.51628386 1304.65220456 624.67334767 1304.65826913 C618.55082308 1304.66898251 612.42837818 1304.66885183 606.30585017 1304.66112765 C597.2007444 1304.64967246 588.09570455 1304.65563659 578.99059907 1304.66475257 C562.71918818 1304.68046973 546.44781285 1304.67921281 530.17639866 1304.67051583 C515.93688839 1304.66294307 501.69739108 1304.66101117 487.45787921 1304.66458377 C486.51012957 1304.66481292 485.56237992 1304.66504208 484.58591059 1304.66527818 C480.7378537 1304.66621232 476.88979682 1304.66716754 473.04173994 1304.66815747 C437.0093928 1304.67731623 400.97706818 1304.66904297 364.94472452 1304.65286678 C332.9914246 1304.63863084 301.03816055 1304.63990693 269.08486094 1304.65424975 C233.11322591 1304.67034264 197.14161075 1304.67666761 161.16997262 1304.66741296 C157.32959098 1304.66645093 153.48920934 1304.6655124 149.64882769 1304.66458377 C148.23062093 1304.66422792 148.23062093 1304.66422792 146.78376353 1304.66386488 C132.55887195 1304.66046453 118.33399482 1304.66442066 104.10910525 1304.67202243 C87.92192182 1304.68063017 71.73477922 1304.67839212 55.54760082 1304.66218019 C46.50842292 1304.65342376 37.46933361 1304.65271969 28.43015816 1304.66411872 C22.37017885 1304.67091256 16.31026964 1304.66654077 10.2503006 1304.65360441 C6.81250886 1304.64656061 3.37503198 1304.64553619 -0.06277464 1304.65482236 C-23.197694 1304.71246257 -46.20145162 1303.27583869 -68.87973867 1298.45063647 C-70.12618154 1298.1927434 -71.37262441 1297.93485034 -72.65683828 1297.66914233 C-82.27597229 1295.62284841 -91.67233036 1293.13155463 -101.00669179 1290.04292163 C-103.48272653 1289.22929457 -105.96872648 1288.45364495 -108.45786367 1287.68110522 C-125.75516706 1282.22527849 -142.64618728 1275.47087501 -158.21567617 1266.10688647 C-161.4310323 1264.23324685 -164.69895829 1262.65524382 -168.06723867 1261.07563647 C-177.47024044 1256.44792595 -185.86553144 1250.33384408 -194.37973867 1244.26313647 C-195.14221913 1243.72446948 -195.9046996 1243.18580249 -196.69028554 1242.63081225 C-198.82280971 1241.12174875 -200.9469809 1239.60187309 -203.06723867 1238.07563647 C-204.0300475 1237.38969409 -204.0300475 1237.38969409 -205.01230703 1236.68989428 C-206.50619427 1235.59791157 -207.94929403 1234.43699911 -209.37973867 1233.26313647 C-209.37973867 1232.60313647 -209.37973867 1231.94313647 -209.37973867 1231.26313647 C-209.93661367 1231.20126147 -210.49348867 1231.13938647 -211.06723867 1231.07563647 C-214.37882166 1229.91210731 -215.99472561 1227.8185076 -218.37973867 1225.26313647 C-222.29751184 1220.94034175 -222.29751184 1220.94034175 -227.37973867 1218.26313647 C-229.06723867 1216.82563647 -229.06723867 1216.82563647 -230.37973867 1215.26313647 C-230.37973867 1214.60313647 -230.37973867 1213.94313647 -230.37973867 1213.26313647 C-230.96755117 1213.01305834 -231.55536367 1212.76298022 -232.16098867 1212.50532397 C-234.67314969 1211.09886762 -236.04619218 1209.59672655 -237.87973867 1207.38813647 C-239.80155028 1205.1067601 -241.67738248 1202.97312455 -243.81723867 1200.88813647 C-245.37973867 1199.26313647 -245.37973867 1199.26313647 -245.37973867 1197.26313647 C-246.03973867 1197.26313647 -246.69973867 1197.26313647 -247.37973867 1197.26313647 C-253.07978681 1192.4013307 -259.00850926 1185.37682468 -261.37973867 1178.26313647 C-262.36973867 1177.93313647 -263.35973867 1177.60313647 -264.37973867 1177.26313647 C-266.00950097 1175.27452742 -267.48453333 1173.30993496 -268.94223867 1171.20063647 C-269.38277578 1170.57141284 -269.82331288 1169.9421892 -270.2771996 1169.29389819 C-274.73624818 1162.85922133 -278.9213607 1156.27423171 -282.96665273 1149.57319506 C-284.46606241 1147.12201774 -286.01238308 1144.70402595 -287.55942617 1142.28266772 C-295.35144848 1129.80826282 -301.33843135 1116.97711656 -306.87973867 1103.38813647 C-307.2129009 1102.57327777 -307.54606313 1101.75841906 -307.88932119 1100.91886767 C-311.42528983 1092.21916664 -314.75445255 1083.45657729 -317.78598867 1074.56782397 C-318.15947438 1073.49131076 -318.15947438 1073.49131076 -318.54050527 1072.3930498 C-320.111341 1067.66857103 -320.84919707 1063.21234098 -321.37973867 1058.26313647 C-322.04263068 1055.92872796 -322.70991306 1053.59556493 -323.37973867 1051.26313647 C-324.29073261 1046.964942 -325.0879752 1042.6471961 -325.87973867 1038.32563647 C-326.21183339 1036.51736376 -326.21183339 1036.51736376 -326.5506371 1034.6725603 C-328.13730058 1025.89463341 -329.56469073 1017.14893085 -330.37973867 1008.26313647 C-330.46195631 1007.44524628 -330.54417395 1006.62735609 -330.62888304 1005.78468134 C-331.6989957 993.47483727 -331.52414625 981.14167635 -331.51440758 968.7956234 C-331.51276107 965.30237805 -331.51692642 961.80913853 -331.52031676 958.3158951 C-331.5254507 952.20360069 -331.52689145 946.09131418 -331.52586064 939.97901782 C-331.52433145 930.88913508 -331.52850692 921.79926106 -331.53373527 912.70938002 C-331.54339286 895.52640051 -331.54621893 878.34342399 -331.54679233 861.16044209 C-331.54725239 847.88627701 -331.54931343 834.6121131 -331.55249295 821.33794841 C-331.55339054 817.51289024 -331.55428036 813.68783208 -331.55516783 809.86277392 C-331.55538888 808.91176724 -331.55560993 807.96076055 -331.55583767 806.98093548 C-331.56198973 780.23975714 -331.56593846 753.4985792 -331.5654944 726.75740012 C-331.56547882 725.74972795 -331.56546324 724.74205578 -331.56544719 723.70384809 C-331.56536408 718.59690309 -331.56526504 713.4899581 -331.56516248 708.3830131 C-331.56514253 707.36881267 -331.56512259 706.35461223 -331.56510204 705.30967845 C-331.5650616 703.25871805 -331.5650198 701.20775766 -331.56497665 699.15679726 C-331.56436413 667.2597033 -331.57186695 635.36261997 -331.58554921 603.46552905 C-331.60092646 567.60246103 -331.60951443 531.73940001 -331.60858599 495.87632849 C-331.60851136 492.04844114 -331.60846266 488.22055378 -331.60843167 484.39266642 C-331.60841419 482.97895663 -331.60841419 482.97895663 -331.60839636 481.53668705 C-331.60836565 466.40245179 -331.61473802 451.2682258 -331.62336394 436.13399329 C-331.63186154 420.90944012 -331.63281393 405.68490043 -331.62625462 390.46034619 C-331.6225729 381.42909607 -331.62434989 372.39788707 -331.63419696 363.36664135 C-331.64023189 357.31780308 -331.63886283 351.26899433 -331.63172646 345.22015737 C-331.6278743 341.78440763 -331.62811511 338.34880085 -331.63518381 334.91304699 C-331.67393366 314.7288704 -331.06123895 294.67033205 -327.44223867 274.76313647 C-327.18229116 273.27281909 -327.18229116 273.27281909 -326.91709218 271.75239428 C-326.41795046 268.92001237 -325.90331794 266.09109157 -325.37973867 263.26313647 C-325.23890859 262.49936694 -325.09807851 261.73559741 -324.95298085 260.94868334 C-320.61261351 237.70671626 -313.14853105 215.91311576 -303.94223867 194.20063647 C-303.48258718 193.10318606 -303.48258718 193.10318606 -303.0136498 191.98356494 C-297.2712242 178.32891418 -289.93401302 166.15189924 -281.90708242 153.72016772 C-280.55376927 151.54309875 -279.3633214 149.35345674 -278.19223867 147.07563647 C-275.66660282 142.42137108 -272.54271088 138.24652079 -269.37973867 134.01313647 C-268.86902822 133.32711352 -268.35831777 132.64109057 -267.83213124 131.93427905 C-265.53538811 128.90317034 -263.24825682 126.04294865 -260.50473867 123.40376147 C-258.14490136 121.52928452 -258.14490136 121.52928452 -258.37973867 119.26313647 C-256.73430087 117.57550796 -255.0668529 115.90910157 -253.37973867 114.26313647 C-253.04973867 113.60313647 -252.71973867 112.94313647 -252.37973867 112.26313647 C-251.71973867 112.26313647 -251.05973867 112.26313647 -250.37973867 112.26313647 C-250.37973867 111.60313647 -250.37973867 110.94313647 -250.37973867 110.26313647 C-249.71973867 110.26313647 -249.05973867 110.26313647 -248.37973867 110.26313647 C-248.37973867 109.60313647 -248.37973867 108.94313647 -248.37973867 108.26313647 C-247.71973867 108.26313647 -247.05973867 108.26313647 -246.37973867 108.26313647 C-246.2463207 107.37561694 -246.2463207 107.37561694 -246.11020742 106.47016772 C-245.18851157 103.68536475 -243.97048762 102.76889611 -241.69223867 100.95063647 C-238.22874231 98.07786211 -235.38511861 95.08002997 -232.60630117 91.54829272 C-232.20153554 91.12419116 -231.79676992 90.70008959 -231.37973867 90.26313647 C-230.71973867 90.26313647 -230.05973867 90.26313647 -229.37973867 90.26313647 C-228.88473867 88.77813647 -228.88473867 88.77813647 -228.37973867 87.26313647 C-227.04397997 86.37263067 -225.70240733 85.48991954 -224.33676992 84.64594897 C-220.78763938 82.13818009 -217.71408678 79.06206955 -214.55161367 76.09126147 C-212.37973867 74.26313647 -212.37973867 74.26313647 -210.37973867 74.26313647 C-210.14255117 73.67532397 -209.90536367 73.08751147 -209.66098867 72.48188647 C-206.97896833 67.83741223 -201.73989388 65.2337534 -197.37973867 62.26313647 C-196.70749257 61.80310229 -196.03524648 61.34306811 -195.34262929 60.8690935 C-181.98467888 51.76003128 -168.52981937 43.09459465 -153.97348867 36.01313647 C-151.4568837 34.78765927 -148.96136726 33.5438787 -146.47348867 32.26313647 C-129.38408322 23.48625771 -111.78655691 17.64950372 -93.37973867 12.26313647 C-92.10308339 11.88560229 -92.10308339 11.88560229 -90.8006371 11.50044116 C-80.79610415 8.57565298 -70.69321673 6.45233272 -60.44223867 4.57563647 C-58.80085927 4.2716997 -58.80085927 4.2716997 -57.1263207 3.9616228 C-38.10988428 0.62616267 -19.28047123 -0.03548084 0 0 Z " fill="#FEDC32" transform="translate(472.3797386661172,427.73686353024095)"/>
<path d="M0 0 C15.26423755 -0.14030996 30.52844531 -0.24603931 45.79318333 -0.31087303 C52.88130341 -0.34178004 59.96902226 -0.38389892 67.05688477 -0.45263672 C73.89742265 -0.51894422 80.73754345 -0.55370918 87.57838249 -0.56926346 C90.18791196 -0.58034769 92.79741869 -0.60199274 95.40677071 -0.63438034 C99.06277835 -0.67795343 102.71706538 -0.68393324 106.37329102 -0.68115234 C107.45151123 -0.702724 108.52973145 -0.72429565 109.640625 -0.746521 C115.78899343 -0.69593544 119.25052176 0.0338723 123.63946438 4.47340965 C124.08844113 4.97718447 124.53741789 5.48095928 125 6 C125.804375 6.804375 126.60875 7.60875 127.4375 8.4375 C128.283125 9.283125 129.12875 10.12875 130 11 C132.12832571 12.83338919 134.26808722 14.65047567 136.42578125 16.44921875 C136.94527344 16.96097656 137.46476563 17.47273437 138 18 C138 18.66 138 19.32 138 20 C138.66 20 139.32 20 140 20 C140 20.66 140 21.32 140 22 C140.99 22.33 141.98 22.66 143 23 C143 23.66 143 24.32 143 25 C143.804375 25.3403125 143.804375 25.3403125 144.625 25.6875 C149.31073086 28.27698284 153.43251864 32.02088618 157 36 C157 36.66 157 37.32 157 38 C157.56203125 38.23332031 158.1240625 38.46664062 158.703125 38.70703125 C161.56734142 40.31937076 163.47252021 42.3193562 165.75 44.6875 C169.31945952 48.38937495 173.028297 51.80548991 176.91162109 55.16772461 C180.33498953 58.17127618 183.6322913 61.30517431 186.9375 64.4375 C188.43097405 65.84767271 189.9244641 67.25782846 191.41796875 68.66796875 C192.17513184 69.38388184 192.93229492 70.09979492 193.71240234 70.83740234 C202.46497823 79.11171581 211.22071343 87.38342428 220.0625 95.5625 C220.58706787 96.04799316 221.11163574 96.53348633 221.65209961 97.03369141 C225.25582262 100.35316896 228.93494049 103.5687548 232.70703125 106.6953125 C234 108 234 108 234 110 C234.66 110 235.32 110 236 110 C236 110.66 236 111.32 236 112 C236.58265625 112.25394531 237.1653125 112.50789062 237.765625 112.76953125 C240.24188033 114.13320333 241.80520626 115.64225203 243.75 117.6875 C248.22790269 122.28171185 252.98929098 126.45151602 257.8828125 130.59375 C261.42038277 133.59532478 264.71705814 136.71705814 268 140 C269.51618648 141.33861509 271.0374509 142.67149067 272.5625 144 C275.75808931 146.81190836 278.35150933 149.66802787 281 153 C282.93887227 154.7715802 284.92863697 156.47417796 286.92578125 158.1796875 C288.87003974 159.88594825 290.69023686 161.65296485 292.5 163.5 C295.54165523 166.59695806 298.75391354 169.42784148 302.04296875 172.2578125 C303.8853668 173.89795129 305.59988636 175.60107561 307.3125 177.375 C311.05045129 181.19028821 315.17203458 184.47178676 319.3515625 187.7890625 C322.07120125 190.0594394 324.52944907 192.46235744 327 195 C333.6676808 201.86768886 333.6676808 201.86768886 341 208 C339.18180983 203.11855466 336.83633647 198.52267584 334.5 193.875 C334.05640137 192.98973633 333.61280273 192.10447266 333.15576172 191.19238281 C329.81804701 184.55939695 326.37500042 177.98702535 322.89257812 171.42919922 C319.49400576 165.00220908 316.2347829 158.51073389 313 152 C309.41629901 144.78710515 305.78133605 137.61135134 302 130.5 C297.67723434 122.37041167 293.55765886 114.14777533 289.4609375 105.90234375 C286.38429695 99.72539618 283.23976548 93.59284927 280 87.5 C275.67800356 79.37185831 271.55909775 71.15071778 267.46313477 62.90673828 C263.98171637 55.91709127 260.39360139 48.9938186 256.72753906 42.09960938 C252.97621864 35.01880375 249.40723824 27.85129455 245.84814453 20.67236328 C243.01320528 14.97074656 240.09033812 9.35495672 236.92578125 3.828125 C236 2 236 2 236 0 C251.10820611 -0.30510419 266.21626961 -0.53361199 281.32687378 -0.67355824 C288.34494648 -0.74029816 295.36109395 -0.83109696 302.37792969 -0.98071289 C309.16029828 -1.12525916 315.94067427 -1.19986978 322.7244873 -1.23340416 C325.30171016 -1.25727476 327.87883395 -1.30389023 330.4552002 -1.37449074 C344.56426276 -1.74545816 354.87831564 -1.69999214 365.53091431 8.3521986 C367.04420115 9.87843038 368.52508784 11.43665274 370 13 C370.66 13.33 371.32 13.66 372 14 C372 14.66 372 15.32 372 16 C372.53109375 16.23074219 373.0621875 16.46148438 373.609375 16.69921875 C376.75459498 18.41058844 379.46314557 20.5842718 382.25 22.8125 C382.8584375 23.29460938 383.466875 23.77671875 384.09375 24.2734375 C389.44371739 28.52513923 394.74143971 32.84118672 400.03613281 37.16137695 C404.3223059 40.65383341 408.64225112 44.09737416 413 47.5 C418.74010668 51.9820011 424.39693246 56.55956557 430.0390625 61.1640625 C434.32451618 64.65530083 438.64329453 68.09818888 443 71.5 C448.74091461 75.98263195 454.39887777 80.56044024 460.04125977 85.16625977 C464.30310704 88.63893315 468.60124524 92.05834932 472.9375 95.4375 C478.22161456 99.55663681 483.40451381 103.78668749 488.5625 108.0625 C495.58552485 113.8809692 502.73305031 119.48956439 510 125 C516.61683582 130.03301873 523.02198721 135.30394771 529.42651367 140.60229492 C534.47137684 144.76644003 539.57249207 148.84572736 544.73413086 152.86376953 C550.17423315 157.10813278 555.51822736 161.46789844 560.84790039 165.84985352 C561.49106201 166.37635498 562.13422363 166.90285645 562.796875 167.4453125 C563.36760742 167.91469238 563.93833984 168.38407227 564.52636719 168.86767578 C566.01847562 170.08855061 566.01847562 170.08855061 568 171 C557.95785831 152.84355987 547.80653354 134.75970051 537.4140625 116.80078125 C529.39033099 102.93175404 521.49045888 89.00108171 513.68212891 75.00976562 C506.36124973 61.91081084 498.94285504 48.8690754 491.4375 35.875 C490.81423828 34.79549072 490.19097656 33.71598145 489.54882812 32.60375977 C487.0911648 28.34811156 484.63327593 24.09261208 482.16894531 19.84082031 C480.46292667 16.89609595 478.76218831 13.94838138 477.0625 11 C476.5480835 10.11554199 476.03366699 9.23108398 475.50366211 8.31982422 C474.80768921 7.10963623 474.80768921 7.10963623 474.09765625 5.875 C473.69039307 5.17117188 473.28312988 4.46734375 472.86352539 3.7421875 C472 2 472 2 472 0 C486.96979993 -0.3532077 501.93927324 -0.61625836 516.9123764 -0.77718258 C523.86782064 -0.85395224 530.82065081 -0.95823509 537.77441406 -1.1315918 C544.5050105 -1.29930237 551.23291219 -1.38464031 557.96546936 -1.42315865 C560.51386339 -1.45054967 563.06213554 -1.50402868 565.60935974 -1.58595085 C584.46351634 -2.16735359 596.07975624 1.78438266 611.23676395 13.01174641 C615.95484122 16.40658272 620.92061274 19.40311014 625.875 22.4375 C627.52157593 23.46798462 627.52157593 23.46798462 629.20141602 24.51928711 C637.77780042 29.87522356 646.38763464 35.17605814 655.00927734 40.45874023 C659.88248259 43.4482538 664.73825768 46.45877269 669.5546875 49.5390625 C675.08729577 53.07412944 680.69296167 56.48040817 686.3125 59.875 C693.8039557 64.41587516 701.22501051 69.03112194 708.5703125 73.8046875 C713.31426703 76.86575421 718.15296229 79.77275686 722.9777832 82.70385742 C728.52203289 86.07905023 734.02001837 89.52156398 739.5 93 C745.56889705 96.8518666 751.66714784 100.64635937 757.8125 104.375 C764.6640955 108.53324114 771.43628049 112.80586094 778.1875 117.125 C791.8060819 126.05203562 791.8060819 126.05203562 806 134 C803.81823886 142.37228664 801.28796111 150.62066112 798.67382812 158.86523438 C798.03067299 160.90282441 797.39666662 162.94300543 796.765625 164.984375 C793.10305121 176.7778626 789.18398952 188.48318632 785.26583862 200.19351196 C780.76635528 213.64592706 776.30439411 227.11074438 772.18505859 240.68554688 C769.15274371 250.65791612 765.90566831 260.55797513 762.66073608 270.46279907 C761.60163055 273.69634916 760.54435019 276.93049109 759.48754883 280.16479492 C756.37478744 289.69012548 753.25865417 299.21433403 750.1335144 308.73561096 C744.14497126 326.98745531 738.25330584 345.2542866 732.70913696 363.64642334 C729.05732415 375.74674082 725.1424898 387.74374393 721.10543823 399.72058105 C717.75146836 409.67301869 714.51008934 419.64377453 711.4375 429.6875 C708.35443744 439.7599029 705.1104112 449.76765906 701.75 459.75 C696.95532287 473.99827887 692.37938317 488.3097892 687.85668945 502.64648438 C683.83187013 515.40191321 679.74290832 528.13520923 675.6015625 540.85327148 C675.28143944 541.83809761 675.28143944 541.83809761 674.95484924 542.84281921 C674.39000917 544.58008258 673.82385284 546.31691785 673.25756836 548.05371094 C672.18269375 551.39133499 671.15634067 554.7430678 670.13012695 558.09594727 C668.01227052 564.99596375 665.80494533 571.86496209 663.578125 578.73046875 C663.15651054 580.03291117 662.73499956 581.33538709 662.31358337 582.63789368 C661.42169004 585.394157 660.52932518 588.15026696 659.63656616 590.90625 C657.27711218 598.19052182 654.92150531 605.47603795 652.56640625 612.76171875 C652.32979593 613.49363811 652.09318562 614.22555748 651.84940529 614.97965622 C645.74925279 633.85204825 639.7031097 652.74166348 633.67153931 671.63607788 C632.1126491 676.51923486 630.5514015 681.40162339 628.98681641 686.28295898 C625.20039628 698.09771843 621.44147795 709.92037796 617.72436523 721.7571106 C613.78532948 734.29361961 609.80890214 746.81166738 605.5859375 759.25610352 C604.01129312 763.90511692 602.50697655 768.56681822 601.07421875 773.26171875 C598.92651076 780.29383064 596.63642053 787.27440987 594.3125 794.25 C593.90966797 795.47074219 593.50683594 796.69148438 593.09179688 797.94921875 C592.51461914 799.68365234 592.51461914 799.68365234 591.92578125 801.453125 C591.40624878 803.01788574 591.40624878 803.01788574 590.8762207 804.61425781 C590 807 590 807 589 808 C587.4818148 808.09578593 585.95917604 808.12188147 584.43797302 808.12025452 C583.45214233 808.12162918 582.46631165 808.12300385 581.4506073 808.12442017 C580.36016617 808.12082489 579.26972504 808.11722961 578.14624023 808.11352539 C576.43426956 808.11374443 576.43426956 808.11374443 574.68771362 808.1139679 C570.89465469 808.11326818 567.10164416 808.10547307 563.30859375 808.09765625 C560.68685432 808.09579228 558.06511454 808.09436828 555.44337463 808.09336853 C549.23498045 808.09025551 543.02660379 808.08204252 536.81821734 808.07201904 C529.75182559 808.06085699 522.68543301 808.05534722 515.61903465 808.05032361 C501.07934737 808.03985988 486.53967393 808.022261 472 808 C471.96946858 803.28417697 472.00301563 799.00541844 472.953125 794.3671875 C473.15776367 793.33166748 473.36240234 792.29614746 473.57324219 791.22924805 C473.79657227 790.12234619 474.01990234 789.01544434 474.25 787.875 C476.06380793 778.50302659 477.58064065 769.16051904 478.75 759.6875 C480.57070101 745.18474245 482.95175228 730.78778135 485.375 716.375 C485.57163239 715.20478302 485.76826477 714.03456604 485.97085571 712.82888794 C487.13040197 705.93639651 488.29617297 699.04497128 489.46502686 692.15405273 C490.66918438 685.0546752 491.8697034 677.95469972 493.06207275 670.85333252 C493.42107202 668.72250755 493.78425489 666.59243007 494.14794922 664.46240234 C495.47189564 656.59994154 496.56715657 648.7505662 497.45727539 640.82958984 C497.85432497 638.02791657 498.33551509 635.39964679 498.97338867 632.65551758 C500.09750337 627.77824909 500.76104899 622.88770009 501.390625 617.92578125 C502.96598761 605.977551 504.82986483 594.08450976 506.75 582.1875 C506.92196899 581.1163797 507.09393799 580.0452594 507.27111816 578.94168091 C509.95559972 562.2232646 512.75603954 545.52664131 515.62695312 528.83935547 C517.20448604 519.66952151 518.76915659 510.49858677 520.25 501.3125 C520.38889648 500.46099365 520.52779297 499.6094873 520.67089844 498.73217773 C521.52767091 493.35372176 522.27717848 487.96464737 522.99720764 482.56654358 C524.70439963 469.79517568 526.70875 457.08639437 528.8125 444.375 C529.16593595 442.22448701 529.51912224 440.07393296 529.87207031 437.92333984 C531.46975678 428.20132337 533.08260442 418.48189946 534.71484375 408.765625 C534.84575409 407.98621048 534.97666443 407.20679596 535.11154175 406.40376282 C535.23941071 405.64250595 535.36727966 404.88124908 535.49902344 404.09692383 C535.74936493 402.60628523 535.99969069 401.115644 536.25 399.625 C536.43423523 398.52845596 536.43423523 398.52845596 536.62219238 397.40975952 C538.38082215 386.92538433 540.01147128 376.42726164 541.53881836 365.90649414 C542.90771948 356.50782789 544.40585034 347.13288972 545.93164062 337.75854492 C546.14718045 336.43408936 546.36267415 335.10962629 546.578125 333.78515625 C546.68866211 333.10573471 546.79919922 332.42631317 546.91308594 331.7263031 C547.86855671 325.83943404 548.80331671 319.94936796 549.734375 314.05859375 C555.14007206 279.8703171 555.14007206 279.8703171 557.65039062 265.69946289 C560.41771644 250.05239179 562.90974417 234.36270762 564.96118164 218.60522461 C565.82192059 212.0429714 566.88019522 205.52282774 568 199 C567.58226318 200.20309814 567.16452637 201.40619629 566.73413086 202.64575195 C565.14981969 207.20708472 563.56314207 211.76759159 561.97583008 216.32788086 C561.29551965 218.28339343 560.61580988 220.23911508 559.93676758 222.19506836 C556.163784 233.06159618 552.34955603 243.90737442 548.32688904 254.68440247 C545.70131632 261.73087289 543.33471231 268.85194244 541 276 C538.96434877 282.1890888 536.84027403 288.3422911 534.65625 294.48046875 C533.98901072 296.36075742 533.32177454 298.24104718 532.65454102 300.12133789 C532.30384552 301.1086087 531.95315002 302.09587952 531.59182739 303.11306763 C529.70317831 308.43123781 527.81844202 313.75079429 525.93359375 319.0703125 C525.33961037 320.74659477 525.33961037 320.74659477 524.73362732 322.45674133 C520.42337179 334.62339003 516.12152393 346.79299264 511.83056641 358.96646118 C510.98839394 361.35473112 510.14546349 363.74273392 509.30175781 366.13046265 C508.1171452 369.48341072 506.93519558 372.83728614 505.75390625 376.19140625 C505.40256119 377.18417572 505.05121613 378.17694519 504.68922424 379.19979858 C503.32568883 383.07891434 501.97895365 386.94135695 500.87451172 390.90307617 C500.14109266 393.50034605 499.30555946 395.88115898 498.25390625 398.359375 C495.5168452 405.06926445 493.17768839 411.91652479 490.80197144 418.76010132 C489.26867207 423.17639539 487.72739195 427.58990756 486.1875 432.00390625 C485.85624619 432.95409134 485.52499237 433.90427643 485.18370056 434.883255 C480.95995806 446.99344983 476.69735667 459.08997319 472.4375 471.1875 C470.80978792 475.81115993 469.18223635 480.43487636 467.5546875 485.05859375 C467.16199677 486.17410614 466.76930603 487.28961853 466.36471558 488.43893433 C464.01437677 495.11606828 461.66595099 501.79386967 459.3203125 508.47265625 C459.04161316 509.26616989 458.76291382 510.05968353 458.47576904 510.87724304 C457.15653367 514.63372935 455.83777411 518.39038208 454.51953125 522.1472168 C451.91898445 529.55582784 449.30706515 536.96023383 446.6796875 544.359375 C445.86097754 546.66797532 445.0424097 548.97662599 444.22384644 551.28527832 C443.46969095 553.40933512 442.71259767 555.53232743 441.95532227 557.65527344 C439.42026835 564.78950214 437.05531613 571.95094487 434.86499023 579.19873047 C433.80513262 582.63107772 432.60053641 585.95896376 431.3125 589.3125 C431.06395264 589.96742432 430.81540527 590.62234863 430.55932617 591.29711914 C429.39076426 594.37627096 428.21144947 597.45120796 427.02734375 600.52441406 C422.38658897 612.58949422 418.03657736 624.72005418 414 637 C409.51706299 650.62923005 404.80787161 664.169597 400 677.6875 C399.64434967 678.68759094 399.28869934 679.68768188 398.92227173 680.71807861 C397.44299242 684.87697384 395.96344351 689.03577289 394.48323059 693.19433594 C390.01913955 705.74322196 385.60346711 718.30911623 381.1875 730.875 C379.59912267 735.39458903 378.01062927 739.91413721 376.421875 744.43359375 C376.04292587 745.51162262 375.66397675 746.58965149 375.27354431 747.7003479 C372.92533019 754.37751057 370.5683321 761.05149525 368.203125 767.72265625 C367.91798538 768.52755493 367.63284576 769.33245361 367.33906555 770.16174316 C366.05364575 773.79019859 364.76649581 777.41801466 363.4753418 781.04443359 C363.03875244 782.27629395 362.60216309 783.5081543 362.15234375 784.77734375 C361.78101318 785.82140381 361.40968262 786.86546387 361.02709961 787.94116211 C360.32623134 790.02844011 359.69139458 792.13876508 359.11547852 794.26391602 C357.71767356 798.94559894 355.81457751 803.46355622 354 808 C315.06 808 276.12 808 236 808 C236.76661445 801.10046996 237.6752272 794.33626097 238.8125 787.5 C238.98845703 786.44047119 239.16441406 785.38094238 239.34570312 784.28930664 C240.36876161 778.28156861 241.52943513 772.35104808 243 766.4375 C246.07505601 754.06058753 247.95308106 741.44263758 250 728.86328125 C251.62656052 718.90059809 253.34803062 709.00106229 255.50219727 699.13818359 C256.81222517 693.07571869 257.90256943 686.98998189 258.9375 680.875 C260.27640273 672.96731144 261.75988376 665.10577249 263.375 657.25 C265.46790301 647.03338219 267.26924226 636.78248569 269 626.5 C271.22884867 613.27510791 273.67472206 600.1171325 276.38671875 586.98144531 C277.46457174 581.74150074 278.51249017 576.49558104 279.5625 571.25 C279.74820557 570.32944824 279.93391113 569.40889648 280.12524414 568.46044922 C283.41801469 552.0604924 286.45966924 535.6128571 289.43518066 519.15283203 C290.30200933 514.35925898 291.17269037 509.56638523 292.04296875 504.7734375 C292.21309479 503.83618835 292.38322083 502.89893921 292.5585022 501.93328857 C295.47201409 485.88672515 298.38561777 469.84257255 301.62207031 453.85742188 C302.88441776 447.62024283 304.06155833 441.370921 305.21875 435.11328125 C305.77463287 432.14640119 306.36347962 429.18766379 306.96875 426.23046875 C307.13955078 425.39322266 307.31035156 424.55597656 307.48632812 423.69335938 C307.80944801 422.11707493 308.13580192 420.5414465 308.46679688 418.96679688 C309.61018549 413.38269565 310.51548132 407.77647075 311.3828125 402.14453125 C312.9707149 391.88099517 314.89907399 381.69479046 316.875 371.5 C317.58730017 367.80104277 318.29754677 364.10169209 319.0078125 360.40234375 C319.18103027 359.50172714 319.35424805 358.60111053 319.53271484 357.67320251 C320.97879041 350.14350118 322.37293632 342.60514122 323.75 335.0625 C325.07188408 327.82495416 326.48413634 320.62328929 328.0625 313.4375 C329.97729454 304.70908361 331.32053776 295.90899748 332.60571289 287.06811523 C333.36932799 281.85843853 334.22805852 276.73521793 335.42431641 271.60839844 C336.82662597 265.25459211 337.93726698 258.83445208 339.125 252.4375 C339.40480655 250.93682259 339.68475333 249.43617133 339.96484375 247.93554688 C340.64484626 244.29066455 341.32295023 240.64543211 342 237 C341.6189209 237.96784424 341.2378418 238.93568848 340.84521484 239.93286133 C339.36038436 243.70315558 337.8744254 247.47300428 336.38809204 251.2427063 C335.71289091 252.95541111 335.03790298 254.66819999 334.36312866 256.381073 C330.61757822 265.88730618 326.85569829 275.38614584 323.02734375 284.859375 C322.55448944 286.03175972 322.55448944 286.03175972 322.07208252 287.22782898 C320.57748828 290.93348694 319.07826574 294.63711543 317.56982422 298.3371582 C314.65447631 305.53668181 312.11238797 312.74100668 309.91015625 320.19628906 C308.92109136 323.24307586 307.6362866 325.89077101 306.13037109 328.70458984 C303.61608774 333.81026849 301.72086244 339.22121397 299.68606567 344.53277588 C298.158714 348.51867019 296.61780999 352.49932593 295.078125 356.48046875 C294.75260147 357.32299194 294.42707794 358.16551514 294.09169006 359.03356934 C289.78959029 370.15319537 285.38915486 381.2340388 280.99502563 392.3175354 C272.43374425 413.86941653 272.43374425 413.86941653 264.1875 435.54296875 C259.97205625 446.86922667 255.46165191 458.08164384 251 469.3125 C250.06297846 471.67468713 249.12604897 474.03691078 248.18920898 476.39916992 C244.04877039 486.83465417 239.89994801 497.26670779 235.72265625 507.6875 C235.40348236 508.48391403 235.08430847 509.28032806 234.75546265 510.10087585 C233.31987434 513.68153702 231.88194036 517.26122387 230.43945312 520.83911133 C227.57795695 527.9515225 224.8203837 535.09510895 222.14651489 542.27964783 C220.00631267 548.01870487 217.7419235 553.70041257 215.4375 559.375 C211.44875776 569.27072288 207.60341083 579.21495714 203.8125 589.1875 C199.08534932 601.6176244 194.26832038 614.00933799 189.375 626.375 C189.05907898 627.17346344 188.74315796 627.97192688 188.41766357 628.79458618 C186.8651193 632.71758179 185.31147755 636.64014161 183.75732422 640.5625 C173.04750308 667.54197174 173.04750308 667.54197174 162.9375 694.75 C161.6224984 698.38397582 160.20895698 701.95721271 158.7109375 705.51953125 C152.29113433 720.85240179 145.98148363 736.22790031 140.13183594 751.78808594 C136.71045385 760.85077814 133.09326003 769.83426316 129.47485352 778.81958008 C125.57300208 788.51925764 121.79032663 798.25344581 118 808 C79.06 808 40.12 808 0 808 C2.32737973 794.03572163 2.32737973 794.03572163 3.6875 787.6875 C3.85193604 786.91100098 4.01637207 786.13450195 4.18579102 785.33447266 C6.00729378 776.81791368 7.96457103 768.33176652 9.90151978 759.84091187 C11.85791266 751.25114645 13.70353426 742.65045348 15.375 734 C17.44659465 723.33769003 19.85031476 712.76476138 22.3125 702.1875 C22.50431854 701.36317474 22.69613708 700.53884949 22.89376831 699.68954468 C23.08600983 698.8634671 23.27825134 698.03738953 23.47631836 697.1862793 C23.86708056 695.50701169 24.25778675 693.82773104 24.6484375 692.1484375 C24.8429097 691.3124855 25.0373819 690.47653351 25.23774719 689.61524963 C27.16908302 681.29846064 29.0573028 672.97227324 30.91757202 664.63931274 C31.25863389 663.11297231 31.60089843 661.58690001 31.94448853 660.06112671 C33.46447801 653.30734539 34.95422843 646.57191035 36.03515625 639.73046875 C36.81202936 634.82828805 37.93507213 630.09016027 39.17871094 625.28759766 C40.10593043 621.57596337 40.92836435 617.84641657 41.7265625 614.10546875 C41.87730728 613.39957611 42.02805206 612.69368347 42.18336487 611.96640015 C42.49987921 610.48075174 42.81591164 608.9950006 43.13150024 607.50915527 C45.47432188 596.48741892 47.8638028 585.47879808 50.41796875 574.50390625 C50.61837769 573.64238449 50.81878662 572.78086273 51.02526855 571.89323425 C51.98987627 567.7553629 52.96166886 563.61930539 53.94189453 559.48510742 C55.86422523 551.31805423 57.54633071 543.16729781 58.9360199 534.89257812 C59.75994581 530.08589072 60.88991882 525.47005332 62.24511719 520.79101562 C63.66407701 515.54471914 64.64604384 510.19796453 65.70343018 504.86935425 C68.42938472 491.1651871 71.43831311 477.54139983 74.625 463.9375 C77.07203184 453.48487148 79.47499959 443.04452406 81.5 432.5 C83.55483851 421.81319661 85.97207643 411.22289366 88.4375 400.625 C88.63371948 399.78112732 88.82993896 398.93725464 89.03210449 398.06781006 C89.81114352 394.71845637 90.59054723 391.36918784 91.37051392 388.02005005 C94.92444211 372.74597787 98.3545522 357.45180634 101.375 342.0625 C103.43043517 331.58997289 105.68380667 321.16729608 108 310.75 C108.17197906 309.97461884 108.34395813 309.19923767 108.52114868 308.40036011 C110.16564257 300.99688687 111.82755288 293.60181476 113.66015625 286.2421875 C113.90056641 285.27313477 114.14097656 284.30408203 114.38867188 283.30566406 C114.82027325 281.58864119 115.26205782 279.87412647 115.71679688 278.16308594 C117.36474886 271.64206631 116.67518964 267.00576463 113.91015625 260.94921875 C113.46438232 259.96091064 113.0186084 258.97260254 112.55932617 257.9543457 C112.06537354 256.87628662 111.5714209 255.79822754 111.0625 254.6875 C109.97532071 252.27919574 108.88947518 249.87031736 107.8046875 247.4609375 C107.51025253 246.80887833 107.21581757 246.15681915 106.91246033 245.48500061 C103.16999031 237.18606858 99.52224906 228.84544915 95.86837769 220.50723267 C94.71582202 217.87713011 93.56229059 215.24745779 92.40844727 212.61791992 C89.02040033 204.89568505 85.6366533 197.17157973 82.2578125 189.4453125 C79.57639699 183.31386666 76.88530804 177.18674921 74.1875 171.0625 C73.24731222 168.92581804 72.30721524 166.78909612 71.3671875 164.65234375 C69.5362681 160.49070123 67.70472934 156.32933376 65.87207031 152.16845703 C63.91222563 147.71854103 61.95408044 143.26787969 59.99673462 138.81686401 C59.22121074 137.05403359 58.44516839 135.29143114 57.66854858 133.52908325 C53.64637573 124.40089887 49.67003486 115.25873353 45.82421875 106.0546875 C43.21676518 99.81834435 40.49760081 93.65649569 37.63037109 87.53417969 C33.90243152 79.45306958 30.38190116 71.27704239 26.8125 63.125 C25.99815451 61.26818196 25.18370206 59.41141082 24.36914062 57.5546875 C23.58584176 55.76827115 22.80263532 53.98181426 22.01953125 52.1953125 C21.66010941 51.37539825 21.30068756 50.55548401 20.93037415 49.71072388 C19.41169691 46.24198133 17.89793057 42.77153398 16.40869141 39.29003906 C15.10292595 36.2403865 13.77789733 33.20035266 12.44140625 30.1640625 C11.97283203 29.09929688 11.50425781 28.03453125 11.02148438 26.9375 C10.54001953 25.844375 10.05855469 24.75125 9.5625 23.625 C8.84610352 21.99691406 8.84610352 21.99691406 8.11523438 20.3359375 C7.64537109 19.26859375 7.17550781 18.20125 6.69140625 17.1015625 C6.00908936 15.54937012 6.00908936 15.54937012 5.31298828 13.96582031 C4.47158969 12.06524202 3.62175303 10.16836358 2.76123047 8.27636719 C2.39529785 7.47102539 2.02936523 6.66568359 1.65234375 5.8359375 C1.33128662 5.13774902 1.01022949 4.43956055 0.67944336 3.72021484 C0 2 0 2 0 0 Z " fill="#000000" transform="translate(416,677)"/>
<path d="M0 0 C8.05518252 -0.20561277 16.02693927 0.77629479 24 1.82226562 C25.45715728 2.01249179 26.91544151 2.1944059 28.375 2.36523438 C48.06210249 4.72079236 66.39797313 12.80805661 83.27587891 22.93774414 C85.42686107 24.20209177 87.61293184 25.38545978 89.80859375 26.5703125 C94.14105234 28.96758458 98.10013144 31.69004599 102.0390625 34.68359375 C103.06821777 35.46404053 103.06821777 35.46404053 104.11816406 36.26025391 C115.40844258 44.94890502 129.80562725 56.15422326 136.2890625 69.12109375 C138.73386329 68.93280603 138.73386329 68.93280603 141.2890625 68.12109375 C141.9830906 66.80179575 142.64540117 65.46568377 143.2890625 64.12109375 C145.72366435 61.15322645 148.39962275 58.40716904 151.0390625 55.62109375 C151.74289062 54.86183594 152.44671875 54.10257813 153.171875 53.3203125 C156.95905964 49.30082843 160.56661188 46.04545648 165.2890625 43.12109375 C166.99304737 41.72429876 168.68050489 40.30711853 170.3515625 38.87109375 C193.91521772 19.56023727 228.46875605 6.03573599 258.8828125 3.3359375 C260.6337657 3.17960239 262.38366577 3.01133271 264.1328125 2.8359375 C279.16859772 1.33615589 293.80667795 0.94967666 308.88525391 1.96533203 C310.80320757 2.08961138 312.72380563 2.17287144 314.64453125 2.2421875 C353.16984337 4.07672617 390.85924265 23.84527926 418.2890625 50.12109375 C419.70058594 51.42046875 419.70058594 51.42046875 421.140625 52.74609375 C431.99829918 62.95365011 441.6225871 75.75890401 448.2890625 89.12109375 C448.2890625 89.78109375 448.2890625 90.44109375 448.2890625 91.12109375 C448.9490625 91.12109375 449.6090625 91.12109375 450.2890625 91.12109375 C472.53045616 132.93242876 476.47067411 179.51186675 476.40512812 225.97888005 C476.40076265 229.86886973 476.40227432 233.75885804 476.4030304 237.64884949 C476.40355181 244.36950647 476.40044526 251.09015366 476.39479256 257.81080818 C476.38662532 267.52744734 476.38405701 277.24408183 476.38280457 286.96072405 C476.38062221 302.72975946 476.37398436 318.49878967 476.36450195 334.26782227 C476.35530665 349.57543919 476.3482362 364.88305469 476.34399414 380.19067383 C476.34373142 381.13607212 476.34346869 382.08147042 476.34319801 383.05551714 C476.34189286 387.79885101 476.34062918 392.54218488 476.33938611 397.28551877 C476.32903894 436.5640474 476.31144296 475.84257023 476.2890625 515.12109375 C460.79066394 515.14442321 445.29226668 515.16207316 429.79385471 515.17290592 C422.59815955 515.17806878 415.40247528 515.18511128 408.20678711 515.1965332 C401.93721556 515.20648035 395.66765189 515.21294725 389.39807266 515.21518224 C386.07640629 515.2164893 382.75476784 515.22009372 379.43310738 515.22682381 C375.73086303 515.23403003 372.02866619 515.23508487 368.32641602 515.23461914 C367.21727341 515.23821442 366.1081308 515.24180969 364.96537781 515.24551392 C363.96271881 515.24413925 362.96005981 515.24276459 361.92701721 515.24134827 C361.05039208 515.24227006 360.17376696 515.24319185 359.27057743 515.24414158 C357.2890625 515.12109375 357.2890625 515.12109375 356.2890625 514.12109375 C356.18858658 512.43021234 356.15875006 510.73510628 356.15598392 509.04124451 C356.15174288 507.93360056 356.14750183 506.82595661 356.14313227 505.6847477 C356.1435184 504.45258711 356.14390453 503.22042652 356.14430237 501.95092773 C356.1390121 500.00519143 356.1390121 500.00519143 356.13361496 498.02014732 C356.12388045 494.40267863 356.12036053 490.78522572 356.11777198 487.16774583 C356.11388877 483.27252328 356.10425068 479.37731483 356.09521484 475.48210144 C356.08025157 468.72572108 356.06871783 461.96934186 356.05926704 455.21295166 C356.04541102 445.43442923 356.02422481 435.6559328 356.00083851 425.87742901 C355.962885 410.00113721 355.92793104 394.12484068 355.89624023 378.24853516 C355.89433974 377.29745534 355.89243925 376.34637552 355.89048117 375.36647511 C355.86367259 361.88143078 355.83979495 348.39638284 355.81709617 334.91133106 C355.81549887 333.96267677 355.81390156 333.01402248 355.81225586 332.03662109 C355.81066239 331.08912086 355.80906893 330.14162062 355.80742718 329.16540825 C355.78064768 313.35983066 355.74624051 297.55428056 355.70560211 281.74873257 C355.68083756 271.99766828 355.66250498 262.24663357 355.6524465 252.49554282 C355.64504785 245.80864975 355.63050994 239.12179634 355.61038227 232.43492955 C355.59900559 228.57768488 355.59085581 224.72050415 355.59139061 220.8632412 C355.59189874 216.67779589 355.57706307 212.49254263 355.56080627 208.30712891 C355.56342313 207.09281409 355.56603998 205.87849928 355.56873614 204.62738705 C355.5337675 198.86545015 355.24074527 193.58969528 353.71700901 188.0168972 C353.2890625 186.12109375 353.2890625 186.12109375 353.2890625 182.12109375 C352.6290625 182.12109375 351.9690625 182.12109375 351.2890625 182.12109375 C351.1240625 180.92484375 350.9590625 179.72859375 350.7890625 178.49609375 C349.7724158 173.85488057 347.7687922 169.95743227 345.4140625 165.87109375 C345.07439453 165.28118652 344.73472656 164.6912793 344.38476562 164.08349609 C342.75725552 161.34075407 341.06371463 158.8481811 339.03125 156.38671875 C337.2890625 154.12109375 337.2890625 154.12109375 337.2890625 151.12109375 C336.69996094 150.86070312 336.11085938 150.6003125 335.50390625 150.33203125 C333.15330306 149.04686901 331.68579194 147.68622558 329.8515625 145.74609375 C324.74729114 140.43461802 324.74729114 140.43461802 318.2890625 137.12109375 C317.7528125 136.52296875 317.2165625 135.92484375 316.6640625 135.30859375 C310.21997483 129.37324984 297.91771088 125.12109375 289.2890625 125.12109375 C289.2890625 124.46109375 289.2890625 123.80109375 289.2890625 123.12109375 C288.26167969 123.06050781 287.23429687 122.99992188 286.17578125 122.9375 C285.51094727 122.89729736 284.84611328 122.85709473 284.16113281 122.81567383 C282.68792545 122.72660307 281.21461407 122.6392383 279.74121094 122.5534668 C275.80979282 122.31536803 271.94399726 121.95841698 268.0390625 121.43359375 C257.21813733 120.39911987 244.72984125 121.71422291 234.484375 125.35546875 C232.05030713 126.20436075 229.61456617 126.73712353 227.1015625 127.30859375 C215.05202947 130.60258791 205.02189143 137.32017258 196.2890625 146.12109375 C195.4021875 146.94609375 194.5153125 147.77109375 193.6015625 148.62109375 C176.8782875 166.70030997 170.97112143 190.27426261 171.0105896 214.48480225 C171.001901 216.42353505 171.001901 216.42353505 170.99303687 218.40143418 C170.97737338 221.95443245 170.9738138 225.50735136 170.97238827 229.06037998 C170.96867011 232.90480826 170.95350283 236.74919421 170.93977356 240.59359741 C170.91757229 247.24285176 170.90251627 253.8920909 170.89240646 260.54137421 C170.87777918 270.15494454 170.85223116 279.76846185 170.82407518 289.38200095 C170.77868053 304.98186677 170.74203553 320.58174024 170.7109375 336.18164062 C170.68072188 351.32944076 170.64635782 366.47722218 170.60644531 381.625 C170.60398376 382.55976393 170.60152222 383.49452786 170.59898607 384.45761797 C170.58661089 389.14736891 170.57415447 393.83711963 170.56165767 398.52687025 C170.45819965 437.39158926 170.3705803 476.25632132 170.2890625 515.12109375 C131.0190625 515.12109375 91.7490625 515.12109375 51.2890625 515.12109375 C51.27447998 505.66259766 51.25989746 496.20410156 51.24487305 486.45898438 C51.19606106 456.15619949 51.13263685 425.85346083 51.06007622 395.55072388 C51.04880877 390.83964301 51.0376702 386.12856184 51.02661133 381.41748047 C51.0233058 380.01071044 51.0233058 380.01071044 51.0199335 378.57552081 C50.98461184 363.41263412 50.95971878 348.24974748 50.93871548 333.08683497 C50.91691248 317.51515403 50.88381952 301.94352624 50.84036094 286.37189054 C50.81392158 276.77214762 50.79616947 267.17247085 50.78971646 257.57269335 C50.78443888 250.9796302 50.76814293 244.38665011 50.74339684 237.79363155 C50.72946257 233.99625931 50.7201805 230.19903549 50.72405434 226.40163612 C50.80746997 201.22623507 50.80746997 201.22623507 44.91015625 176.890625 C44.2890625 175.12109375 44.2890625 175.12109375 43.7265625 172.12109375 C43.5821875 171.46109375 43.4378125 170.80109375 43.2890625 170.12109375 C42.6290625 169.79109375 41.9690625 169.46109375 41.2890625 169.12109375 C41.6190625 168.46109375 41.9490625 167.80109375 42.2890625 167.12109375 C41.6290625 167.12109375 40.9690625 167.12109375 40.2890625 167.12109375 C39.825 165.75984375 39.825 165.75984375 39.3515625 164.37109375 C36.52546907 157.72226526 31.28533223 150.11860691 25.2890625 146.12109375 C25.2890625 145.46109375 25.2890625 144.80109375 25.2890625 144.12109375 C24.6290625 144.12109375 23.9690625 144.12109375 23.2890625 144.12109375 C23.2890625 143.46109375 23.2890625 142.80109375 23.2890625 142.12109375 C22.5259375 141.83234375 21.7628125 141.54359375 20.9765625 141.24609375 C18.2890625 140.12109375 18.2890625 140.12109375 15.2890625 138.12109375 C15.2890625 137.46109375 15.2890625 136.80109375 15.2890625 136.12109375 C14.2990625 136.12109375 13.3090625 136.12109375 12.2890625 136.12109375 C12.2890625 135.46109375 12.2890625 134.80109375 12.2890625 134.12109375 C11.2784375 133.85296875 10.2678125 133.58484375 9.2265625 133.30859375 C5.41578808 132.22757815 1.90031042 130.74247037 -1.7109375 129.12109375 C-1.7109375 128.46109375 -1.7109375 127.80109375 -1.7109375 127.12109375 C-2.59910156 126.98574219 -3.48726562 126.85039063 -4.40234375 126.7109375 C-7.2557577 126.20224151 -9.876931 125.50778597 -12.6484375 124.68359375 C-34.40299856 119.23821415 -56.44253288 120.546747 -77.7109375 127.12109375 C-78.48953125 127.31058594 -79.268125 127.50007812 -80.0703125 127.6953125 C-98.40353756 132.55430636 -112.87784217 147.72584349 -122.7109375 163.12109375 C-123.21496094 163.84167969 -123.71898437 164.56226563 -124.23828125 165.3046875 C-132.89505637 177.96094535 -134.0149575 193.79833976 -133.98268127 208.66789246 C-133.99031153 210.63619356 -133.99031153 210.63619356 -133.99809593 212.64425832 C-134.01183911 216.25233835 -134.01345503 219.86033357 -134.01295269 223.46843588 C-134.01460041 227.37218468 -134.02774624 231.27589734 -134.03948975 235.17962646 C-134.05829369 241.93201242 -134.07004556 248.68438046 -134.07702827 255.43678856 C-134.0872227 265.2005553 -134.1093005 274.96426781 -134.13441419 284.72800628 C-134.17494206 300.57297261 -134.20743563 316.41794413 -134.23413086 332.26293945 C-134.23572816 333.20989724 -134.23732546 334.15685502 -134.23897117 335.13250849 C-134.24057007 336.080704 -134.24216897 337.0288995 -134.24381632 338.0058282 C-134.26654549 351.47499983 -134.29117823 364.94416618 -134.31811523 378.41333008 C-134.32001138 379.36246358 -134.32190753 380.31159709 -134.32386113 381.28949221 C-134.3555914 397.09084835 -134.39133078 412.89219393 -134.42915672 428.69353658 C-134.45222888 438.43997579 -134.47117134 448.18640777 -134.48482346 457.93286482 C-134.49432165 464.59855572 -134.50714595 471.26423448 -134.52263231 477.92991414 C-134.53143082 481.78015493 -134.53851363 485.63038063 -134.54127312 489.48063087 C-134.54427491 493.64414856 -134.5548387 497.80761182 -134.56617737 501.97111511 C-134.56579124 503.20122934 -134.5654051 504.43134357 -134.56500727 505.69873399 C-134.57136884 507.35742476 -134.57136884 507.35742476 -134.57785892 509.04962444 C-134.57943282 510.01178613 -134.58100672 510.97394782 -134.58262831 511.96526593 C-134.7109375 514.12109375 -134.7109375 514.12109375 -135.7109375 515.12109375 C-176.9609375 515.12109375 -218.2109375 515.12109375 -260.7109375 515.12109375 C-260.7109375 350.45109375 -260.7109375 185.78109375 -260.7109375 16.12109375 C-219.1309375 16.12109375 -177.5509375 16.12109375 -134.7109375 16.12109375 C-134.3809375 31.30109375 -134.0509375 46.48109375 -133.7109375 62.12109375 C-129.2559375 57.17109375 -129.2559375 57.17109375 -124.7109375 52.12109375 C-91.39595947 17.43432251 -47.17877754 2.10740937 0 0 Z " fill="#000000" transform="translate(1944.7109375,865.87890625)"/>
<path d="M0 0 C62.03376259 -2.09191267 127.22480707 17.41492152 174.87646484 58.08251953 C175.68728516 58.89462891 176.49810547 59.70673828 177.33349609 60.54345703 C179.58387914 62.79038327 181.9161011 64.8177533 184.38037109 66.82421875 C190.6198795 71.9079146 196.11092446 77.32942355 201.43896484 83.35595703 C203.03745672 85.14401365 204.68697545 86.88798808 206.38818359 88.57861328 C208.98907895 91.19584079 211.34525169 93.92102826 213.68896484 96.77001953 C214.47916016 97.72263672 215.26935547 98.67525391 216.08349609 99.65673828 C217.87646484 102.08251953 217.87646484 102.08251953 217.87646484 104.08251953 C218.53646484 104.08251953 219.19646484 104.08251953 219.87646484 104.08251953 C220.37146484 105.01064453 220.86646484 105.93876953 221.37646484 106.89501953 C223.22394054 110.14268734 225.32502861 113.09280228 227.56396484 116.08251953 C265.48367643 168.01300691 278.7916278 237.93168298 269.39892578 300.82958984 C265.43812696 325.4901896 265.43812696 325.4901896 261.87646484 337.08251953 C261.67239014 337.76934814 261.46831543 338.45617676 261.25805664 339.16381836 C254.58352497 361.35764529 244.54299147 382.10488322 232.87646484 402.08251953 C232.21646484 402.08251953 231.55646484 402.08251953 230.87646484 402.08251953 C230.65861328 402.74251953 230.44076172 403.40251953 230.21630859 404.08251953 C228.41911874 408.10654812 225.99432619 411.50469262 223.43896484 415.08251953 C222.90400391 415.83436523 222.36904297 416.58621094 221.81787109 417.36083984 C216.8519663 424.25630316 211.53243198 430.74656756 205.87646484 437.08251953 C205.40772949 437.61296875 204.93899414 438.14341797 204.45605469 438.68994141 C186.40998177 459.03833902 163.85160864 479.71055204 138.87646484 491.08251953 C138.21646484 491.08251953 137.55646484 491.08251953 136.87646484 491.08251953 C136.54646484 491.74251953 136.21646484 492.40251953 135.87646484 493.08251953 C133.37372048 494.44443696 130.87749306 495.72058843 128.31396484 496.95751953 C127.62238281 497.29654297 126.93080078 497.63556641 126.21826172 497.98486328 C124.81142661 498.67451404 123.40311613 499.36116261 121.9934082 500.04492188 C119.91075547 501.06571234 117.84737748 502.11967588 115.78271484 503.17626953 C107.28995514 507.42838421 98.19267558 510.31565198 88.87646484 512.08251953 C88.87646484 512.74251953 88.87646484 513.40251953 88.87646484 514.08251953 C88.26988037 514.19861572 87.6632959 514.31471191 87.03833008 514.43432617 C81.82003708 515.45271313 76.65638722 516.59667086 71.49829102 517.8840332 C45.1419191 524.43352751 17.05732097 528.02985359 -10.12353516 526.08251953 C-10.45353516 525.75251953 -10.78353516 525.42251953 -11.12353516 525.08251953 C-13.39120687 524.89379652 -15.66332293 524.75784922 -17.93603516 524.64501953 C-27.28919878 524.10739146 -36.11163665 522.68138653 -45.12353516 520.08251953 C-48.36757167 519.2458589 -51.62073557 518.44683524 -54.87353516 517.64501953 C-75.27492681 512.56880868 -75.27492681 512.56880868 -84.12353516 509.08251953 C-85.10064453 508.72287109 -86.07775391 508.36322266 -87.08447266 507.99267578 C-97.2480606 504.21452492 -106.76590774 499.51298965 -116.18603516 494.16064453 C-117.44873525 493.45801303 -118.72737737 492.78308337 -120.02197266 492.14111328 C-127.73304759 488.25691011 -134.99533134 483.64089464 -141.96728516 478.56298828 C-144.06175683 477.05027093 -144.06175683 477.05027093 -146.26806641 476.02001953 C-149.06933337 474.60464254 -150.90751133 472.29854335 -153.12353516 470.08251953 C-156.86247706 467.02868589 -160.71644266 464.12119349 -164.60009766 461.25439453 C-168.7923294 458.11363459 -171.51803314 455.67316594 -174.12353516 451.08251953 C-176.11043247 449.72973838 -178.11098733 448.39683648 -180.12353516 447.08251953 C-181.50221796 445.45316712 -182.83627609 443.78502346 -184.12353516 442.08251953 C-184.88923828 441.32068359 -185.65494141 440.55884766 -186.44384766 439.77392578 C-194.19414198 431.98973805 -200.86390906 423.08512785 -207.12353516 414.08251953 C-207.54731445 413.47408203 -207.97109375 412.86564453 -208.40771484 412.23876953 C-209.78164967 410.25605471 -211.14215053 408.26477466 -212.49853516 406.27001953 C-212.92779297 405.64764404 -213.35705078 405.02526855 -213.79931641 404.3840332 C-216.25431631 400.72751478 -217.92763949 397.37328806 -219.12353516 393.08251953 C-219.78353516 393.08251953 -220.44353516 393.08251953 -221.12353516 393.08251953 C-221.12353516 391.76251953 -221.12353516 390.44251953 -221.12353516 389.08251953 C-221.78353516 388.75251953 -222.44353516 388.42251953 -223.12353516 388.08251953 C-224.47059143 385.83147848 -225.72246696 383.59175146 -226.93603516 381.27001953 C-227.29205811 380.59438965 -227.64808105 379.91875977 -228.01489258 379.22265625 C-239.12353516 357.84109947 -239.12353516 357.84109947 -239.12353516 349.08251953 C-239.78353516 349.08251953 -240.44353516 349.08251953 -241.12353516 349.08251953 C-241.12353516 347.10251953 -241.12353516 345.12251953 -241.12353516 343.08251953 C-241.78353516 342.75251953 -242.44353516 342.42251953 -243.12353516 342.08251953 C-243.82275552 339.90241762 -244.40318867 337.68413762 -244.93603516 335.45751953 C-245.10345215 334.75820312 -245.27086914 334.05888672 -245.44335938 333.33837891 C-246.01506036 330.92232988 -246.57012642 328.50282163 -247.12353516 326.08251953 C-247.33445801 325.17405273 -247.54538086 324.26558594 -247.76269531 323.32958984 C-251.48306301 307.22355523 -254.02545609 291.51466462 -254.87744141 274.99658203 C-255.0026294 273.00549686 -255.1343953 271.01007823 -255.43017578 269.03710938 C-256.69584627 260.13330924 -255.45731493 251.33878699 -254.49853516 242.45751953 C-254.40706207 241.59047394 -254.31558899 240.72342834 -254.22134399 239.83010864 C-251.95690907 218.57920129 -247.72181661 198.65962186 -240.88427734 178.40039062 C-239.88724278 175.36257094 -239.04223663 172.28757174 -238.18603516 169.20751953 C-235.78700997 161.38019158 -231.94305405 154.29058662 -228.12353516 147.08251953 C-227.31881962 145.55388846 -226.51413261 144.02524236 -225.70947266 142.49658203 C-224.18232571 139.60161586 -222.64635692 136.71159485 -221.10400391 133.82470703 C-219.38842265 130.60418663 -217.73916005 127.35454219 -216.12353516 124.08251953 C-215.46353516 124.08251953 -214.80353516 124.08251953 -214.12353516 124.08251953 C-214.12353516 123.09251953 -214.12353516 122.10251953 -214.12353516 121.08251953 C-213.46353516 121.08251953 -212.80353516 121.08251953 -212.12353516 121.08251953 C-212.01952393 120.51065918 -211.9155127 119.93879883 -211.80834961 119.34960938 C-211.00571689 116.69248018 -209.83259996 115.02677936 -208.16650391 112.80908203 C-207.24901367 111.58257935 -207.24901367 111.58257935 -206.31298828 110.33129883 C-205.65234375 109.46545166 -204.99169922 108.59960449 -204.31103516 107.70751953 C-203.63105469 106.81137939 -202.95107422 105.91523926 -202.25048828 104.99194336 C-189.29914727 88.05172283 -175.13188785 72.07154188 -158.12353516 59.08251953 C-157.53491699 58.628125 -156.94629883 58.17373047 -156.33984375 57.70556641 C-122.19903434 31.39140104 -82.39784511 9.80390477 -39.12353516 4.08251953 C-37.23676263 3.8159728 -35.3500476 3.54901896 -33.46337891 3.28173828 C-22.3248742 1.7369424 -11.2419046 0.43685488 0 0 Z M-84.12353516 144.08251953 C-85.4012998 145.05931177 -86.69447876 146.01611501 -87.99853516 146.95751953 C-95.88250549 152.77839483 -102.34976476 160.18777226 -108.12353516 168.08251953 C-108.12353516 168.74251953 -108.12353516 169.40251953 -108.12353516 170.08251953 C-109.60853516 170.57751953 -109.60853516 170.57751953 -111.12353516 171.08251953 C-126.55963896 189.19231337 -134.39151596 215.01917789 -138.12353516 238.08251953 C-138.29699463 238.82518066 -138.4704541 239.5678418 -138.64916992 240.33300781 C-139.23584574 243.73349315 -139.25332782 246.97914595 -139.25634766 250.43017578 C-139.25730438 251.12388779 -139.25826111 251.81759979 -139.25924683 252.53233337 C-139.25992454 253.99217826 -139.25809887 255.45202622 -139.25390625 256.91186523 C-139.24854399 259.14134499 -139.25386925 261.37062405 -139.26025391 263.60009766 C-139.25959321 265.02262414 -139.25831223 266.4451505 -139.25634766 267.86767578 C-139.25521973 269.15552979 -139.2540918 270.44338379 -139.25292969 271.77026367 C-139.14787821 274.45938334 -138.88572109 276.53680429 -138.12353516 279.08251953 C-137.95595703 280.13439453 -137.78837891 281.18626953 -137.61572266 282.27001953 C-134.79505575 299.69388599 -128.50945407 315.61560273 -120.12353516 331.08251953 C-119.57270264 332.14792969 -119.57270264 332.14792969 -119.01074219 333.23486328 C-115.99241563 338.93491831 -112.40291071 343.78715282 -108.24853516 348.70751953 C-107.66201172 349.41908203 -107.07548828 350.13064453 -106.47119141 350.86376953 C-102.58516185 355.527005 -98.46899136 359.84860304 -94.12353516 364.08251953 C-93.27662109 364.94232422 -92.42970703 365.80212891 -91.55712891 366.68798828 C-82.63110802 375.47073435 -73.28878634 382.41050272 -62.12353516 388.08251953 C-61.46869141 388.41880371 -60.81384766 388.75508789 -60.13916016 389.1015625 C-23.63872343 407.63911732 16.57977275 411.37225102 55.72412109 398.82128906 C61.97047198 396.6772943 67.94663633 393.97646708 73.87646484 391.08251953 C74.84543701 390.61241455 74.84543701 390.61241455 75.83398438 390.1328125 C84.91984238 385.66372455 92.99618022 380.48908859 100.87646484 374.08251953 C101.46331055 373.60782227 102.05015625 373.133125 102.65478516 372.64404297 C104.48759512 371.15482455 106.30942859 369.6534323 108.12646484 368.14501953 C108.70025879 367.67217529 109.27405273 367.19933105 109.86523438 366.7121582 C111.24193608 365.54756584 112.56491759 364.32002783 113.87646484 363.08251953 C113.87646484 362.42251953 113.87646484 361.76251953 113.87646484 361.08251953 C114.86646484 360.75251953 115.85646484 360.42251953 116.87646484 360.08251953 C118.53675034 358.5601336 118.53675034 358.5601336 120.06396484 356.70751953 C120.59376953 356.10166016 121.12357422 355.49580078 121.66943359 354.87158203 C123.15610801 353.02772615 123.15610801 353.02772615 122.87646484 350.08251953 C123.86646484 349.75251953 124.85646484 349.42251953 125.87646484 349.08251953 C125.87646484 348.09251953 125.87646484 347.10251953 125.87646484 346.08251953 C126.86646484 345.75251953 127.85646484 345.42251953 128.87646484 345.08251953 C130.55659234 342.86256768 132.04168584 340.69255675 133.50146484 338.33251953 C134.15634888 337.27581055 134.15634888 337.27581055 134.82446289 336.19775391 C154.17489134 303.9295787 161.80160954 264.81613014 153.87646484 227.89501953 C148.8786024 208.84066895 141.56882676 189.11431473 129.87646484 173.08251953 C129.21646484 173.08251953 128.55646484 173.08251953 127.87646484 173.08251953 C127.54646484 171.76251953 127.21646484 170.44251953 126.87646484 169.08251953 C126.21646484 169.08251953 125.55646484 169.08251953 124.87646484 169.08251953 C124.87646484 168.42251953 124.87646484 167.76251953 124.87646484 167.08251953 C124.21646484 167.08251953 123.55646484 167.08251953 122.87646484 167.08251953 C122.54646484 165.76251953 122.21646484 164.44251953 121.87646484 163.08251953 C121.21646484 163.08251953 120.55646484 163.08251953 119.87646484 163.08251953 C119.61478516 162.50501953 119.35310547 161.92751953 119.08349609 161.33251953 C116.07682898 155.7278585 111.09347759 150.6598997 105.87646484 147.08251953 C105.21646484 147.08251953 104.55646484 147.08251953 103.87646484 147.08251953 C103.87646484 146.42251953 103.87646484 145.76251953 103.87646484 145.08251953 C102.24226714 143.74383679 100.54142214 142.48598207 98.81396484 141.27001953 C97.87423828 140.60357422 96.93451172 139.93712891 95.96630859 139.25048828 C94.43683594 138.17734375 94.43683594 138.17734375 92.87646484 137.08251953 C91.82587891 136.28458984 90.77529297 135.48666016 89.69287109 134.66455078 C85.06789401 131.36443362 80.00046666 129.00313524 74.87646484 126.58251953 C73.85625244 126.09912109 72.83604004 125.61572266 71.78491211 125.11767578 C59.51188772 119.39640172 47.21918166 115.51485884 33.87646484 113.08251953 C32.57225586 112.82764771 32.57225586 112.82764771 31.24169922 112.56762695 C23.70157995 111.17771181 16.4112818 110.73243619 8.75146484 110.77001953 C7.57366455 110.77420898 6.39586426 110.77839844 5.18237305 110.78271484 C-24.37516099 111.16214922 -63.1037831 121.92656467 -84.12353516 144.08251953 Z " fill="#000000" transform="translate(3427.12353515625,864.91748046875)"/>
<path d="M0 0 C1.60871498 1.60871498 1.12600829 3.32900899 1.12698364 5.55529785 C1.12980347 6.53968338 1.13262329 7.52406891 1.13552856 8.5382843 C1.13249222 10.17158943 1.13249222 10.17158943 1.12939453 11.83789062 C1.13202301 13.54745186 1.13202301 13.54745186 1.13470459 15.29154968 C1.13912586 19.07979836 1.13618414 22.8680008 1.1328125 26.65625 C1.13348546 29.27559417 1.13445542 31.89493827 1.13571167 34.51428223 C1.1375332 40.01229356 1.13512749 45.51029148 1.13037109 51.00830078 C1.1249285 57.37316987 1.12669117 63.73800692 1.1321975 70.10287523 C1.13727429 76.21484332 1.1367471 82.32679716 1.13381577 88.43876648 C1.13314622 91.04481511 1.13397587 93.65086455 1.13629532 96.25691223 C1.13882022 99.89200033 1.13498353 103.52702596 1.12939453 107.16210938 C1.13141876 108.25097946 1.13344299 109.33984955 1.13552856 110.4617157 C1.13129883 111.93829399 1.13129883 111.93829399 1.12698364 113.44470215 C1.12660662 114.30527977 1.12622959 115.16585739 1.12584114 116.05251312 C1 118 1 118 0 119 C-9.78381165 120.80450705 -19.64768852 121.33220426 -29.56640625 121.78125 C-34.72749415 122.01899685 -39.86233258 122.45736996 -45 123 C-45 123.66 -45 124.32 -45 125 C-45.56847656 125.06058594 -46.13695313 125.12117187 -46.72265625 125.18359375 C-51.49781037 125.70176573 -56.2492305 126.29243859 -61 127 C-61 127.66 -61 128.32 -61 129 C-63.31 129 -65.62 129 -68 129 C-68 129.66 -68 130.32 -68 131 C-68.85464844 131.12117187 -69.70929687 131.24234375 -70.58984375 131.3671875 C-71.69457031 131.53476562 -72.79929687 131.70234375 -73.9375 131.875 C-75.03964844 132.03742188 -76.14179688 132.19984375 -77.27734375 132.3671875 C-78.17582031 132.57601562 -79.07429688 132.78484375 -80 133 C-80.33 133.66 -80.66 134.32 -81 135 C-82.98982813 135.69643985 -84.99294757 136.354876 -87 137 C-90.05304665 138.22121866 -93.02128009 139.60854203 -96 141 C-97.17949219 141.53367187 -98.35898438 142.06734375 -99.57421875 142.6171875 C-110.06428186 147.50513835 -119.01392346 153.7420151 -128 161 C-128.54060059 161.42949951 -129.08120117 161.85899902 -129.63818359 162.30151367 C-142.1285002 172.40438085 -149.99258307 187.36123692 -156 202 C-156.42732422 203.01320313 -156.42732422 203.01320313 -156.86328125 204.046875 C-163.18450419 220.77380339 -162.44405419 239.1910431 -162.43237305 256.74658203 C-162.43976134 259.50783543 -162.45160708 262.26906568 -162.46325684 265.03030396 C-162.48588941 270.93954169 -162.49790115 276.84872108 -162.50238609 282.75799942 C-162.50888614 291.30146574 -162.53189041 299.84482729 -162.55872939 308.38825105 C-162.60185016 322.25442468 -162.63190054 336.12059386 -162.65356445 349.98681641 C-162.67461849 363.44452091 -162.7019319 376.9021891 -162.73754883 390.35986328 C-162.73974765 391.19149302 -162.74194648 392.02312276 -162.74421193 392.8799534 C-162.75528269 397.05262221 -162.76647529 401.22529068 -162.77772844 405.39795899 C-162.87070494 439.93195055 -162.93996094 474.46593157 -163 509 C-202.27 509 -241.54 509 -282 509 C-282.06628369 470.44294835 -282.1216192 431.88595096 -282.15319599 393.32885853 C-282.15694758 388.76456769 -282.16083059 384.20027698 -282.16479492 379.63598633 C-282.16558185 378.72741597 -282.16636878 377.81884561 -282.16717956 376.88274281 C-282.1801913 362.22059795 -282.2038215 347.55848881 -282.23145839 332.89636505 C-282.25963093 317.82301115 -282.27620114 302.7496758 -282.28226548 287.67629665 C-282.28635751 278.39438931 -282.29922491 269.11258297 -282.3237494 259.83070677 C-282.33975334 253.44365303 -282.34436769 247.05665059 -282.34050413 240.66957832 C-282.33860505 236.99865418 -282.34126572 233.32790499 -282.35761642 229.65701294 C-282.45174867 207.40413401 -281.54512693 185.30455782 -275.8125 163.6875 C-275.51279297 162.52653809 -275.21308594 161.36557617 -274.90429688 160.16943359 C-272.11376387 149.73945688 -268.4806867 139.81505262 -264 130 C-263.7009375 129.33838867 -263.401875 128.67677734 -263.09375 127.99511719 C-258.57527787 118.1361741 -253.11779321 108.71272864 -246.0625 100.4375 C-243.82784495 98.1025193 -243.82784495 98.1025193 -243 95 C-241.5625 93.3125 -241.5625 93.3125 -240 92 C-239.34 92 -238.68 92 -238 92 C-237.505 90.02 -237.505 90.02 -237 88 C-236.34 88 -235.68 88 -235 88 C-234.77183594 87.43410156 -234.54367188 86.86820313 -234.30859375 86.28515625 C-232.64681917 83.38325139 -230.58443031 81.62613556 -228.0625 79.4375 C-224.58745192 76.43270712 -224.58745192 76.43270712 -221.30859375 73.22265625 C-220 72 -220 72 -218 72 C-217.74863281 71.40316406 -217.49726563 70.80632812 -217.23828125 70.19140625 C-215.83691826 67.71139162 -214.4907417 66.58896394 -212.1875 64.9375 C-211.18783203 64.20853516 -211.18783203 64.20853516 -210.16796875 63.46484375 C-208.64508696 62.43586957 -207.08903315 61.455136 -205.51171875 60.51171875 C-203.11660264 59.07017919 -200.8858214 57.51707028 -198.625 55.875 C-189.52785016 49.47581263 -180.03892607 43.60440972 -169.80078125 39.21875 C-167.85864337 38.37363561 -165.93990571 37.47345383 -164.04296875 36.53125 C-143.14563143 26.21638269 -120.81694689 19.13690506 -98.19677734 13.77197266 C-95.11515113 13.02780723 -92.05208312 12.23206611 -88.98828125 11.41796875 C-61.04814702 4.12913877 -28.96908105 -1.81849706 0 0 Z " fill="#000000" transform="translate(3116,872)"/>
<path d="M0 0 C39.93 0 79.86 0 121 0 C121 162.69 121 325.38 121 493 C81.07 493 41.14 493 0 493 C0 330.31 0 167.62 0 0 Z " fill="#000000" transform="translate(2570,888)"/>
<path d="M0 0 C1.7176763 1.61404575 3.38645706 3.28185136 5 5 C6.32837891 6.25876953 6.32837891 6.25876953 7.68359375 7.54296875 C19.40914076 18.80282028 27.81903656 33.09058529 28.23828125 49.80859375 C28.45661668 60.90912252 28.17664154 70.57213509 24 81 C23.649375 81.88558594 23.29875 82.77117187 22.9375 83.68359375 C19.7957343 90.67620421 15.05834204 96.30058336 10 102 C9.4225 102.66128906 8.845 103.32257813 8.25 104.00390625 C3.53178296 109.0737212 -2.05460012 112.51935973 -8 116 C-8.73476562 116.47695313 -9.46953125 116.95390625 -10.2265625 117.4453125 C-20.96585001 123.78263057 -38.88949259 126.13807693 -51.0625 123.125 C-52.37516354 122.75057285 -53.68766819 122.37558818 -55 122 C-56.20140625 121.74605469 -57.4028125 121.49210938 -58.640625 121.23046875 C-63.70998958 119.96796758 -68.10389902 117.64390495 -72.6875 115.1875 C-73.51572266 114.76146484 -74.34394531 114.33542969 -75.19726562 113.89648438 C-79.85737702 111.43024448 -83.46176102 108.99352709 -87 105 C-87.86044922 104.10087891 -87.86044922 104.10087891 -88.73828125 103.18359375 C-103.36386565 86.96117135 -108.20779312 70.90656587 -107.41796875 49.3046875 C-107.00655597 42.75665545 -105.66056556 37.00480587 -103 31 C-102.55269531 29.96746094 -102.10539062 28.93492187 -101.64453125 27.87109375 C-98.5428714 21.22705562 -94.82732074 15.50932631 -90 10 C-89.46761719 9.38511719 -88.93523438 8.77023437 -88.38671875 8.13671875 C-83.62869079 3.01530918 -78.0045508 -0.49005121 -72 -4 C-71.34257812 -4.40347656 -70.68515625 -4.80695312 -70.0078125 -5.22265625 C-49.22330165 -16.95297031 -19.11241548 -12.57274561 0 0 Z " fill="#000000" transform="translate(2670,688)"/>
</svg>
