<?xml version="1.0" encoding="UTF-8"?>
<svg version="1.1" xmlns="http://www.w3.org/2000/svg" width="637" height="179">
<path d="M0 0 C7.87776239 1.12539463 7.87776239 1.12539463 11.62890625 2.7421875 C12.43650391 3.08636719 13.24410156 3.43054687 14.07617188 3.78515625 C14.89666016 4.14480469 15.71714844 4.50445312 16.5625 4.875 C17.38685547 5.22691406 18.21121094 5.57882813 19.06054688 5.94140625 C23.46161176 7.83411041 27.705004 9.852502 32 12 C32 43.68 32 75.36 32 108 C16.53684211 115.13684211 16.53684211 115.13684211 11.125 117.375 C9.93132812 117.87773437 8.73765625 118.38046875 7.5078125 118.8984375 C1.52756616 120.77642132 -3.37996222 120.16744858 -9.24462891 118.18334961 C-10.43762604 117.78550766 -11.63062317 117.38766571 -12.85977173 116.97776794 C-14.14877076 116.53616057 -15.4376991 116.09434683 -16.7265625 115.65234375 C-18.07841319 115.19735993 -19.43058272 114.74332246 -20.78305054 114.29017639 C-24.34554946 113.09379132 -27.90368003 111.88490531 -31.46099854 110.67321777 C-35.00538997 109.46819466 -38.55356364 108.27442911 -42.1015625 107.08007812 C-46.23522528 105.68817589 -50.36814348 104.29425203 -54.49737549 102.88925171 C-60.53037507 100.83740245 -66.5668254 98.80389798 -72.63574219 96.85986328 C-73.62134125 96.54175186 -74.60694031 96.22364044 -75.62240601 95.89588928 C-77.41400329 95.32022061 -79.20831203 94.75289226 -81.00576782 94.19578552 C-86.77769279 92.33346082 -86.77769279 92.33346082 -89 89 C-79.24926891 89.63466644 -69.6497035 90.99524846 -60 92.46875 C-58.39009915 92.71183819 -56.78015362 92.95463062 -55.17016602 93.19714355 C-51.82156389 93.70238548 -48.47337404 94.21024809 -45.12548828 94.72021484 C-40.83788207 95.3732397 -36.54950205 96.02100631 -32.26083374 96.66701508 C-28.94749322 97.16644674 -25.63446246 97.66790737 -22.3215332 98.1700592 C-20.73957257 98.40973272 -19.15754184 98.64894407 -17.57543945 98.88768005 C-15.37160507 99.22069099 -13.16817541 99.55625916 -10.96484375 99.89257812 C-9.7130835 100.08275513 -8.46132324 100.27293213 -7.17163086 100.46887207 C-4 101 -4 101 0 102 C0 68.34 0 34.68 0 0 Z " fill="#037ACB" transform="translate(102,30)"/>
<path d="M0 0 C3.45616569 1.13704831 6.66757262 2.50011395 9.94873047 4.07373047 C11.10115234 4.62158203 12.25357422 5.16943359 13.44091797 5.73388672 C14.30974609 6.15541016 15.17857422 6.57693359 16.07373047 7.01123047 C16.20028842 14.64654892 16.2879801 22.28159798 16.34838867 29.91772461 C16.3735655 32.51646024 16.40770913 35.11512485 16.45092773 37.71362305 C16.51143636 41.44451395 16.53990924 45.1744705 16.56201172 48.90576172 C16.58781815 50.07146194 16.61362457 51.23716217 16.64021301 52.43818665 C16.64059067 53.51908066 16.64096832 54.59997467 16.64135742 55.71362305 C16.65246048 56.66626541 16.66356354 57.61890778 16.67500305 58.60041809 C16.07373047 61.01123047 16.07373047 61.01123047 13.71037292 62.75126648 C12.84028091 63.1670546 11.9701889 63.58284271 11.07373047 64.01123047 C10.16494141 64.49205078 9.25615234 64.97287109 8.31982422 65.46826172 C7.39298828 65.91556641 6.46615234 66.36287109 5.51123047 66.82373047 C4.58181641 67.28392578 3.65240234 67.74412109 2.69482422 68.21826172 C0.07373047 69.01123047 0.07373047 69.01123047 -1.76928711 68.37158203 C-4.59916077 66.58685582 -6.71539869 64.42669867 -9.05908203 62.03857422 C-9.53699188 61.5554628 -10.01490173 61.07235138 -10.5072937 60.57460022 C-12.02680568 59.03734006 -13.53943343 57.49353721 -15.05126953 55.94873047 C-16.57111512 54.4012557 -18.09240372 52.85527121 -19.6166687 51.31214905 C-20.99545696 49.91552246 -22.36943018 48.51414724 -23.74316406 47.11254883 C-25.74307405 44.97863502 -25.74307405 44.97863502 -27.92626953 44.01123047 C-27.92626953 43.35123047 -27.92626953 42.69123047 -27.92626953 42.01123047 C-28.90208984 42.70990234 -29.87791016 43.40857422 -30.88330078 44.12841797 C-32.16843904 45.04771395 -33.45359628 45.9669834 -34.73876953 46.88623047 C-35.38136719 47.34642578 -36.02396484 47.80662109 -36.68603516 48.28076172 C-37.30800781 48.72548828 -37.92998047 49.17021484 -38.57080078 49.62841797 C-39.42702026 50.24112549 -39.42702026 50.24112549 -40.30053711 50.86621094 C-44.78621898 54.02552134 -44.78621898 54.02552134 -47.98876953 53.69873047 C-50.92626953 53.01123047 -50.92626953 53.01123047 -52.92626953 52.01123047 C-51.60506125 49.07892854 -50.17988756 47.02458148 -47.88720703 44.77685547 C-47.30712891 44.20322266 -46.72705078 43.62958984 -46.12939453 43.03857422 C-45.22447266 42.15878906 -45.22447266 42.15878906 -44.30126953 41.26123047 C-43.69025391 40.65923828 -43.07923828 40.05724609 -42.44970703 39.43701172 C-40.94638329 37.95717741 -39.43692097 36.48358371 -37.92626953 35.01123047 C-39.04560315 31.65322962 -39.95032397 30.90558536 -42.61376953 28.69873047 C-46.24378288 25.62466511 -49.60530525 22.41521885 -52.92626953 19.01123047 C-52.43126953 17.52623047 -52.43126953 17.52623047 -51.92626953 16.01123047 C-45.0810202 14.45685071 -45.0810202 14.45685071 -42.11181641 15.88232422 C-40.37979204 17.18286182 -38.77364404 18.54857429 -37.17626953 20.01123047 C-33.61555866 23.5970802 -33.61555866 23.5970802 -29.08105469 24.98046875 C-25.89758764 23.54852176 -23.83249731 21.14448494 -21.49658203 18.62841797 C-20.44377337 17.53281137 -19.39036954 16.43777643 -18.33642578 15.34326172 C-16.68777957 13.61392975 -15.04518737 11.87972772 -13.41308594 10.13476562 C-11.83142837 8.45035978 -10.22861108 6.7885839 -8.62158203 5.12841797 C-7.89939987 4.33792557 -7.89939987 4.33792557 -7.16262817 3.53146362 C-4.74849758 1.06455889 -3.51209853 0.01347877 0 0 Z M-9.30126953 26.26123047 C-10.73599609 27.44458984 -10.73599609 27.44458984 -12.19970703 28.65185547 C-14.55260102 30.68788408 -16.76354637 32.7767582 -18.92626953 35.01123047 C-16.28333373 37.01508299 -13.6364537 39.01365737 -10.98876953 41.01123047 C-10.23402344 41.58357422 -9.47927734 42.15591797 -8.70166016 42.74560547 C-7.98300781 43.28701172 -7.26435547 43.82841797 -6.52392578 44.38623047 C-5.8588501 44.88896484 -5.19377441 45.39169922 -4.50854492 45.90966797 C-3.11081333 47.10645735 -3.11081333 47.10645735 -1.92626953 47.01123047 C-1.92626953 38.76123047 -1.92626953 30.51123047 -1.92626953 22.01123047 C-5.17833457 22.01123047 -6.85649478 24.22938014 -9.30126953 26.26123047 Z " fill="#067BCB" transform="translate(72.92626953125,46.98876953125)"/>
<path d="M0 0 C1.39255005 0.00193359 1.39255005 0.00193359 2.81323242 0.00390625 C9.99585416 0.10410849 16.00535665 1.11421413 22.875 3.3125 C22.875 6.9425 22.875 10.5725 22.875 14.3125 C14.1527659 12.38847777 14.1527659 12.38847777 11.97119141 11.79174805 C8.51822058 11.00230224 5.02449085 11.0867233 1.5 11.0625 C0.38625 11.0315625 0.38625 11.0315625 -0.75 11 C-5.61372597 10.96562738 -8.9178712 11.61382737 -13.125 14.3125 C-15.5485361 17.75235769 -16.125 19.72155759 -16.125 23.9375 C-14.85511721 28.22335441 -13.92157887 28.95600277 -10.125 31.3125 C-5.23618846 32.83479311 -0.21193391 33.80518247 4.796875 34.84765625 C12.78806831 36.65566374 19.46681386 39.24967217 24.84765625 45.6640625 C28.58332938 53.45675699 29.33476372 61.25856681 26.875 69.625 C24.5285402 74.88808741 20.19012324 78.84925288 14.95068359 81.16186523 C9.18046928 83.30328978 3.87161594 83.81830255 -2.25 83.75 C-3.15709717 83.74677734 -4.06419434 83.74355469 -4.9987793 83.74023438 C-13.16804986 83.57323545 -20.41085509 81.96682943 -28.125 79.3125 C-28.125 75.3525 -28.125 71.3925 -28.125 67.3125 C-24.26906183 68.08368763 -21.39543912 68.96108202 -17.8125 70.375 C-9.58333977 73.16558156 0.50129791 74.24599177 8.73046875 70.94921875 C12.00481487 69.52852361 12.00481487 69.52852361 13.875 66.6875 C15.46185366 61.33186889 14.62114609 56.55093828 12.875 51.3125 C9.59604709 49.69091395 6.22466287 48.833898 2.671875 48.015625 C1.69089844 47.7784375 0.70992188 47.54125 -0.30078125 47.296875 C-2.33197904 46.81165875 -4.36584915 46.33748136 -6.40234375 45.875 C-14.59637279 43.86130397 -21.1392178 40.80804989 -26.6875 34.3125 C-29.62501137 28.23442348 -29.11553833 20.23131725 -27.5 13.83984375 C-24.8165116 7.62229697 -19.57908397 3.81852173 -13.5 1.16796875 C-8.96005136 0.01721788 -4.66634673 -0.02663868 0 0 Z " fill="#1C85CB" transform="translate(272.125,46.6875)"/>
<path d="M0 0 C3.3 0 6.6 0 10 0 C10 27.06 10 54.12 10 82 C5.545 82.495 5.545 82.495 1 83 C0.34 81.02 -0.32 79.04 -1 77 C-1.47050781 77.42152344 -1.94101562 77.84304687 -2.42578125 78.27734375 C-3.04839844 78.82519531 -3.67101562 79.37304688 -4.3125 79.9375 C-4.92738281 80.48277344 -5.54226563 81.02804688 -6.17578125 81.58984375 C-11.50457768 85.70910609 -19.60670483 84.46929507 -26 84 C-32.07961313 82.37670194 -36.53905324 77.03002884 -40 72 C-45.26035548 61.6904712 -44.80713 48.93377137 -42 38 C-39.407319 31.11057751 -34.99413473 26.21345036 -29 22 C-25.42687005 20.80895668 -22.45446678 20.79471177 -18.6875 20.75 C-17.39199219 20.72421875 -16.09648438 20.6984375 -14.76171875 20.671875 C-8.35793698 21.23046033 -5.51800641 23.48199359 -1 28 C-0.67 18.76 -0.34 9.52 0 0 Z M-29 36 C-31.9641918 41.57965515 -32.49223605 46.17271074 -32.4375 52.4375 C-32.45748047 53.24509766 -32.47746094 54.05269531 -32.49804688 54.88476562 C-32.49207178 62.29985711 -30.22595174 67.39400772 -25.4375 73 C-20.57721271 75.82780351 -16.49016974 76.11556424 -11 75 C-6.75195487 72.8183638 -4.51710684 69.87908163 -2.125 65.8125 C0.75983884 56.03610171 1.0310457 45.74853495 -3.8125 36.5625 C-7.78493564 31.71068146 -7.78493564 31.71068146 -13.51953125 29.546875 C-20.31778419 29.13767783 -24.92012563 30.33473967 -29 36 Z " fill="#127FC9" transform="translate(530,46)"/>
<path d="M0 0 C4.29 0 8.58 0 13 0 C13.69150146 1.83739746 14.38300293 3.67479492 15.09545898 5.56787109 C17.37764059 11.63111998 19.6608148 17.69399435 21.94467068 23.75661278 C23.32965174 27.43323026 24.71423091 31.10999806 26.09790039 34.78710938 C27.43263892 38.33414191 28.76842165 41.88077955 30.1049366 45.4271431 C30.61525936 46.78181502 31.12520245 48.13663004 31.63476372 49.49158859 C32.34722646 51.3858814 33.06115132 53.2796241 33.77514648 55.17333984 C34.1815184 56.25255707 34.58789032 57.33177429 35.00657654 58.44369507 C35.93057602 60.93853419 35.93057602 60.93853419 37 63 C37.28592514 62.24022858 37.57185028 61.48045715 37.86643982 60.69766235 C40.55810912 53.54583236 43.25080783 46.39439123 45.94467068 39.24338722 C47.32965174 35.56676974 48.71423091 31.89000194 50.09790039 28.21289062 C51.43263892 24.66585809 52.76842165 21.11922045 54.1049366 17.5728569 C54.61525936 16.21818498 55.12520245 14.86336996 55.63476372 13.50841141 C56.34722646 11.6141186 57.06115132 9.7203759 57.77514648 7.82666016 C58.1815184 6.74744293 58.58789032 5.66822571 59.00657654 4.55630493 C60 2 60 2 61 0 C64.96 0 68.92 0 73 0 C72.37435497 4.93778309 70.89355908 9.31892686 69.078125 13.921875 C68.78146439 14.68783493 68.48480377 15.45379486 68.17915344 16.2429657 C67.20796118 18.74736292 66.22895984 21.24863016 65.25 23.75 C64.57610876 25.48421062 63.90285728 27.21866998 63.23022461 28.95336914 C62.19469407 31.62350548 61.15866885 34.29344028 60.12046814 36.96253967 C56.85544628 45.35681031 53.63390421 53.76741084 50.42297363 62.18249512 C49.32551535 65.05855511 48.22670609 67.93409806 47.12786865 70.80963135 C46.08487588 73.53961295 45.04249337 76.26982766 44 79 C39.38 79 34.76 79 30 79 C13.81477317 37.17576322 13.81477317 37.17576322 6.28720093 17.52947998 C5.72089905 16.05192489 5.15402511 14.57458893 4.58657837 13.09747314 C3.80475052 11.06170937 3.02507833 9.02513438 2.24609375 6.98828125 C1.80966553 5.84915283 1.3732373 4.71002441 0.92358398 3.53637695 C0 1 0 1 0 0 Z " fill="#1582CB" transform="translate(163,49)"/>
<path d="M0 0 C1.38723267 0.00700928 1.38723267 0.00700928 2.80249023 0.01416016 C9.69881616 0.16338139 15.51261319 1.22702754 21.6875 4.4375 C23.0075 5.0975 24.3275 5.7575 25.6875 6.4375 C25.6875 10.3975 25.6875 14.3575 25.6875 18.4375 C22.498069 17.1617276 19.58352486 15.93290106 16.5625 14.375 C8.49203271 10.21415597 -1.66464737 9.9938469 -10.4453125 12.23828125 C-16.65124093 14.99963473 -20.53876207 19.26218482 -23.3125 25.4375 C-24.9889155 30.99674729 -25.67136696 36.0212668 -25.625 41.8125 C-25.61654053 42.92612915 -25.61654053 42.92612915 -25.60791016 44.06225586 C-25.40019663 53.49059921 -23.31314363 61.71564306 -16.3125 68.4375 C-9.1423009 73.86111214 0.1617353 73.29350047 8.6875 72.4375 C14.63529506 70.9580992 19.07225805 68.47583671 23.6875 64.4375 C24.3475 64.4375 25.0075 64.4375 25.6875 64.4375 C25.6875 68.3975 25.6875 72.3575 25.6875 76.4375 C23.77338443 77.42164433 21.8561033 78.39963349 19.9375 79.375 C18.87015625 79.92027344 17.8028125 80.46554688 16.703125 81.02734375 C7.90558359 85.14121998 -4.20672021 84.71868881 -13.5703125 82.75390625 C-16.00315544 81.83491699 -18.100963 80.80106809 -20.3125 79.4375 C-21.01246094 79.025 -21.71242188 78.6125 -22.43359375 78.1875 C-30.23598614 72.99573796 -35.79483468 65.01863263 -37.875 55.87890625 C-39.72010439 41.36518333 -39.91265514 25.86402642 -31.125 13.5 C-22.84237971 3.8546409 -12.46717117 -0.13758434 0 0 Z " fill="#1180CB" transform="translate(384.3125,46.5625)"/>
<path d="M0 0 C7.03043012 4.2158627 9.80147087 10.52941262 12.3125 18.0625 C12.3125 22.3525 12.3125 26.6425 12.3125 31.0625 C-2.2075 31.0625 -16.7275 31.0625 -31.6875 31.0625 C-29.53154513 42.72425137 -29.53154513 42.72425137 -22.0703125 49.66015625 C-17.97680586 51.35711801 -14.75152084 51.51924956 -10.375 51.4375 C-9.24940674 51.42879883 -9.24940674 51.42879883 -8.10107422 51.41992188 C-2.44934748 51.28766045 2.06483694 50.23394679 7.3125 48.0625 C8.3025 48.0625 9.2925 48.0625 10.3125 48.0625 C10.3125 51.3625 10.3125 54.6625 10.3125 58.0625 C3.03694884 60.66866758 -3.64712567 61.41383438 -11.3125 61.5 C-12.19446045 61.52191406 -13.0764209 61.54382813 -13.98510742 61.56640625 C-21.85358631 61.54291168 -29.33314191 59.19838195 -35.2734375 53.7890625 C-42.13176618 45.41508107 -44.1928569 36.33789675 -43.4609375 25.80078125 C-42.29818174 15.98575468 -39.34798628 8.77157957 -31.7265625 2.3515625 C-22.55040034 -3.44945956 -10.03223415 -4.40625482 0 0 Z M-29 13.9375 C-31.071892 17.37067661 -31.071892 17.37067661 -31.6875 23.0625 C-20.7975 23.0625 -9.9075 23.0625 1.3125 23.0625 C1.04743024 15.08346505 1.04743024 15.08346505 -2.9375 10 C-7.59429915 6.38551691 -11.94188376 6.23522956 -17.69140625 6.57421875 C-23.15888437 7.46526799 -25.61667874 9.7312087 -29 13.9375 Z " fill="#0D7DC8" transform="translate(598.6875,68.9375)"/>
<path d="M0 0 C1.05272095 0.01353516 1.05272095 0.01353516 2.12670898 0.02734375 C10.25956517 0.29815686 15.41198032 2.31024535 21 8.1875 C27.5532208 16.3638565 28.77747767 26.1986196 28.125 36.4375 C26.89752756 46.44373105 23.96771869 53.33553838 16.3203125 59.9921875 C9.29289481 64.61877922 0.23979242 64.46033841 -7.875 63.4375 C-14.43036071 61.50652775 -19.1555564 58.23545619 -22.875 52.4375 C-28.693201 41.37500218 -28.9733065 29.41659592 -25.875 17.4375 C-22.9475361 9.9867742 -18.84855117 5.42912138 -11.671875 1.83203125 C-7.82945588 0.23767485 -4.12964761 -0.06366312 0 0 Z M-12.34765625 15.33203125 C-17.01095801 22.95698426 -17.15766723 31.78380046 -15.875 40.4375 C-14.33820255 45.73163696 -12.1126545 49.22862816 -8.1875 53.0625 C-3.62595827 54.95597015 0.25722057 55.20651401 5.125 54.4375 C10.58036136 51.91186974 12.56740367 48.64741846 15.125 43.4375 C17.69015167 35.74204498 17.44431135 24.99935892 14 17.625 C11.60992719 13.71699795 9.44647492 11.23131978 5.125 9.4375 C-2.23325487 8.30915423 -7.58171669 9.20078275 -12.34765625 15.33203125 Z " fill="#0E7EC9" transform="translate(447.875,66.5625)"/>
<path d="M0 0 C1.30880127 0.40581299 1.30880127 0.40581299 2.64404297 0.81982422 C1.65404297 1.14982422 0.66404297 1.47982422 -0.35595703 1.81982422 C-3.83405924 3.27892619 -6.04457856 5.27542605 -8.68408203 7.95263672 C-9.88291016 9.16113281 -9.88291016 9.16113281 -11.10595703 10.39404297 C-11.93095703 11.23580078 -12.75595703 12.07755859 -13.60595703 12.94482422 C-14.44642578 13.79431641 -15.28689453 14.64380859 -16.15283203 15.51904297 C-18.22511386 17.61487345 -20.29258096 19.71523135 -22.35595703 21.81982422 C-19.45751969 20.52490649 -18.32311931 19.77803076 -16.29345703 17.19482422 C-15.65408203 16.41107422 -15.01470703 15.62732422 -14.35595703 14.81982422 C-13.36595703 14.81982422 -12.37595703 14.81982422 -11.35595703 14.81982422 C-11.35595703 16.13982422 -11.35595703 17.45982422 -11.35595703 18.81982422 C-10.03595703 18.81982422 -8.71595703 18.81982422 -7.35595703 18.81982422 C-7.35595703 20.13982422 -7.35595703 21.45982422 -7.35595703 22.81982422 C-6.69595703 23.14982422 -6.03595703 23.47982422 -5.35595703 23.81982422 C-11.79095703 28.76982422 -11.79095703 28.76982422 -18.35595703 33.81982422 C-16.62345703 35.24294922 -14.89095703 36.66607422 -13.10595703 38.13232422 C-11.64416016 39.33308594 -11.64416016 39.33308594 -10.15283203 40.55810547 C-7.9249456 42.35970637 -5.64809926 44.10071754 -3.35595703 45.81982422 C-3.02595703 37.89982422 -2.69595703 29.97982422 -2.35595703 21.81982422 C-3.01595703 21.48982422 -3.67595703 21.15982422 -4.35595703 20.81982422 C-3.36595703 20.48982422 -2.37595703 20.15982422 -1.35595703 19.81982422 C-1.35595703 29.05982422 -1.35595703 38.29982422 -1.35595703 47.81982422 C-3.66595703 48.47982422 -5.97595703 49.13982422 -8.35595703 49.81982422 C-9.34595703 50.47982422 -10.33595703 51.13982422 -11.35595703 51.81982422 C-11.80970703 50.99482422 -12.26345703 50.16982422 -12.73095703 49.31982422 C-13.26720703 48.49482422 -13.80345703 47.66982422 -14.35595703 46.81982422 C-15.01595703 46.81982422 -15.67595703 46.81982422 -16.35595703 46.81982422 C-16.68595703 46.15982422 -17.01595703 45.49982422 -17.35595703 44.81982422 C-17.50033203 45.60357422 -17.64470703 46.38732422 -17.79345703 47.19482422 C-18.35595703 49.81982422 -18.35595703 49.81982422 -19.35595703 51.81982422 C-19.83806641 51.32611328 -20.32017578 50.83240234 -20.81689453 50.32373047 C-21.76435547 49.36273438 -21.76435547 49.36273438 -22.73095703 48.38232422 C-23.67068359 47.42519531 -23.67068359 47.42519531 -24.62939453 46.44873047 C-26.27318764 44.74100246 -26.27318764 44.74100246 -28.35595703 43.81982422 C-28.35595703 43.15982422 -28.35595703 42.49982422 -28.35595703 41.81982422 C-29.33177734 42.51849609 -30.30759766 43.21716797 -31.31298828 43.93701172 C-32.59812654 44.8563077 -33.88328378 45.77557715 -35.16845703 46.69482422 C-35.81105469 47.15501953 -36.45365234 47.61521484 -37.11572266 48.08935547 C-37.73769531 48.53408203 -38.35966797 48.97880859 -39.00048828 49.43701172 C-39.85670776 50.04971924 -39.85670776 50.04971924 -40.73022461 50.67480469 C-45.21590648 53.83411509 -45.21590648 53.83411509 -48.41845703 53.50732422 C-51.35595703 52.81982422 -51.35595703 52.81982422 -53.35595703 51.81982422 C-52.03474875 48.88752229 -50.60957506 46.83317523 -48.31689453 44.58544922 C-47.73681641 44.01181641 -47.15673828 43.43818359 -46.55908203 42.84716797 C-45.65416016 41.96738281 -45.65416016 41.96738281 -44.73095703 41.06982422 C-44.11994141 40.46783203 -43.50892578 39.86583984 -42.87939453 39.24560547 C-41.37607079 37.76577116 -39.86660847 36.29217746 -38.35595703 34.81982422 C-39.47529065 31.46182337 -40.38001147 30.71417911 -43.04345703 28.50732422 C-46.67347038 25.43325886 -50.03499275 22.2238126 -53.35595703 18.81982422 C-52.86095703 17.33482422 -52.86095703 17.33482422 -52.35595703 15.81982422 C-45.5107077 14.26544446 -45.5107077 14.26544446 -42.54150391 15.69091797 C-40.80947954 16.99145557 -39.20333154 18.35716804 -37.60595703 19.81982422 C-34.04524616 23.40567395 -34.04524616 23.40567395 -29.51074219 24.7890625 C-26.32727514 23.35711551 -24.26218481 20.95307869 -21.92626953 18.43701172 C-20.87346087 17.34140512 -19.82005704 16.24637018 -18.76611328 15.15185547 C-17.11746707 13.4225235 -15.47487487 11.68832147 -13.84277344 9.94335938 C-12.26111587 8.25895353 -10.65829858 6.59717765 -9.05126953 4.93701172 C-8.32908737 4.14651932 -8.32908737 4.14651932 -7.59231567 3.34005737 C-4.92254739 0.61192658 -3.89680064 -0.20921278 0 0 Z " fill="#238BD1" transform="translate(73.35595703125,47.18017578125)"/>
<path d="M0 0 C1.29550781 -0.02578125 2.59101562 -0.0515625 3.92578125 -0.078125 C10.58068857 0.50236536 14.26322803 3.4353511 18.6875 8.25 C18.3575 8.91 18.0275 9.57 17.6875 10.25 C16.6975 9.59 15.7075 8.93 14.6875 8.25 C14.6875 8.91 14.6875 9.57 14.6875 10.25 C13.6975 10.25 12.7075 10.25 11.6875 10.25 C11.3575 10.91 11.0275 11.57 10.6875 12.25 C9.6975 11.59 8.7075 10.93 7.6875 10.25 C3.36590512 9.60549213 -1.20795484 9.30527432 -5.26171875 11.125 C-9.59798043 14.44546234 -11.89093856 19.15571176 -12.61474609 24.46850586 C-12.75022158 26.88213516 -12.77111892 29.27034355 -12.75 31.6875 C-12.76998047 32.49509766 -12.78996094 33.30269531 -12.81054688 34.13476562 C-12.80485202 41.20208307 -10.73530667 46.31326464 -6.25 51.75 C-1.67140756 54.08800465 2.65954575 54.11787798 7.6875 53.25 C10.49133949 51.85531909 12.31925178 50.35510952 14.6875 48.25 C13.38936222 51.14584583 12.15446251 53.23157613 9.6875 55.25 C7.42578125 55.76171875 7.42578125 55.76171875 5 55.9375 C3.78763672 56.03611328 3.78763672 56.03611328 2.55078125 56.13671875 C1.93589844 56.17410156 1.32101562 56.21148437 0.6875 56.25 C0.3575 57.24 0.0275 58.23 -0.3125 59.25 C-0.9725 59.91 -1.6325 60.57 -2.3125 61.25 C1.9775 61.25 6.2675 61.25 10.6875 61.25 C5.42703806 64.75697463 -1.19076599 63.75797367 -7.3125 63.25 C-13.39363975 61.61595224 -17.84813992 56.28498965 -21.3125 51.25 C-26.57285548 40.9404712 -26.11963 28.18377137 -23.3125 17.25 C-20.719819 10.36057751 -16.30663473 5.46345036 -10.3125 1.25 C-6.73937005 0.05895668 -3.76696678 0.04471177 0 0 Z " fill="#1783CB" transform="translate(511.3125,66.75)"/>
<path d="M0 0 C2 1 2 1 3.0703125 3.4140625 C6.29812132 13.24094713 8.39395604 24.0708145 4.375 34 C0.88678634 40.45380298 -3.20386244 45.59446613 -10.171875 48.34375 C-13.82265946 49.19089335 -17.39383849 49.39333663 -21.125 49.4375 C-22.12829346 49.4528479 -22.12829346 49.4528479 -23.15185547 49.46850586 C-28.16201953 49.38020743 -31.65894692 48.34979493 -36 46 C-37.0625 42.9375 -37.0625 42.9375 -37 40 C-36.34 39.34 -35.68 38.68 -35 38 C-34.67 38.33 -34.34 38.66 -34 39 C-33.34 38.34 -32.68 37.68 -32 37 C-31.43539063 37.72703125 -31.43539063 37.72703125 -30.859375 38.46875 C-27.61704757 41.138902 -24.05281144 40.52423948 -20.015625 40.40234375 C-15.5194706 39.80246823 -12.93702816 38.43747151 -10 35 C-4.41798321 27.68858537 -5.27754737 17.70295014 -5.1418457 8.94189453 C-5 7 -5 7 -4 4 C-2.35 4 -0.7 4 1 4 C0.505 2.02 0.505 2.02 0 0 Z " fill="#1581CB" transform="translate(469,81)"/>
<path d="M0 0 C7.03043012 4.2158627 9.80147087 10.52941262 12.3125 18.0625 C12.3125 22.3525 12.3125 26.6425 12.3125 31.0625 C-2.2075 31.0625 -16.7275 31.0625 -31.6875 31.0625 C-31.6875 30.7325 -31.6875 30.4025 -31.6875 30.0625 C-17.8275 30.0625 -3.9675 30.0625 10.3125 30.0625 C10.3125 27.7525 10.3125 25.4425 10.3125 23.0625 C8.42933841 21.95413577 8.42933841 21.95413577 6.3125 21.0625 C5.3225 21.5575 5.3225 21.5575 4.3125 22.0625 C4.3125 20.4125 4.3125 18.7625 4.3125 17.0625 C3.6525 17.0625 2.9925 17.0625 2.3125 17.0625 C2.3125 19.0425 2.3125 21.0225 2.3125 23.0625 C1.9825 23.0625 1.6525 23.0625 1.3125 23.0625 C1.24933594 22.48242188 1.18617188 21.90234375 1.12109375 21.3046875 C0.28814612 15.99135841 -0.98262442 12.3986089 -5.359375 9.09765625 C-10.28996509 6.90536368 -15.44858037 7.2928649 -20.6875 8.0625 C-26.47425927 10.49903022 -28.395964 14.5088951 -30.6875 20.0625 C-31.0175 20.0625 -31.3475 20.0625 -31.6875 20.0625 C-31.6875 17.7525 -31.6875 15.4425 -31.6875 13.0625 C-31.0275 13.0625 -30.3675 13.0625 -29.6875 13.0625 C-30.3475 11.0825 -31.0075 9.1025 -31.6875 7.0625 C-32.615625 8.0525 -32.615625 8.0525 -33.5625 9.0625 C-35.6875 11.0625 -35.6875 11.0625 -37.6875 11.0625 C-37.6875 12.0525 -37.6875 13.0425 -37.6875 14.0625 C-38.3475 14.0625 -39.0075 14.0625 -39.6875 14.0625 C-38.47256023 7.83593369 -34.74662415 4.51608392 -29.6875 1.0625 C-20.88788386 -3.47480207 -9.17897173 -4.03149366 0 0 Z " fill="#2284C6" transform="translate(598.6875,68.9375)"/>
<path d="M0 0 C2.22676835 0.60955763 2.22676835 0.60955763 5.6015625 0.8046875 C9.7936871 1.65863881 12.2872284 3.26033643 14.9765625 6.4921875 C19.31251942 13.05653095 19.86281864 19.79739894 18.9765625 27.4921875 C18.2504465 30.46140068 17.33628805 32.72043926 15.9765625 35.4921875 C13.9765625 36.4921875 13.9765625 36.4921875 11.8125 35.93359375 C10.59433594 35.49853516 10.59433594 35.49853516 9.3515625 35.0546875 C8.53429687 34.76722656 7.71703125 34.47976562 6.875 34.18359375 C6.24851562 33.95542969 5.62203125 33.72726563 4.9765625 33.4921875 C5.4715625 32.5434375 5.9665625 31.5946875 6.4765625 30.6171875 C8.50634942 25.97631317 8.24689358 21.46828178 7.9765625 16.4921875 C6.6565625 16.1621875 5.3365625 15.8321875 3.9765625 15.4921875 C3.9765625 14.8321875 3.9765625 14.1721875 3.9765625 13.4921875 C0.05217464 11.82729568 -3.91444169 10.62014713 -8.0234375 9.4921875 C-7.3634375 8.8321875 -6.7034375 8.1721875 -6.0234375 7.4921875 C-11.9634375 6.0071875 -11.9634375 6.0071875 -18.0234375 4.4921875 C-17.3634375 2.8421875 -16.7034375 1.1921875 -16.0234375 -0.5078125 C-10.46506196 -2.36060435 -5.49464527 -1.5486838 0 0 Z " fill="#1A84CD" transform="translate(281.0234375,84.5078125)"/>
<path d="M0 0 C1.4606285 2.64738916 2 3.89448334 2 7 C1.34 7 0.68 7 0 7 C0 10.3 0 13.6 0 17 C11.22 17 22.44 17 34 17 C34 15.02 34 13.04 34 11 C34.66 11 35.32 11 36 11 C36.495 12.98 36.495 12.98 37 15 C37.66 14.67 38.32 14.34 39 14 C40.5 15.0625 40.5 15.0625 42 17 C42.06038969 19.33255172 42.06471498 21.66756427 42 24 C40.74864258 24.02505615 39.49728516 24.0501123 38.20800781 24.07592773 C33.56369857 24.17012563 28.91953457 24.27031619 24.27539062 24.37231445 C22.26565957 24.41561644 20.25589285 24.45729488 18.24609375 24.49731445 C15.35666152 24.55513165 12.46740802 24.61879324 9.578125 24.68359375 C8.68007141 24.70030624 7.78201782 24.71701874 6.85675049 24.73423767 C5.5958963 24.7641555 5.5958963 24.7641555 4.30957031 24.79467773 C3.20370575 24.81799416 3.20370575 24.81799416 2.07550049 24.84178162 C-0.03389109 24.93822656 -0.03389109 24.93822656 -2.14434814 25.57533264 C-4 26 -4 26 -6 25 C-6.99 27.475 -6.99 27.475 -8 30 C-8.66 29.67 -9.32 29.34 -10 29 C-10.02687279 27.18757948 -10.04633715 25.37504767 -10.0625 23.5625 C-10.07410156 22.55316406 -10.08570313 21.54382813 -10.09765625 20.50390625 C-10 18 -10 18 -9 17 C-8.76807135 15.48530552 -8.58784762 13.96245438 -8.4375 12.4375 C-8.35371094 11.61121094 -8.26992188 10.78492187 -8.18359375 9.93359375 C-8.12300781 9.29550781 -8.06242188 8.65742187 -8 8 C-7.34 8 -6.68 8 -6 8 C-6 7.01 -6 6.02 -6 5 C-5.34 5 -4.68 5 -4 5 C-3.566875 4.0409375 -3.566875 4.0409375 -3.125 3.0625 C-2 1 -2 1 0 0 Z " fill="#047ACA" transform="translate(567,75)"/>
<path d="M0 0 C1.63922525 2.45883788 2.57719688 4.26797621 3.57226562 6.98071289 C3.86597046 7.77486099 4.15967529 8.56900909 4.46228027 9.38722229 C4.77379028 10.2404155 5.08530029 11.0936087 5.40625 11.97265625 C6.07414666 13.7767194 6.74211767 15.58075503 7.41015625 17.38476562 C8.45864316 20.23055313 9.50531935 23.0769928 10.55029297 25.92407227 C11.56014686 28.67116895 12.57661383 31.41574922 13.59375 34.16015625 C13.90526001 35.01537369 14.21677002 35.87059113 14.53771973 36.75172424 C14.83142456 37.54272018 15.12512939 38.33371613 15.42773438 39.14868164 C15.68373413 39.84578751 15.93973389 40.54289337 16.20349121 41.26112366 C16.97091143 43.20317722 16.97091143 43.20317722 19 45 C19 46.32 19 47.64 19 49 C18.071875 48.7525 18.071875 48.7525 17.125 48.5 C15.03936614 47.92365356 15.03936614 47.92365356 13 48 C11.27159652 49.14397385 11.27159652 49.14397385 10 51 C9.74930087 53.62570704 9.74930087 53.62570704 10 56 C7.2574845 53.2574845 6.28298126 49.99785391 4.92578125 46.4375 C4.63769089 45.69040771 4.34960052 44.94331543 4.05278015 44.17358398 C3.4457805 42.59431073 2.84158674 41.01395657 2.23999023 39.43261719 C1.31477099 37.00595635 0.37572326 34.58496135 -0.56445312 32.1640625 C-1.15188913 30.6305327 -1.73850584 29.09668875 -2.32421875 27.5625 C-2.60746506 26.83538818 -2.89071136 26.10827637 -3.18254089 25.35913086 C-3.84739912 23.5938763 -4.4315741 21.79862507 -5 20 C-4.67 19.34 -4.34 18.68 -4 18 C-3.34 18.33 -2.68 18.66 -2 19 C-1.67 19.99 -1.34 20.98 -1 22 C-0.01 20.02 0.98 18.04 2 16 C2.66 16 3.32 16 4 16 C3.57576756 14.53775201 3.13509755 13.08026588 2.6875 11.625 C2.32205078 10.40683594 2.32205078 10.40683594 1.94921875 9.1640625 C1.08631815 6.66815371 1.08631815 6.66815371 -2 5 C-1.34 3.35 -0.68 1.7 0 0 Z " fill="#1A84CC" transform="translate(182,67)"/>
<path d="M0 0 C2.49505962 2.49505962 2.35948376 3.67328888 2.625 7.125 C2.69976562 8.03507812 2.77453125 8.94515625 2.8515625 9.8828125 C2.90054688 10.58148438 2.94953125 11.28015625 3 12 C2.34 12 1.68 12 1 12 C1 13.98 1 15.96 1 18 C0.34 18 -0.32 18 -1 18 C-0.979375 18.721875 -0.95875 19.44375 -0.9375 20.1875 C-0.99871324 22.94209588 -1.39650814 25.31781394 -2 28 C-2.33 29.65 -2.66 31.3 -3 33 C-7.62 33 -12.24 33 -17 33 C-17.66 29.7 -18.32 26.4 -19 23 C-18.01 22.67 -17.02 22.34 -16 22 C-14.79117904 19.99983534 -14.79117904 19.99983534 -14 18 C-12.35 18.99 -10.7 19.98 -9 21 C-8.93941406 20.38511719 -8.87882813 19.77023438 -8.81640625 19.13671875 C-8.73261719 18.32847656 -8.64882812 17.52023438 -8.5625 16.6875 C-8.48128906 15.88699219 -8.40007812 15.08648437 -8.31640625 14.26171875 C-8 12 -8 12 -7 9 C-6.34 9 -5.68 9 -5 9 C-4.896875 8.401875 -4.79375 7.80375 -4.6875 7.1875 C-3.90298309 4.69130983 -2.90110692 3.74268135 -1 2 C-0.67 1.34 -0.34 0.68 0 0 Z " fill="#0B7DCB" transform="translate(210,95)"/>
<path d="M0 0 C0.66 0 1.32 0 2 0 C3.96611502 4.04479388 4.11331236 6.86885748 3.625 11.3125 C3.51414063 12.38113281 3.40328125 13.44976562 3.2890625 14.55078125 C3.19367188 15.35902344 3.09828125 16.16726562 3 17 C3.99 17.33 4.98 17.66 6 18 C6.33 18.66 6.66 19.32 7 20 C7.66 19.67 8.32 19.34 9 19 C8.67 18.01 8.34 17.02 8 16 C8.66 15.01 9.32 14.02 10 13 C10.38499891 11.34450469 10.72793135 9.6777567 11 8 C11.7734375 9.1446875 11.7734375 9.1446875 12.5625 10.3125 C18.14853182 16.47145816 27.26904249 17.40304322 35.05664062 19.19335938 C35.92095703 19.39896484 36.78527344 19.60457031 37.67578125 19.81640625 C38.45864502 19.99631104 39.24150879 20.17621582 40.0480957 20.36157227 C42 21 42 21 44 23 C42.20793453 22.85915204 40.41635083 22.71216299 38.625 22.5625 C37.62726563 22.48128906 36.62953125 22.40007812 35.6015625 22.31640625 C33 22 33 22 31 21 C29.29297265 20.93003986 27.58331997 20.91559846 25.875 20.9375 C24.96492188 20.94652344 24.05484375 20.95554687 23.1171875 20.96484375 C22.06917969 20.98224609 22.06917969 20.98224609 21 21 C20.67 22.32 20.34 23.64 20 25 C21.15628906 25.29003906 21.15628906 25.29003906 22.3359375 25.5859375 C23.33882813 25.84632812 24.34171875 26.10671875 25.375 26.375 C26.87160156 26.75785156 26.87160156 26.75785156 28.3984375 27.1484375 C31 28 31 28 33 30 C22.33618059 30.61522035 12.11598619 28.20658393 4 21 C-1.35323132 14.73280236 -0.39599339 7.93086755 0 0 Z " fill="#1A84CC" transform="translate(244,63)"/>
<path d="M0 0 C6.15097049 1.5002367 10.66025035 4.62438596 14.26171875 9.8203125 C18.56338599 17.72002854 19.2851764 26.15953161 19 35 C18.67 35 18.34 35 18 35 C17.80664062 33.89140625 17.61328125 32.7828125 17.4140625 31.640625 C17.15136511 30.17702524 16.88832633 28.71348673 16.625 27.25 C16.49867188 26.52039063 16.37234375 25.79078125 16.2421875 25.0390625 C15.58165926 21.4061572 14.92552338 18.1812995 13 15 C13 15.66 13 16.32 13 17 C12.34 17 11.68 17 11 17 C10.67 17.99 10.34 18.98 10 20 C10 19.01 10 18.02 10 17 C9.34 17 8.68 17 8 17 C7.67 18.65 7.34 20.3 7 22 C5.91175718 20.36763577 4.83862413 18.72280675 3.8515625 17.02734375 C3.44679688 16.33769531 3.04203125 15.64804688 2.625 14.9375 C2.22539062 14.24527344 1.82578125 13.55304688 1.4140625 12.83984375 C-0.83103279 9.9187391 -2.99058555 9.16211808 -6.578125 8.5859375 C-7.90070313 8.48152344 -7.90070313 8.48152344 -9.25 8.375 C-10.14203125 8.30023438 -11.0340625 8.22546875 -11.953125 8.1484375 C-12.96632813 8.07496094 -12.96632813 8.07496094 -14 8 C-14 7.67 -14 7.34 -14 7 C-13.37351562 6.97421875 -12.74703125 6.9484375 -12.1015625 6.921875 C-11.28429687 6.86515625 -10.46703125 6.8084375 -9.625 6.75 C-8.81289063 6.70359375 -8.00078125 6.6571875 -7.1640625 6.609375 C-4.81161073 6.2077908 -4.81161073 6.2077908 -3.7109375 3.953125 C-3.47632813 3.30859375 -3.24171875 2.6640625 -3 2 C-2.01 2 -1.02 2 0 2 C0 1.34 0 0.68 0 0 Z " fill="#2087CE" transform="translate(457,68)"/>
<path d="M0 0 C9.79974009 0.63342669 19.44414594 2.01589741 29.140625 3.50390625 C30.76009946 3.74944771 32.37962766 3.99463495 33.99920654 4.23948669 C38.2213453 4.87875637 42.44274618 5.52277254 46.66400146 6.16784668 C50.9877975 6.82770802 55.31228797 7.48298561 59.63671875 8.13867188 C68.09182447 9.42134585 76.54615472 10.70904492 85 12 C85 12.33 85 12.66 85 13 C79.18544741 13.09945073 73.58500754 12.73230697 67.8125 12.0625 C60.21452848 11.21885957 52.62789801 10.5203952 45 10 C45 9.34 45 8.68 45 8 C44.3709375 8.01160156 43.741875 8.02320312 43.09375 8.03515625 C37.61930912 8.09286873 32.41542194 7.80228473 27 7 C27 7.66 27 8.32 27 9 C28.32 9 29.64 9 31 9 C31.33 9.99 31.66 10.98 32 12 C25.19105977 10.59918425 18.65977228 8.74613686 12.0625 6.5625 C11.11826172 6.26279297 10.17402344 5.96308594 9.20117188 5.65429688 C8.30076172 5.35716797 7.40035156 5.06003906 6.47265625 4.75390625 C5.66062744 4.48908447 4.84859863 4.2242627 4.01196289 3.95141602 C2 3 2 3 0 0 Z " fill="#5EA6D5" transform="translate(13,119)"/>
<path d="M0 0 C3.73487777 0.4979837 5.81237635 0.87491756 9 3 C9.28601949 6.08012614 9.37789828 8.95822922 9.34057617 12.03955078 C9.34123329 13.44450302 9.34123329 13.44450302 9.34190369 14.87783813 C9.33980819 17.98387259 9.31644122 21.08937196 9.29296875 24.1953125 C9.28737551 26.34479477 9.28310413 28.49428086 9.28010559 30.64376831 C9.26863547 36.30904649 9.2391496 41.97409498 9.20599365 47.63928223 C9.17533946 53.41704195 9.16161021 59.19483869 9.14648438 64.97265625 C9.11428202 76.31520524 9.0630595 87.65758354 9 99 C6.90163996 100.03271642 4.79609109 101.05083717 2.6875 102.0625 C1.51574219 102.63097656 0.34398438 103.19945312 -0.86328125 103.78515625 C-4 105 -4 105 -7 104 C-6.175 103.525625 -5.35 103.05125 -4.5 102.5625 C-3.2625 101.7890625 -3.2625 101.7890625 -2 101 C-2 100.67 -2 100.34 -2 100 C-0.35 100 1.3 100 3 100 C3 99.34 3 98.68 3 98 C3.99 98 4.98 98 6 98 C6.33 66.65 6.66 35.3 7 3 C5.02 3 3.04 3 1 3 C0.67 2.01 0.34 1.02 0 0 Z " fill="#94C9E2" transform="translate(125,39)"/>
<path d="M0 0 C7.875 1.125 7.875 1.125 11.9375 3.0625 C13.09572266 3.60583984 13.09572266 3.60583984 14.27734375 4.16015625 C14.84582031 4.43730469 15.41429688 4.71445312 16 5 C14.125 6.0625 14.125 6.0625 12 7 C11.34 6.67 10.68 6.34 10 6 C10 5.34 10 4.68 10 4 C7.36 3.67 4.72 3.34 2 3 C2.00222061 4.23805893 2.00444122 5.47611786 2.00672913 6.75169373 C2.02695854 18.39185222 2.04197117 30.03200717 2.05181217 41.67217922 C2.05704151 47.65719266 2.06414008 53.64219196 2.07543945 59.62719727 C2.08626653 65.39783429 2.09227645 71.16845768 2.09487724 76.93910408 C2.09673182 79.14602943 2.10035304 81.352954 2.10573006 83.55987358 C2.1129381 86.63946041 2.11399104 89.71899014 2.11352539 92.79858398 C2.11712067 93.72071182 2.12071594 94.64283966 2.12442017 95.59291077 C2.11405216 101.88594784 2.11405216 101.88594784 1 103 C-0.66617115 103.04063832 -2.33388095 103.042721 -4 103 C-2.02 102.505 -2.02 102.505 0 102 C0 68.34 0 34.68 0 0 Z " fill="#78B8DF" transform="translate(102,30)"/>
<path d="M0 0 C1.29550781 -0.02578125 2.59101562 -0.0515625 3.92578125 -0.078125 C10.58068857 0.50236536 14.26322803 3.4353511 18.6875 8.25 C18.3575 8.91 18.0275 9.57 17.6875 10.25 C16.6975 9.59 15.7075 8.93 14.6875 8.25 C14.6875 8.91 14.6875 9.57 14.6875 10.25 C13.6975 10.25 12.7075 10.25 11.6875 10.25 C11.3575 10.91 11.0275 11.57 10.6875 12.25 C9.6975 11.59 8.7075 10.93 7.6875 10.25 C3.36463648 9.60530293 -1.27544113 9.22534714 -5.26171875 11.23046875 C-8.04652082 13.51021855 -10.32101723 16.26277585 -12.3125 19.25 C-13.0625 16.5 -13.0625 16.5 -13.3125 13.25 C-11.17085656 10.0803677 -9.79871179 9.36220272 -6.0625 8.5 C-5.155 8.4175 -4.2475 8.335 -3.3125 8.25 C-3.3125 7.59 -3.3125 6.93 -3.3125 6.25 C-2.3225 5.92 -1.3325 5.59 -0.3125 5.25 C0.0175 4.59 0.3475 3.93 0.6875 3.25 C-5.07426967 2.95197743 -8.17533462 3.38274491 -13.3125 6.25 C-14.3025 6.25 -15.2925 6.25 -16.3125 6.25 C-10.68836047 1.37574574 -7.6574331 0.09088941 0 0 Z " fill="#1482CD" transform="translate(511.3125,66.75)"/>
<path d="M0 0 C2.23828125 1.3125 2.23828125 1.3125 4.3125 3 C5.00988281 3.556875 5.70726562 4.11375 6.42578125 4.6875 C6.94527344 5.120625 7.46476562 5.55375 8 6 C7.67 6.99 7.34 7.98 7 9 C6.34 9 5.68 9 5 9 C4.67 9.99 4.34 10.98 4 12 C4.66 12 5.32 12 6 12 C6 13.32 6 14.64 6 16 C6.99 16.33 7.98 16.66 9 17 C7.52357373 22.22654901 4.17768064 25.16826439 0.375 28.8125 C-0.54152344 29.7087207 -0.54152344 29.7087207 -1.4765625 30.62304688 C-2.97764839 32.08895106 -4.48792862 33.54542993 -6 35 C-3.36 35.33 -0.72 35.66 2 36 C0.875 37.5625 0.875 37.5625 -1 39 C-3.99775644 38.75528519 -6.30677828 38.34661086 -9 37 C-7.67879172 34.06769807 -6.25361803 32.01335101 -3.9609375 29.765625 C-3.38085938 29.19199219 -2.80078125 28.61835937 -2.203125 28.02734375 C-1.59984375 27.44082031 -0.9965625 26.85429688 -0.375 26.25 C0.23601563 25.64800781 0.84703125 25.04601562 1.4765625 24.42578125 C2.97988624 22.94594695 4.48934856 21.47235324 6 20 C4.88066638 16.64199915 3.97594556 15.8943549 1.3125 13.6875 C-2.31751335 10.61343464 -5.67903572 7.40398838 -9 4 C-8.67 3.01 -8.34 2.02 -8 1 C-4.97181393 -0.00939536 -3.1516366 -0.3051509 0 0 Z " fill="#4C9FD5" transform="translate(29,62)"/>
<path d="M0 0 C2.31 0 4.62 0 7 0 C7.1746354 3.89526499 7.28096492 7.7895219 7.375 11.6875 C7.42527344 12.79029297 7.47554687 13.89308594 7.52734375 15.02929688 C7.67307052 23.06855724 7.67307052 23.06855724 5.63769531 25.88525391 C3.9765625 27.26953125 3.9765625 27.26953125 1 29 C0 28 0 28 -0.11352539 25.31616211 C-0.10828857 24.14835205 -0.10305176 22.98054199 -0.09765625 21.77734375 C-0.09443359 20.51728516 -0.09121094 19.25722656 -0.08789062 17.95898438 C-0.07953403 16.61848891 -0.07106907 15.27799412 -0.0625 13.9375 C-0.0574866 12.59310058 -0.05292342 11.2486994 -0.04882812 9.90429688 C-0.03699488 6.60282059 -0.02050971 3.30143197 0 0 Z " fill="#0179CC" transform="translate(531,47)"/>
<path d="M0 0 C0.66 0 1.32 0 2 0 C2.33 1.32 2.66 2.64 3 4 C3.99 4 4.98 4 6 4 C6 4.66 6 5.32 6 6 C5.030625 6.45375 4.06125 6.9075 3.0625 7.375 C-0.07079582 8.65786221 -0.07079582 8.65786221 -1 11 C0.32 10.67 1.64 10.34 3 10 C3.05423638 11.91635217 3.09289963 13.83314925 3.125 15.75 C3.14820313 16.81734375 3.17140625 17.8846875 3.1953125 18.984375 C3.0011694 21.98194443 2.34529929 23.3998417 1 26 C1.33 26.99 1.66 27.98 2 29 C-2 29 -2 29 -3.74609375 27.8671875 C-5.52874171 25.21265254 -5.22411294 23.28630687 -5.0625 20.125 C-4.84915307 15.75959364 -5.25966729 12.99531634 -7 9 C-7 8.01 -7 7.02 -7 6 C-6.21625 5.7525 -5.4325 5.505 -4.625 5.25 C-1.67682892 3.84610901 -1.0975223 2.99324263 0 0 Z " fill="#067BCB" transform="translate(252,54)"/>
<path d="M0 0 C1.13115234 -0.00483398 1.13115234 -0.00483398 2.28515625 -0.00976562 C6.11655972 0.02766372 7.99522036 0.1426469 11.25 2.3125 C8.48434618 3.23438461 6.86716298 3.43035222 4.01953125 3.41015625 C3.21708984 3.40693359 2.41464844 3.40371094 1.58789062 3.40039062 C0.33782227 3.38782227 0.33782227 3.38782227 -0.9375 3.375 C-2.2049707 3.36823242 -2.2049707 3.36823242 -3.49804688 3.36132812 C-5.58206155 3.34955403 -7.66603977 3.3316189 -9.75 3.3125 C-10.08 4.6325 -10.41 5.9525 -10.75 7.3125 C-8.833412 7.33962153 -6.9167127 7.35895097 -5 7.375 C-3.93265625 7.38660156 -2.8653125 7.39820312 -1.765625 7.41015625 C1.1438438 7.42373056 1.1438438 7.42373056 3.46875 6.75 C6.13002254 6.09635411 7.84341298 7.17605613 10.25 8.3125 C6.69653915 10.54858024 4.00307449 10.40881868 -0.125 10.1875 C-4.21519801 10.14169711 -6.50220371 10.20816472 -10.3125 11.8125 C-13.393034 14.97202205 -15.07853948 18.26166627 -16.75 22.3125 C-17.08 22.3125 -17.41 22.3125 -17.75 22.3125 C-17.75 20.0025 -17.75 17.6925 -17.75 15.3125 C-17.09 15.3125 -16.43 15.3125 -15.75 15.3125 C-16.41 13.3325 -17.07 11.3525 -17.75 9.3125 C-18.678125 10.3025 -18.678125 10.3025 -19.625 11.3125 C-21.75 13.3125 -21.75 13.3125 -23.75 13.3125 C-23.75 14.3025 -23.75 15.2925 -23.75 16.3125 C-24.41 16.3125 -25.07 16.3125 -25.75 16.3125 C-24.53506023 10.08593369 -20.80912415 6.76608392 -15.75 3.3125 C-10.29683026 0.45702203 -6.00150418 -0.13092287 0 0 Z " fill="#4196CB" transform="translate(584.75,66.6875)"/>
<path d="M0 0 C0.86931152 0.01047363 1.73862305 0.02094727 2.63427734 0.03173828 C3.57529297 0.03818359 4.51630859 0.04462891 5.48583984 0.05126953 C6.47068359 0.06802734 7.45552734 0.08478516 8.47021484 0.10205078 C9.46279297 0.11107422 10.45537109 0.12009766 11.47802734 0.12939453 C13.93399618 0.15300962 16.38948653 0.18594279 18.84521484 0.22705078 C18.51521484 1.54705078 18.18521484 2.86705078 17.84521484 4.22705078 C18.60833984 4.35080078 19.37146484 4.47455078 20.15771484 4.60205078 C22.84521484 5.22705078 22.84521484 5.22705078 25.84521484 7.22705078 C24.85521484 8.54705078 23.86521484 9.86705078 22.84521484 11.22705078 C18.46662229 10.72182856 16.0287026 8.04877857 12.84521484 5.22705078 C12.51521484 5.55705078 12.18521484 5.88705078 11.84521484 6.22705078 C9.31472082 6.30018645 6.81216648 6.31952605 4.28271484 6.28955078 C3.57179688 6.28503906 2.86087891 6.28052734 2.12841797 6.27587891 C0.36731471 6.26405942 -1.39374552 6.24612341 -3.15478516 6.22705078 C-3.77978516 4.35205078 -3.77978516 4.35205078 -4.15478516 2.22705078 C-2.15478516 0.22705078 -2.15478516 0.22705078 0 0 Z " fill="#0479C9" transform="translate(577.15478515625,68.77294921875)"/>
<path d="M0 0 C0 3.96 0 7.92 0 12 C-8.75 17 -8.75 17 -11 17 C-11 15.35 -11 13.7 -11 12 C-10.34 12 -9.68 12 -9 12 C-9 11.34 -9 10.68 -9 10 C-10.794375 10.2784375 -10.794375 10.2784375 -12.625 10.5625 C-19.1126167 11.30987344 -25.52243156 10.59892169 -32 10 C-32 9.67 -32 9.34 -32 9 C-31.03320312 8.97421875 -30.06640625 8.9484375 -29.0703125 8.921875 C-18.86933914 8.47747616 -7.95066618 0 0 0 Z M-20 11 C-18 12 -18 12 -18 12 Z " fill="#1582CA" transform="translate(410,111)"/>
<path d="M0 0 C0.33 0 0.66 0 1 0 C1.01417969 1.03898437 1.02835937 2.07796875 1.04296875 3.1484375 C1.28318887 11.63044724 1.7657874 18.92191705 7 26 C10.98163824 29.64983505 15.80410614 29.67171912 21 30 C21 30.33 21 30.66 21 31 C19.06280622 31.05406122 17.12518079 31.09282025 15.1875 31.125 C14.10855469 31.14820312 13.02960938 31.17140625 11.91796875 31.1953125 C9 31 9 31 6 29 C3.84725052 29.30840599 3.84725052 29.30840599 2 30 C2 31.65 2 33.3 2 35 C-1.82612703 33.49687867 -3.70091967 31.37198449 -6 28 C-7.25 24.6875 -7.25 24.6875 -8 22 C-7.34 22 -6.68 22 -6 22 C-6 22.66 -6 23.32 -6 24 C-5.34 24 -4.68 24 -4 24 C-3.67 25.65 -3.34 27.3 -3 29 C-2.34 28.34 -1.68 27.68 -1 27 C-1.3185177 24.89179203 -1.3185177 24.89179203 -2 23 C-1.34 22.67 -0.68 22.34 0 22 C0 14.74 0 7.48 0 0 Z " fill="#3996D2" transform="translate(431,91)"/>
<path d="M0 0 C2 1 2 1 3.0703125 3.625 C5.17008562 10.34427398 6.47721395 15.96109418 6 23 C5.67 23 5.34 23 5 23 C4.67 20.69 4.34 18.38 4 16 C1.64046906 18.35953094 1.50858587 19.77895617 1 23 C0.01 22.34 -0.98 21.68 -2 21 C-2.66 21.66 -3.32 22.32 -4 23 C-4.19476139 20.39619004 -4.38108614 17.79224467 -4.5625 15.1875 C-4.61857422 14.44951172 -4.67464844 13.71152344 -4.73242188 12.95117188 C-4.95769724 9.63211484 -5.06255812 7.18767436 -4 4 C-2.35 4 -0.7 4 1 4 C0.67 2.68 0.34 1.36 0 0 Z " fill="#0778C6" transform="translate(469,81)"/>
<path d="M0 0 C1.32 0.33 2.64 0.66 4 1 C4.12655795 8.63531845 4.21424963 16.27036751 4.2746582 23.90649414 C4.29983503 26.50522977 4.33397866 29.10389438 4.37719727 31.70239258 C4.4377059 35.43328348 4.46617877 39.16324003 4.48828125 42.89453125 C4.51408768 44.06023148 4.5398941 45.2259317 4.56648254 46.42695618 C4.5668602 47.50785019 4.56723785 48.5887442 4.56762695 49.70239258 C4.57873001 50.65503494 4.58983307 51.60767731 4.60127258 52.58918762 C4 55 4 55 1.59733582 56.75297546 C0.740215 57.16449356 -0.11690582 57.57601166 -1 58 C-1.70125 58.4125 -2.4025 58.825 -3.125 59.25 C-5 60 -5 60 -8 59 C-7.34 59 -6.68 59 -6 59 C-6 58.01 -6 57.02 -6 56 C-3.36 55.67 -0.72 55.34 2 55 C2 37.18 2 19.36 2 1 C1.34 0.67 0.68 0.34 0 0 Z " fill="#8DC4E7" transform="translate(85,53)"/>
<path d="M0 0 C1.375 2.5 1.375 2.5 2 5 C2.33 5.66 2.66 6.32 3 7 C0.03 6.505 0.03 6.505 -3 6 C-3 6.66 -3 7.32 -3 8 C-8.28 6.68 -13.56 5.36 -19 4 C-18.34 2.35 -17.68 0.7 -17 -1 C-11.21431266 -2.92856245 -5.60038199 -2.30603964 0 0 Z " fill="#017ACD" transform="translate(282,85)"/>
<path d="M0 0 C0.74507813 0.00902344 1.49015625 0.01804687 2.2578125 0.02734375 C4.08868059 0.05081642 5.91938238 0.08668475 7.75 0.125 C8.08 1.115 8.41 2.105 8.75 3.125 C7.1 3.455 5.45 3.785 3.75 4.125 C3.75 5.115 3.75 6.105 3.75 7.125 C1.29203147 7.31936491 -1.16609294 7.5057742 -3.625 7.6875 C-4.32367188 7.74357422 -5.02234375 7.79964844 -5.7421875 7.85742188 C-11.0234375 8.23828125 -11.0234375 8.23828125 -13.25 7.125 C-13 4.75 -13 4.75 -12.25 2.125 C-8.60712545 -0.62574201 -4.34583506 -0.099816 0 0 Z " fill="#0678C6" transform="translate(449.25,67.875)"/>
<path d="M0 0 C2.63550644 3.95325966 4.04954072 8.12129979 5.6875 12.5625 C6.02072266 13.43841797 6.35394531 14.31433594 6.69726562 15.21679688 C7.00728516 16.05404297 7.31730469 16.89128906 7.63671875 17.75390625 C7.92248779 18.52033447 8.20825684 19.2867627 8.50268555 20.07641602 C9 22 9 22 8 24 C7.01 23.34 6.02 22.68 5 22 C2.4294599 25.4710916 2.4294599 25.4710916 2.4375 29.625 C2.623125 30.40875 2.80875 31.1925 3 32 C2.34 32.99 1.68 33.98 1 35 C-0.03028044 32.54524486 -1.04945504 30.08685649 -2.0625 27.625 C-2.35705078 26.92632812 -2.65160156 26.22765625 -2.95507812 25.5078125 C-3.69591098 23.69495092 -4.35396964 21.84876857 -5 20 C-4.67 19.34 -4.34 18.68 -4 18 C-3.34 18.33 -2.68 18.66 -2 19 C-1.67 19.99 -1.34 20.98 -1 22 C-0.01 20.02 0.98 18.04 2 16 C2.66 16 3.32 16 4 16 C3.57576756 14.53775201 3.13509755 13.08026588 2.6875 11.625 C2.32205078 10.40683594 2.32205078 10.40683594 1.94921875 9.1640625 C1.08631815 6.66815371 1.08631815 6.66815371 -2 5 C-1.34 3.35 -0.68 1.7 0 0 Z " fill="#3290CD" transform="translate(182,67)"/>
<path d="M0 0 C0 3 0 3 -1.4375 5.125 C-5.08170853 7.79149405 -8.57916989 7.81107564 -13 8 C-13.33 8.99 -13.66 9.98 -14 11 C-14.66 11.66 -15.32 12.32 -16 13 C-11.71 13 -7.42 13 -3 13 C-8.23871692 16.49247794 -14.89831123 15.55411324 -21 15 C-23.89873095 13.97587079 -25.55686685 12.90683563 -28 11 C-25 9 -25 9 -22.9375 8.625 C-20.79331795 8.16676943 -20.79331795 8.16676943 -19.75 5.9375 C-19.37875 4.9784375 -19.37875 4.9784375 -19 4 C-18.34 4.33 -17.68 4.66 -17 5 C-10.26438611 5.78278272 -10.26438611 5.78278272 -3.94140625 3.8828125 C-2.12162007 2.39409872 -2.12162007 2.39409872 0 0 Z " fill="#3A97D5" transform="translate(525,115)"/>
<path d="M0 0 C0.495 0.48984375 0.99 0.9796875 1.5 1.484375 C4.94632078 3.57370697 8.09857063 3.36308491 12 3.25 C12.7115625 3.24484375 13.423125 3.2396875 14.15625 3.234375 C17.56192078 3.18354409 20.74430936 3.05131677 24 2 C24.33 2.66 24.66 3.32 25 4 C24.01 4.495 24.01 4.495 23 5 C23 6.32 23 7.64 23 9 C20.36 9 17.72 9 15 9 C14.67 8.01 14.34 7.02 14 6 C11.03 6 8.06 6 5 6 C5 6.99 5 7.98 5 9 C-0.75 10.125 -0.75 10.125 -3 9 C-3.75 6.0625 -3.75 6.0625 -4 3 C-3.34 2.34 -2.68 1.68 -2 1 C-1.67 1.33 -1.34 1.66 -1 2 C-0.67 1.34 -0.34 0.68 0 0 Z " fill="#167DC5" transform="translate(436,118)"/>
<path d="M0 0 C0.88647217 -0.01015137 1.77294434 -0.02030273 2.6862793 -0.03076172 C8.75262249 0.04919936 13.81013387 1.18603893 19.4375 3.4375 C18.4375 5.4375 18.4375 5.4375 16.625 6.25 C13.62305821 6.5073093 12.79138946 5.23753312 10.4375 3.4375 C6.17223968 2.50946786 2.04490426 2.27510025 -2.3125 2.25 C-4.00632812 2.22873047 -4.00632812 2.22873047 -5.734375 2.20703125 C-8.6979444 2.14138604 -8.6979444 2.14138604 -10.5625 4.4375 C-12.22916667 4.77083333 -13.89583333 5.10416667 -15.5625 5.4375 C-16.2225 6.0975 -16.8825 6.7575 -17.5625 7.4375 C-18.5525 7.1075 -19.5425 6.7775 -20.5625 6.4375 C-20.830625 7.05625 -21.09875 7.675 -21.375 8.3125 C-22.5625 10.4375 -22.5625 10.4375 -25.5625 12.4375 C-26.5525 12.4375 -27.5425 12.4375 -28.5625 12.4375 C-28.5625 13.0975 -28.5625 13.7575 -28.5625 14.4375 C-29.2225 14.4375 -29.8825 14.4375 -30.5625 14.4375 C-27.92671539 8.32247971 -22.15987005 4.9912852 -16.375 2.0625 C-11.01464583 0.06697875 -5.65378456 0.04624974 0 0 Z " fill="#4B98CC" transform="translate(384.5625,46.5625)"/>
<path d="M0 0 C1.98 0.66 3.96 1.32 6 2 C6 5.96 6 9.92 6 14 C2.810569 12.7242276 -0.10397514 11.49540106 -3.125 9.9375 C-6.93348663 7.97398063 -10.15195408 6.88547867 -14.44921875 6.68359375 C-15.29677734 6.64169922 -16.14433594 6.59980469 -17.01757812 6.55664062 C-17.89865234 6.51732422 -18.77972656 6.47800781 -19.6875 6.4375 C-21.02651367 6.37272461 -21.02651367 6.37272461 -22.39257812 6.30664062 C-24.59490108 6.20064647 -26.79733473 6.09857949 -29 6 C-29 5.34 -29 4.68 -29 4 C-25.72924117 3.9419524 -22.45861476 3.90638835 -19.1875 3.875 C-18.25873047 3.85824219 -17.32996094 3.84148438 -16.37304688 3.82421875 C-15.48037109 3.81777344 -14.58769531 3.81132813 -13.66796875 3.8046875 C-12.84578857 3.79421387 -12.0236084 3.78374023 -11.17651367 3.77294922 C-9 4 -9 4 -6 6 C-3.35982365 6.81779841 -0.69729409 7.3809489 2 8 C2.66 6.68 3.32 5.36 4 4 C3.01 4.33 2.02 4.66 1 5 C0.67 3.35 0.34 1.7 0 0 Z " fill="#3D92CA" transform="translate(404,51)"/>
<path d="M0 0 C0.74958984 0.00451172 1.49917969 0.00902344 2.27148438 0.01367188 C4.11852383 0.02543646 5.96552213 0.04337135 7.8125 0.0625 C7.8125 0.3925 7.8125 0.7225 7.8125 1.0625 C6.77609375 1.12308594 5.7396875 1.18367188 4.671875 1.24609375 C3.30207127 1.33053371 1.93228025 1.41517997 0.5625 1.5 C-0.46037109 1.55897461 -0.46037109 1.55897461 -1.50390625 1.61914062 C-4.83198041 1.82916472 -7.99005402 2.08184002 -11.1875 3.0625 C-11.5175 4.7125 -11.8475 6.3625 -12.1875 8.0625 C-9.8775 8.3925 -7.5675 8.7225 -5.1875 9.0625 C-5.909375 9.51625 -6.63125 9.97 -7.375 10.4375 C-11.2488998 14.05313981 -13.04093944 18.27612666 -15.1875 23.0625 C-16.99832059 19.78381726 -17.14305694 18.64583853 -16.1875 15.0625 C-16.8475 14.4025 -17.5075 13.7425 -18.1875 13.0625 C-16.2075 12.4025 -14.2275 11.7425 -12.1875 11.0625 C-13.1775 10.4025 -14.1675 9.7425 -15.1875 9.0625 C-15.1875 8.4025 -15.1875 7.7425 -15.1875 7.0625 C-16.5075 6.7325 -17.8275 6.4025 -19.1875 6.0625 C-17.91918307 5.24607746 -16.64774069 4.43450895 -15.375 3.625 C-14.66730469 3.17253906 -13.95960938 2.72007813 -13.23046875 2.25390625 C-8.90717378 -0.26732695 -4.84420344 -0.05499969 0 0 Z " fill="#3692CE" transform="translate(448.1875,66.9375)"/>
<path d="M0 0 C3.97429913 0.79485983 7.49782833 1.76299646 11.3125 3.0625 C12.38113281 3.42472656 13.44976562 3.78695312 14.55078125 4.16015625 C15.76314453 4.57587891 15.76314453 4.57587891 17 5 C17 5.33 17 5.66 17 6 C15.02 6 13.04 6 11 6 C11.33 6.33 11.66 6.66 12 7 C12 7.66 12 8.32 12 9 C9.36 9 6.72 9 4 9 C4 9.66 4 10.32 4 11 C4.99 11.33 5.98 11.66 7 12 C4.69 12 2.38 12 0 12 C0 8.04 0 4.08 0 0 Z " fill="#0F76BB" transform="translate(244,114)"/>
<path d="M0 0 C0 3.3 0 6.6 0 10 C-6.87581298 12.1591338 -12.78528371 13.35482211 -20 13 C-20 12.67 -20 12.34 -20 12 C-19.03578125 11.79503906 -18.0715625 11.59007812 -17.078125 11.37890625 C-15.81484375 11.10949219 -14.5515625 10.84007813 -13.25 10.5625 C-11.99703125 10.29566406 -10.7440625 10.02882813 -9.453125 9.75390625 C-6.95442915 9.2083765 -4.47446899 8.64361188 -2 8 C-2.33 6.35 -2.66 4.7 -3 3 C-3.99 3.66 -4.98 4.32 -6 5 C-8.36010742 5.22705078 -8.36010742 5.22705078 -11.10546875 5.1953125 C-12.08837891 5.18886719 -13.07128906 5.18242188 -14.08398438 5.17578125 C-15.10814453 5.15902344 -16.13230469 5.14226562 -17.1875 5.125 C-18.22326172 5.11597656 -19.25902344 5.10695313 -20.32617188 5.09765625 C-22.88434685 5.0740786 -25.44205748 5.0411703 -28 5 C-28 4.67 -28 4.34 -28 4 C-26.94941406 3.96261719 -25.89882813 3.92523438 -24.81640625 3.88671875 C-16.45174479 3.51913984 -7.90229085 0 0 0 Z " fill="#67AAD4" transform="translate(609,117)"/>
<path d="M0 0 C0.66 0 1.32 0 2 0 C3.52940159 10.64380837 3.52940159 10.64380837 1 15 C0.67 15.33 0.34 15.66 0 16 C2.64 16.99 5.28 17.98 8 19 C6.61122646 22.35620271 5.08322035 24.07298728 2 26 C1.34 26 0.68 26 0 26 C0.33 23.69 0.66 21.38 1 19 C-1.64 18.67 -4.28 18.34 -7 18 C-6.21625 17.2575 -5.4325 16.515 -4.625 15.75 C-1.77094062 12.76003304 -0.14857249 10.79475573 0.1953125 6.640625 C0.17210937 5.85171875 0.14890625 5.0628125 0.125 4.25 C0.10695313 3.45078125 0.08890625 2.6515625 0.0703125 1.828125 C0.04710937 1.22484375 0.02390625 0.6215625 0 0 Z " fill="#298BC9" transform="translate(287,101)"/>
<path d="M0 0 C3.98363358 1.32787786 6.10630834 3.00985195 9 6 C9.99 6.33 10.98 6.66 12 7 C12.33 7.99 12.66 8.98 13 10 C11.625 11.5 11.625 11.5 10 13 C9.34 13 8.68 13 8 13 C7.01 13.495 7.01 13.495 6 14 C0.07017544 8.07017544 0.07017544 8.07017544 -0.25 3.1875 C-0.1675 2.135625 -0.085 1.08375 0 0 Z " fill="#017BCF" transform="translate(493,112)"/>
<path d="M0 0 C-0.33 1.32 -0.66 2.64 -1 4 C0.98 4.99 2.96 5.98 5 7 C4.59007812 7.44730469 4.18015625 7.89460938 3.7578125 8.35546875 C0.74359926 11.73744485 -1.66050545 14.579668 -3 19 C-3.33 19 -3.66 19 -4 19 C-4 16.69 -4 14.38 -4 12 C-3.34 12 -2.68 12 -2 12 C-2.66 10.02 -3.32 8.04 -4 6 C-4.928125 6.99 -4.928125 6.99 -5.875 8 C-8 10 -8 10 -10 10 C-10 10.99 -10 11.98 -10 13 C-10.66 13 -11.32 13 -12 13 C-10.97359462 7.73967244 -6.06649671 0 0 0 Z " fill="#4C9DD1" transform="translate(571,70)"/>
<path d="M0 0 C0.86625 0.2784375 0.86625 0.2784375 1.75 0.5625 C3.99032525 1.16768484 3.99032525 1.16768484 6.125 0.4375 C6.74375 0.293125 7.3625 0.14875 8 0 C10 2 10 2 11 4 C10.67 4.99 10.34 5.98 10 7 C10.66 7 11.32 7 12 7 C12 7.66 12 8.32 12 9 C12.99 9.33 13.98 9.66 15 10 C15.6875 12.0625 15.6875 12.0625 16 14 C14.68 13.67 13.36 13.34 12 13 C12 12.34 12 11.68 12 11 C11.236875 10.938125 10.47375 10.87625 9.6875 10.8125 C6.14563333 9.7417031 5.82254259 8.09039831 4 5 C2.68 5 1.36 5 0 5 C0 3.35 0 1.7 0 0 Z " fill="#027ACC" transform="translate(356,113)"/>
<path d="M0 0 C3 2 3 2 3.58203125 4.20703125 C4.01433022 9.09420777 4.24415754 12.51168492 2 17 C1.62406934 18.9924325 1.28020455 20.9918674 1 23 C0.01 23 -0.98 23 -2 23 C-2 24.65 -2 26.3 -2 28 C-4.31 28.99 -6.62 29.98 -9 31 C-9.66 30.34 -10.32 29.68 -11 29 C-10.0925 28.525625 -9.185 28.05125 -8.25 27.5625 C-3.95260883 24.6061387 -2.27127541 20.98526326 -1 16 C-0.29927008 10.69147971 -0.13123839 5.3479645 0 0 Z M-2 26 C0 27 0 27 0 27 Z " fill="#3C97D3" transform="translate(464,91)"/>
<path d="M0 0 C-0.99 1.485 -0.99 1.485 -2 3 C-1.67 3.99 -1.34 4.98 -1 6 C-3.12368444 6.22134176 -5.24904024 6.42670007 -7.375 6.625 C-8.55835938 6.74101562 -9.74171875 6.85703125 -10.9609375 6.9765625 C-11.96382813 6.98429688 -12.96671875 6.99203125 -14 7 C-14.66 6.34 -15.32 5.68 -16 5 C-15.360625 4.71125 -14.72125 4.4225 -14.0625 4.125 C-11.84793921 3.17176549 -11.84793921 3.17176549 -11 1 C-11.66 0.67 -12.32 0.34 -13 0 C-11.20909747 -0.19466332 -9.41723495 -0.38051213 -7.625 -0.5625 C-6.12839844 -0.71912109 -6.12839844 -0.71912109 -4.6015625 -0.87890625 C-2 -1 -2 -1 0 0 Z " fill="#0279CD" transform="translate(523,122)"/>
<path d="M0 0 C1.32 0.99 2.64 1.98 4 3 C3.67 4.98 3.34 6.96 3 9 C2.34 9 1.68 9 1 9 C1 11.97 1 14.94 1 18 C-1 16.8125 -1 16.8125 -3 15 C-3.1875 12.5625 -3.1875 12.5625 -3 10 C-3.2475 9.360625 -3.495 8.72125 -3.75 8.0625 C-4.16634903 4.62762047 -1.98411123 2.64548164 0 0 Z " fill="#047ACA" transform="translate(187,88)"/>
<path d="M0 0 C1.60332791 -0.08121924 3.20784026 -0.13929134 4.8125 -0.1875 C6.15248047 -0.23970703 6.15248047 -0.23970703 7.51953125 -0.29296875 C10.41647515 0.04918998 11.22555028 0.75393573 13 3 C11.69675781 3.02126953 11.69675781 3.02126953 10.3671875 3.04296875 C2.87122719 3.10176429 2.87122719 3.10176429 -3.625 6.3125 C-5.54345386 8.483382 -7.39321025 10.58981538 -9 13 C-9.75 10.25 -9.75 10.25 -10 7 C-7.85835656 3.8303677 -6.48621179 3.11220272 -2.75 2.25 C-1.8425 2.1675 -0.935 2.085 0 2 C0 1.34 0 0.68 0 0 Z " fill="#3E95CD" transform="translate(508,73)"/>
<path d="M0 0 C0 1.65 0 3.3 0 5 C-1.32 4.67 -2.64 4.34 -4 4 C-4.66 6.31 -5.32 8.62 -6 11 C-9.3 11 -12.6 11 -16 11 C-12.63066274 6.17061659 -6.40926772 0 0 0 Z " fill="#107BC4" transform="translate(38,87)"/>
<path d="M0 0 C0.66 0 1.32 0 2 0 C3.96611502 4.04479388 4.11331236 6.86885748 3.625 11.3125 C3.51414063 12.38113281 3.40328125 13.44976562 3.2890625 14.55078125 C3.19367188 15.35902344 3.09828125 16.16726562 3 17 C3.99 17.33 4.98 17.66 6 18 C6.6875 20.0625 6.6875 20.0625 7 22 C7.66 22 8.32 22 9 22 C8.67 22.66 8.34 23.32 8 24 C3.87584413 21.10194452 1.89371172 18.66821959 0 14 C-0.29296875 10.3515625 -0.29296875 10.3515625 -0.1875 6.625 C-0.16042969 5.37976563 -0.13335937 4.13453125 -0.10546875 2.8515625 C-0.07066406 1.91054687 -0.03585938 0.96953125 0 0 Z " fill="#2B8ACA" transform="translate(244,63)"/>
<path d="M0 0 C0.66 0 1.32 0 2 0 C2.33 1.65 2.66 3.3 3 5 C3.61875 4.79375 4.2375 4.5875 4.875 4.375 C5.57625 4.25125 6.2775 4.1275 7 4 C9 6 9 6 10 9 C12.50447516 10.21869929 12.50447516 10.21869929 15 11 C15 11.66 15 12.32 15 13 C15.61875 13.12375 16.2375 13.2475 16.875 13.375 C19 14 19 14 21 16 C13.1013436 15.39241105 7.06390931 11.54032358 1.9375 5.6875 C0.94457423 4.46942099 -0.03990007 3.24411663 -1 2 C-0.67 1.34 -0.34 0.68 0 0 Z " fill="#4497CC" transform="translate(353,113)"/>
<path d="M0 0 C1 2 1 2 0.1875 4.875 C-0.75524181 7.3558995 -1.7442206 9.66783825 -3 12 C-3.66 12 -4.32 12 -5 12 C-4.98839844 12.82242188 -4.97679687 13.64484375 -4.96484375 14.4921875 C-4.90898042 21.40327971 -5.13305966 28.14188265 -6 35 C-6.33 35 -6.66 35 -7 35 C-8.63458742 22.74059438 -8.25970426 11.42159636 -1 1 C-0.67 0.67 -0.34 0.34 0 0 Z " fill="#4E9BCA" transform="translate(494,74)"/>
<path d="M0 0 C3.77545388 1.09068668 6.47043472 1.9083091 9 5 C6.69 5 4.38 5 2 5 C2 5.66 2 6.32 2 7 C1.34 7 0.68 7 0 7 C0 6.34 0 5.68 0 5 C-0.99 5.99 -1.98 6.98 -3 8 C-1.35 8.33 0.3 8.66 2 9 C1.34 9.66 0.68 10.32 0 11 C-0.55171875 10.68289062 -1.1034375 10.36578125 -1.671875 10.0390625 C-4.28477989 8.87290025 -6.40579002 8.59954289 -9.25 8.375 C-10.14203125 8.30023438 -11.0340625 8.22546875 -11.953125 8.1484375 C-12.96632813 8.07496094 -12.96632813 8.07496094 -14 8 C-14 7.67 -14 7.34 -14 7 C-13.37351562 6.97421875 -12.74703125 6.9484375 -12.1015625 6.921875 C-11.28429687 6.86515625 -10.46703125 6.8084375 -9.625 6.75 C-8.81289063 6.70359375 -8.00078125 6.6571875 -7.1640625 6.609375 C-4.81161073 6.2077908 -4.81161073 6.2077908 -3.7109375 3.953125 C-3.47632813 3.30859375 -3.24171875 2.6640625 -3 2 C-2.01 2 -1.02 2 0 2 C0 1.34 0 0.68 0 0 Z " fill="#459DD5" transform="translate(457,68)"/>
<path d="M0 0 C3.3 0 6.6 0 10 0 C10.33 0.99 10.66 1.98 11 3 C11.75925781 3.04898438 12.51851562 3.09796875 13.30078125 3.1484375 C14.29464844 3.22320312 15.28851563 3.29796875 16.3125 3.375 C17.79169922 3.47941406 17.79169922 3.47941406 19.30078125 3.5859375 C22 4 22 4 25 6 C25 6.66 25 7.32 25 8 C25.66 8.33 26.32 8.66 27 9 C20.63569826 7.68764148 14.57878972 5.98780585 8.4375 3.875 C7.61958984 3.59785156 6.80167969 3.32070312 5.95898438 3.03515625 C3.97123432 2.36094863 1.98540651 1.68107796 0 1 C0 0.67 0 0.34 0 0 Z " fill="#5FA7D6" transform="translate(45,131)"/>
<path d="M0 0 C3.624581 1.20819367 3.40170957 1.80341913 5 5 C3.68 5.99 2.36 6.98 1 8 C1.33 9.32 1.66 10.64 2 12 C0.125 12.625 0.125 12.625 -2 13 C-2.66 12.34 -3.32 11.68 -4 11 C-3.828125 8.65234375 -3.828125 8.65234375 -3.25 5.9375 C-3.06953125 5.03902344 -2.8890625 4.14054687 -2.703125 3.21484375 C-2.47109375 2.48394531 -2.2390625 1.75304687 -2 1 C-1.34 0.67 -0.68 0.34 0 0 Z " fill="#047AC9" transform="translate(431,73)"/>
<path d="M0 0 C3.465 1.485 3.465 1.485 7 3 C7 3.33 7 3.66 7 4 C5.54263913 4.19491452 4.08405407 4.38069358 2.625 4.5625 C1.81289063 4.66691406 1.00078125 4.77132812 0.1640625 4.87890625 C-2 5 -2 5 -4 4 C-4.33 5.32 -4.66 6.64 -5 8 C-8.57104439 6.12050295 -10.54744301 4.82946843 -12 1 C-7.53160785 0.78721942 -4.17737474 1.40861915 0 3 C0 2.01 0 1.02 0 0 Z " fill="#2A8CCE" transform="translate(573,117)"/>
<path d="M0 0 C0.33 0.99 0.66 1.98 1 3 C-3.62 7.62 -8.24 12.24 -13 17 C-10.36 17.33 -7.72 17.66 -5 18 C-6.125 19.5625 -6.125 19.5625 -8 21 C-10.99775644 20.75528519 -13.30677828 20.34661086 -16 19 C-14.68692751 16.08653407 -13.28818412 14.0549021 -10.99609375 11.8359375 C-10.42052734 11.27132812 -9.84496094 10.70671875 -9.25195312 10.125 C-8.65318359 9.5475 -8.05441406 8.97 -7.4375 8.375 C-6.24650616 7.21839849 -5.05759995 6.05964222 -3.87109375 4.8984375 C-3.34443115 4.38974121 -2.81776855 3.88104492 -2.27514648 3.35693359 C-0.8835783 2.00599895 -0.8835783 2.00599895 0 0 Z " fill="#9BCDEB" transform="translate(36,80)"/>
<path d="M0 0 C2.0625 0.4375 2.0625 0.4375 4 1 C4 1.99 4 2.98 4 4 C4.66 4.33 5.32 4.66 6 5 C5.01 5 4.02 5 3 5 C3 6.32 3 7.64 3 9 C0.1875 9.625 0.1875 9.625 -3 10 C-3.99 9.34 -4.98 8.68 -6 8 C-5.34 7.34 -4.68 6.68 -4 6 C-3.01 6 -2.02 6 -1 6 C-1.020625 5.195625 -1.04125 4.39125 -1.0625 3.5625 C-1 1 -1 1 0 0 Z " fill="#1582CC" transform="translate(284,119)"/>
<path d="M0 0 C8.64341319 1.18360253 16.72476987 3.25048805 25 6 C25 6.33 25 6.66 25 7 C16.23739998 6.64234286 8.34599058 4.61954449 0 2 C0 1.34 0 0.68 0 0 Z " fill="#519DCE" transform="translate(263,79)"/>
<path d="M0 0 C0.70189453 0.00451172 1.40378906 0.00902344 2.12695312 0.01367188 C3.85550538 0.02543073 5.58401365 0.04336546 7.3125 0.0625 C7.3125 0.7225 7.3125 1.3825 7.3125 2.0625 C5.79269531 2.11857422 5.79269531 2.11857422 4.2421875 2.17578125 C2.89059061 2.24148388 1.53902971 2.30792971 0.1875 2.375 C-0.81023437 2.40883789 -0.81023437 2.40883789 -1.828125 2.44335938 C-6.48448802 2.69443777 -9.62244447 3.86501346 -13.6875 6.0625 C-14.6775 6.0625 -15.6675 6.0625 -16.6875 6.0625 C-10.98396565 1.1194369 -7.64835058 -0.09283712 0 0 Z " fill="#3F8EC2" transform="translate(511.6875,66.9375)"/>
<path d="M0 0 C10.76734025 0.6346603 21.35549183 2.32119997 32 4 C32 4.33 32 4.66 32 5 C26.03740351 5.09606024 20.24048535 4.75195346 14.3125 4.125 C13.07016602 4.00705078 13.07016602 4.00705078 11.80273438 3.88671875 C7.54914625 3.4439914 3.89984981 2.8903549 0 1 C0 0.67 0 0.34 0 0 Z " fill="#B0D8F2" transform="translate(66,127)"/>
<path d="M0 0 C1.43836751 0.11458693 2.87570966 0.24209116 4.3125 0.375 C5.51326172 0.47941406 5.51326172 0.47941406 6.73828125 0.5859375 C9 1 9 1 12 3 C15.20379124 3.24246783 15.20379124 3.24246783 18.6875 3.125 C19.86699219 3.10695312 21.04648437 3.08890625 22.26171875 3.0703125 C23.16535156 3.04710937 24.06898438 3.02390625 25 3 C19.76128308 6.49247794 13.10168877 5.55411324 7 5 C4.10126905 3.97587079 2.44313315 2.90683563 0 1 C0 0.67 0 0.34 0 0 Z " fill="#4B9ACD" transform="translate(497,125)"/>
<path d="M0 0 C3.3 0.66 6.6 1.32 10 2 C10 2.33 10 2.66 10 3 C8.02 3 6.04 3 4 3 C4.33 3.33 4.66 3.66 5 4 C5 4.66 5 5.32 5 6 C2.36 6 -0.28 6 -3 6 C-3.33 6.66 -3.66 7.32 -4 8 C-4.33 6.68 -4.66 5.36 -5 4 C-3.35 3.34 -1.7 2.68 0 2 C0 1.34 0 0.68 0 0 Z " fill="#298DD1" transform="translate(251,117)"/>
<path d="M0 0 C0.66 0 1.32 0 2 0 C0.23536928 6.10737442 -1.69557475 12.07433507 -4 18 C-4.66 18 -5.32 18 -6 18 C-5.67 14.37 -5.34 10.74 -5 7 C-4.34 7 -3.68 7 -3 7 C-2.67 5.35 -2.34 3.7 -2 2 C-1.34 2 -0.68 2 0 2 C0 1.34 0 0.68 0 0 Z " fill="#3E91C8" transform="translate(213,105)"/>
<path d="M0 0 C0 1.98 0 3.96 0 6 C-4.455 5.01 -4.455 5.01 -9 4 C-8.67 2.68 -8.34 1.36 -8 0 C-4.71023192 -1.09658936 -3.28696233 -0.79953138 0 0 Z " fill="#0279CB" transform="translate(293,52)"/>
<path d="M0 0 C0.73154297 0.01353516 1.46308594 0.02707031 2.21679688 0.04101562 C3.99902422 0.07596126 5.78086573 0.12975195 7.5625 0.1875 C7.5625 0.5175 7.5625 0.8475 7.5625 1.1875 C6.52609375 1.24808594 5.4896875 1.30867188 4.421875 1.37109375 C3.05207127 1.45553371 1.68228025 1.54017997 0.3125 1.625 C-0.71037109 1.68397461 -0.71037109 1.68397461 -1.75390625 1.74414062 C-6.68597696 1.98923057 -6.68597696 1.98923057 -11.4375 3.1875 C-12.72186734 5.1712767 -12.72186734 5.1712767 -13.4375 7.1875 C-15.4175 7.1875 -17.3975 7.1875 -19.4375 7.1875 C-13.9689629 0.84399697 -7.93576694 -0.28316094 0 0 Z " fill="#539DCE" transform="translate(448.4375,66.8125)"/>
<path d="M0 0 C6.75 0 6.75 0 10.875 2 C11.65617187 2.37125 12.43734375 2.7425 13.2421875 3.125 C13.82226562 3.41375 14.40234375 3.7025 15 4 C13.125 5.0625 13.125 5.0625 11 6 C10.34 5.67 9.68 5.34 9 5 C9 4.34 9 3.68 9 3 C6.36 2.67 3.72 2.34 1 2 C1 6.95 1 11.9 1 17 C0.67 17 0.34 17 0 17 C0 11.39 0 5.78 0 0 Z " fill="#307FB6" transform="translate(103,31)"/>
<path d="M0 0 C0.66 0.66 1.32 1.32 2 2 C1.01 2.495 1.01 2.495 0 3 C0 4.32 0 5.64 0 7 C-2.64 7 -5.28 7 -8 7 C-8.33 5.68 -8.66 4.36 -9 3 C-6.03 2.01 -3.06 1.02 0 0 Z " fill="#017BCE" transform="translate(459,120)"/>
<path d="M0 0 C0.66 0 1.32 0 2 0 C2.0825 0.78375 2.165 1.5675 2.25 2.375 C2.72806339 5.14749104 2.72806339 5.14749104 5.0625 6.3125 C5.701875 6.539375 6.34125 6.76625 7 7 C7 7.99 7 8.98 7 10 C3.87709365 9.51421457 1.00419641 9.0013988 -2 8 C-1.34 5.36 -0.68 2.72 0 0 Z " fill="#0379CA" transform="translate(566,110)"/>
<path d="M0 0 C0.66 0 1.32 0 2 0 C2 9.24 2 18.48 2 28 C0.02 27.67 -1.96 27.34 -4 27 C-4 26.01 -4 25.02 -4 24 C-2.02 24.99 -2.02 24.99 0 26 C0.33 18.08 0.66 10.16 1 2 C0.34 1.67 -0.32 1.34 -1 1 C-0.67 0.67 -0.34 0.34 0 0 Z " fill="#7EB9E1" transform="translate(70,67)"/>
<path d="M0 0 C2.62027436 2.62027436 3.48198873 5.57923297 4.6875 9 C4.92533203 9.64195313 5.16316406 10.28390625 5.40820312 10.9453125 C6.00166907 12.60910558 6.50730517 14.30363299 7 16 C6.67 16.66 6.34 17.32 6 18 C4.5 16.8125 4.5 16.8125 3 15 C2.8125 12.3125 2.8125 12.3125 3 10 C2.34 10 1.68 10 1 10 C-0.60725635 6.78548731 -0.05748185 3.56387464 0 0 Z " fill="#4C9DD1" transform="translate(175,49)"/>
<path d="M0 0 C6.20970773 -0.33266291 10.28264895 0.54970669 16 3 C16 3.66 16 4.32 16 5 C16.66 5.33 17.32 5.66 18 6 C11.82777121 4.75971762 5.93317878 3.10396411 0 1 C0 0.67 0 0.34 0 0 Z " fill="#68ADDB" transform="translate(72,140)"/>
<path d="M0 0 C0.33 0 0.66 0 1 0 C1.02689216 1.47906892 1.04634621 2.95827483 1.0625 4.4375 C1.07410156 5.26121094 1.08570313 6.08492188 1.09765625 6.93359375 C1 9 1 9 0 10 C-0.23678716 12.69235776 -0.42198025 15.36498156 -0.5625 18.0625 C-0.60568359 18.82111328 -0.64886719 19.57972656 -0.69335938 20.36132812 C-0.79973633 22.24065438 -0.90039934 24.12030244 -1 26 C-1.33 26 -1.66 26 -2 26 C-3.23512608 17.67124441 -3.87816743 7.75633487 0 0 Z " fill="#55A0CF" transform="translate(558,83)"/>
<path d="M0 0 C0.2954439 5.02254631 -0.01485372 7.89542386 -3 12 C-5 10 -5 10 -5.375 6.5625 C-5 3 -5 3 -3.0625 1.0625 C-1 0 -1 0 0 0 Z " fill="#007AD2" transform="translate(359,69)"/>
<path d="M0 0 C1.29227198 4.19988393 0.50255809 6.86796526 -1 11 C-2.58513788 13.16155165 -3.58052683 13.834753 -6.0625 14.8125 C-6.701875 14.874375 -7.34125 14.93625 -8 15 C-8.66 14.34 -9.32 13.68 -10 13 C-9.0925 12.525625 -8.185 12.05125 -7.25 11.5625 C-3.00709379 8.79757297 -1.67267371 4.60477232 0 0 Z M-1 10 C1 11 1 11 1 11 Z " fill="#52A1D2" transform="translate(463,107)"/>
<path d="M0 0 C-0.99 1.485 -0.99 1.485 -2 3 C-1.67 3.99 -1.34 4.98 -1 6 C-2.98 6 -4.96 6 -7 6 C-7.33 4.68 -7.66 3.36 -8 2 C-9.65 1.67 -11.3 1.34 -13 1 C-13 0.67 -13 0.34 -13 0 C-11.20909747 -0.19466332 -9.41723495 -0.38051213 -7.625 -0.5625 C-6.12839844 -0.71912109 -6.12839844 -0.71912109 -4.6015625 -0.87890625 C-2 -1 -2 -1 0 0 Z " fill="#0977C1" transform="translate(523,122)"/>
<path d="M0 0 C-0.33 0.99 -0.66 1.98 -1 3 C-8.42838645 4.33710956 -15.51404207 3.68340908 -23 3 C-23 2.67 -23 2.34 -23 2 C-21.95199219 1.93941406 -20.90398437 1.87882812 -19.82421875 1.81640625 C-18.44529952 1.73198262 -17.06639395 1.64733553 -15.6875 1.5625 C-14.99720703 1.52318359 -14.30691406 1.48386719 -13.59570312 1.44335938 C-8.89921542 1.14841087 -4.70311848 -0.12711131 0 0 Z M-11 4 C-9 5 -9 5 -9 5 Z " fill="#66B0DB" transform="translate(401,118)"/>
<path d="M0 0 C2.31 0 4.62 0 7 0 C7 3.63 7 7.26 7 11 C5.68 10.67 4.36 10.34 3 10 C2.67 9.34 2.34 8.68 2 8 C2.99 8 3.98 8 5 8 C5 6.02 5 4.04 5 2 C3.35 1.67 1.7 1.34 0 1 C0 0.67 0 0.34 0 0 Z " fill="#3888BF" transform="translate(288,50)"/>
<path d="M0 0 C2.75059381 -0.08107646 5.49879021 -0.14052813 8.25 -0.1875 C9.02730469 -0.21263672 9.80460937 -0.23777344 10.60546875 -0.26367188 C11.35957031 -0.27333984 12.11367188 -0.28300781 12.890625 -0.29296875 C13.92751465 -0.31653442 13.92751465 -0.31653442 14.98535156 -0.34057617 C17 0 17 0 21 3 C17.37 3 13.74 3 10 3 C10 2.34 10 1.68 10 1 C6.7 1 3.4 1 0 1 C0 0.67 0 0.34 0 0 Z " fill="#4194C9" transform="translate(48,126)"/>
<path d="M0 0 C7.75 -0.125 7.75 -0.125 10 1 C10 1.66 10 2.32 10 3 C8.02 3.33 6.04 3.66 4 4 C4 4.99 4 5.98 4 7 C1.525 6.01 1.525 6.01 -1 5 C-0.67 3.35 -0.34 1.7 0 0 Z " fill="#1F86CE" transform="translate(569,121)"/>
<path d="M0 0 C0.66 0 1.32 0 2 0 C2 3.96 2 7.92 2 12 C0.02 12.99 -1.96 13.98 -4 15 C-3.47838071 11.14001724 -2.69053485 9.69053485 0 7 C0.72197162 4.39388923 0.72197162 4.39388923 1 2 C0.34 1.67 -0.32 1.34 -1 1 C-0.67 0.67 -0.34 0.34 0 0 Z " fill="#519FD6" transform="translate(408,111)"/>
<path d="M0 0 C0.99 0.33 1.98 0.66 3 1 C6.03471439 8.08100023 6.1545283 15.42811306 6 23 C5.67 23 5.34 23 5 23 C4.70996094 21.38931641 4.70996094 21.38931641 4.4140625 19.74609375 C4.15122282 18.30986267 3.88819176 16.8736666 3.625 15.4375 C3.49867188 14.73302734 3.37234375 14.02855469 3.2421875 13.30273438 C2.40718633 8.77285303 1.33276044 4.40969867 0 0 Z " fill="#72B2D7" transform="translate(470,80)"/>
<path d="M0 0 C3.45925163 1.2491742 6.14693203 2.67527795 9 5 C8.67 5.66 8.34 6.32 8 7 C6.51793505 6.745504 5.03931385 6.47088238 3.5625 6.1875 C2.73878906 6.03667969 1.91507813 5.88585937 1.06640625 5.73046875 C0.38449219 5.48941406 -0.29742188 5.24835938 -1 5 C-1.33 4.01 -1.66 3.02 -2 2 C-1.34 1.34 -0.68 0.68 0 0 Z " fill="#3B93CE" transform="translate(596,69)"/>
<path d="M0 0 C1.98 0.495 1.98 0.495 4 1 C4.33 4.63 4.66 8.26 5 12 C3 10.25 3 10.25 1 8 C1 6.68 1 5.36 1 4 C0.34 4 -0.32 4 -1 4 C-0.67 2.68 -0.34 1.36 0 0 Z " fill="#0378C7" transform="translate(34,70)"/>
<path d="M0 0 C1.65 0.33 3.3 0.66 5 1 C3.87540329 2.77108948 2.75030797 4.54186236 1.625 6.3125 C0.99851562 7.29863281 0.37203125 8.28476563 -0.2734375 9.30078125 C-1.49651613 11.21287929 -2.7409356 13.1114034 -4 15 C-4 12.69 -4 10.38 -4 8 C-3.34 8 -2.68 8 -2 8 C-2 6.68 -2 5.36 -2 4 C-1.34 3.67 -0.68 3.34 0 3 C0 2.01 0 1.02 0 0 Z " fill="#419AD0" transform="translate(363,60)"/>
<path d="M0 0 C0.66 0 1.32 0 2 0 C3.60317339 11.15722023 3.60317339 11.15722023 1 15 C-1.125 15.8125 -1.125 15.8125 -3 16 C-2.505 15.030625 -2.01 14.06125 -1.5 13.0625 C0.39857367 8.71271619 0.28589988 4.66969796 0 0 Z " fill="#4B9ACD" transform="translate(287,101)"/>
<path d="M0 0 C0 1.65 0 3.3 0 5 C-1.32 4.67 -2.64 4.34 -4 4 C-4.33 5.32 -4.66 6.64 -5 8 C-6.65 7.67 -8.3 7.34 -10 7 C-10 6.34 -10 5.68 -10 5 C-8.52227402 4.1641146 -7.04277811 3.33135744 -5.5625 2.5 C-4.32693359 1.80390625 -4.32693359 1.80390625 -3.06640625 1.09375 C-1 0 -1 0 0 0 Z " fill="#017ACC" transform="translate(38,87)"/>
<path d="M0 0 C0.99 0 1.98 0 3 0 C2.40895235 4.84659077 1.02055843 8.60748167 -1 13 C-1.33 13 -1.66 13 -2 13 C-2.05447047 11.58376784 -2.09300508 10.16691809 -2.125 8.75 C-2.14820313 7.96109375 -2.17140625 7.1721875 -2.1953125 6.359375 C-1.9828378 3.79268059 -1.28654105 2.2083933 0 0 Z " fill="#4997CB" transform="translate(233,49)"/>
<path d="M0 0 C0.33 0.66 0.66 1.32 1 2 C0 4 -1 6 -2 8 C-2.70758326 11.2366963 -2.70758326 11.2366963 -3 14 C-3.99 14 -4.98 14 -6 14 C-5.57202798 8.29370646 -3.15654048 4.58921384 0 0 Z " fill="#509DCE" transform="translate(428,74)"/>
<path d="M0 0 C0 2.97 0 5.94 0 9 C-0.66 7.68 -1.32 6.36 -2 5 C-4.64 5 -7.28 5 -10 5 C-3.87096774 0 -3.87096774 0 0 0 Z " fill="#318CC6" transform="translate(409,113)"/>
<path d="M0 0 C1.65 0 3.3 0 5 0 C2.14723863 2.93200474 -0.65079784 5.64315404 -4 8 C-4.66 7.67 -5.32 7.34 -6 7 C-5.34 5.35 -4.68 3.7 -4 2 C-3.01 2 -2.02 2 -1 2 C-0.67 1.34 -0.34 0.68 0 0 Z " fill="#5BA7D7" transform="translate(38,89)"/>
<path d="M0 0 C0.33 0 0.66 0 1 0 C1 2.31 1 4.62 1 7 C-0.26418246 7.69965443 -1.53665402 8.38434763 -2.8125 9.0625 C-3.52019531 9.44535156 -4.22789063 9.82820313 -4.95703125 10.22265625 C-7 11 -7 11 -10 10 C-9.34 10 -8.68 10 -8 10 C-8 9.01 -8 8.02 -8 7 C-5.36 6.67 -2.72 6.34 0 6 C0 4.02 0 2.04 0 0 Z " fill="#65A9D6" transform="translate(87,102)"/>
<path d="M0 0 C0.33 0 0.66 0 1 0 C1.18175781 0.80824219 1.36351562 1.61648437 1.55078125 2.44921875 C1.80214844 3.51785156 2.05351563 4.58648437 2.3125 5.6875 C2.55613281 6.74324219 2.79976562 7.79898438 3.05078125 8.88671875 C3.99260825 11.97575628 5.22372937 14.31817964 7 17 C4.625 16.4375 4.625 16.4375 2 15 C0.75 11.625 0.75 11.625 0 8 C-0.226875 7.278125 -0.45375 6.55625 -0.6875 5.8125 C-1.06529676 3.6212788 -0.67461917 2.09881518 0 0 Z " fill="#5FA6D3" transform="translate(566,100)"/>
<path d="M0 0 C2.375 -0.1875 2.375 -0.1875 5 0 C5.66 0.99 6.32 1.98 7 3 C5.75 4.5 5.75 4.5 4 6 C2.68 6 1.36 6 0 6 C0 4.02 0 2.04 0 0 Z " fill="#027ACA" transform="translate(167,51)"/>
<path d="M0 0 C3.3 0 6.6 0 10 0 C10.33 0.99 10.66 1.98 11 3 C13.00016466 4.20882096 13.00016466 4.20882096 15 5 C9.88634986 3.9318153 4.92772031 2.76892524 0 1 C0 0.67 0 0.34 0 0 Z " fill="#7DBAE0" transform="translate(45,131)"/>
<path d="M0 0 C0.99 0 1.98 0 3 0 C1.94434467 3.28426103 0.38339648 4.57151556 -2.5 6.25 C-6 8 -6 8 -8 8 C-8 7.34 -8 6.68 -8 6 C-6.68 6 -5.36 6 -4 6 C-4 4.68 -4 3.36 -4 2 C-2.68 2 -1.36 2 0 2 C0 1.34 0 0.68 0 0 Z " fill="#4B9CCE" transform="translate(465,121)"/>
<path d="M0 0 C0.99 0.33 1.98 0.66 3 1 C3.33 1.99 3.66 2.98 4 4 C2.625 5.5 2.625 5.5 1 7 C0.34 7 -0.32 7 -1 7 C-1.99 7.495 -1.99 7.495 -3 8 C-3.66 7.34 -4.32 6.68 -5 6 C-4.01 5.34 -3.02 4.68 -2 4 C-0.80767387 1.94996045 -0.80767387 1.94996045 0 0 Z " fill="#0876C3" transform="translate(502,118)"/>
<path d="M0 0 C0.33 0 0.66 0 1 0 C1.33 3.96 1.66 7.92 2 12 C1.01 12.33 0.02 12.66 -1 13 C-1 13.66 -1 14.32 -1 15 C-1.66 15 -2.32 15 -3 15 C-2.690625 14.01 -2.38125 13.02 -2.0625 12 C-0.91566793 8.02268878 -0.43287644 4.11232621 0 0 Z " fill="#56A1D3" transform="translate(529,100)"/>
<path d="M0 0 C10.55808656 -0.3690205 10.55808656 -0.3690205 15 2 C14 4 14 4 12.1875 4.8125 C9.18555821 5.0698093 8.35388946 3.80003312 6 2 C2.84881675 1.27954633 2.84881675 1.27954633 0 1 C0 0.67 0 0.34 0 0 Z " fill="#348FCA" transform="translate(389,48)"/>
<path d="M0 0 C0.99 0.33 1.98 0.66 3 1 C1.50164772 5.66154042 -1.88463591 6.86610751 -6 9 C-5.12467243 5.71752159 -4.49145848 3.49145848 -2.0625 1.0625 C-1.381875 0.711875 -0.70125 0.36125 0 0 Z " fill="#0577C5" transform="translate(499,71)"/>
<path d="M0 0 C1.65 0 3.3 0 5 0 C4.01 0.66 3.02 1.32 2 2 C1.67 2.99 1.34 3.98 1 5 C2.32 5.33 3.64 5.66 5 6 C4.67 7.32 4.34 8.64 4 10 C2.99403703 9.0479279 1.99538437 8.08812654 1 7.125 C0.443125 6.59132813 -0.11375 6.05765625 -0.6875 5.5078125 C-2 4 -2 4 -2 2 C-1.34 2 -0.68 2 0 2 C0 1.34 0 0.68 0 0 Z " fill="#358FCB" transform="translate(24,62)"/>
<path d="M0 0 C1.58560393 0.25720674 3.16845924 0.53138799 4.75 0.8125 C5.63171875 0.96332031 6.5134375 1.11414062 7.421875 1.26953125 C10.1910911 2.05414248 11.8259401 3.14595359 14 5 C11.36 5 8.72 5 6 5 C6 4.34 6 3.68 6 3 C5.195625 2.87625 4.39125 2.7525 3.5625 2.625 C2.716875 2.41875 1.87125 2.2125 1 2 C0.67 1.34 0.34 0.68 0 0 Z " fill="#55A1D3" transform="translate(71,48)"/>
<path d="M0 0 C3.98101068 0.50821413 7.93318801 1.1181721 11.875 1.875 C12.63554688 2.01679687 13.39609375 2.15859375 14.1796875 2.3046875 C14.78039063 2.53414063 15.38109375 2.76359375 16 3 C16.33 3.99 16.66 4.98 17 6 C11.07136283 4.83348574 5.61201606 3.24480642 0 1 C0 0.67 0 0.34 0 0 Z " fill="#8FC5E6" transform="translate(28,125)"/>
<path d="M0 0 C1.32 0.99 2.64 1.98 4 3 C3.67 3.66 3.34 4.32 3 5 C2.01 5.33 1.02 5.66 0 6 C-0.33 6.66 -0.66 7.32 -1 8 C-1.66 8 -2.32 8 -3 8 C-3.625 5.625 -3.625 5.625 -4 3 C-3.34 2.34 -2.68 1.68 -2 1 C-1.67 1.33 -1.34 1.66 -1 2 C-0.67 1.34 -0.34 0.68 0 0 Z " fill="#047ACB" transform="translate(436,118)"/>
<path d="M0 0 C0.66 0 1.32 0 2 0 C2.33 1.65 2.66 3.3 3 5 C4.32 4.67 5.64 4.34 7 4 C7 5.98 7 7.96 7 10 C0.42857143 4.85714286 0.42857143 4.85714286 -1 1 C-0.67 0.67 -0.34 0.34 0 0 Z " fill="#4F9FCD" transform="translate(353,113)"/>
<path d="M0 0 C8.19256018 -0.4726477 8.19256018 -0.4726477 11.5625 1.5 C12.036875 1.995 12.51125 2.49 13 3 C8.48382401 3.07654536 4.40914783 3.10228696 0 2 C0 1.34 0 0.68 0 0 Z " fill="#348DC9" transform="translate(264,90)"/>
<path d="M0 0 C0.66 0.33 1.32 0.66 2 1 C1.1875 2.9375 1.1875 2.9375 0 5 C-3.62326739 6.2077558 -4.64146369 5.54311128 -8 4 C-7.67 3.01 -7.34 2.02 -7 1 C-6.34 1 -5.68 1 -5 1 C-5 1.66 -5 2.32 -5 3 C-4.34 3 -3.68 3 -3 3 C-3 2.34 -3 1.68 -3 1 C-2.01 0.67 -1.02 0.34 0 0 Z " fill="#0479CA" transform="translate(462,72)"/>
<path d="M0 0 C-0.66 2.31 -1.32 4.62 -2 7 C-2.66 6.34 -3.32 5.68 -4 5 C-6.60280568 5.32041397 -6.60280568 5.32041397 -9 6 C-4.53846154 0 -4.53846154 0 0 0 Z " fill="#298ECF" transform="translate(258,60)"/>
<path d="M0 0 C2.375 0.25 2.375 0.25 5 1 C6.3125 3.0625 6.3125 3.0625 7 5 C6.071875 4.835 5.14375 4.67 4.1875 4.5 C1.04378647 3.92251612 1.04378647 3.92251612 -2 4 C-1.34 2.68 -0.68 1.36 0 0 Z " fill="#2D8EC9" transform="translate(463,73)"/>
<path d="M0 0 C1.4540625 0.9590625 1.4540625 0.9590625 2.9375 1.9375 C7.1553638 4.38351528 11.19519242 4.78209489 16 5 C16 5.33 16 5.66 16 6 C14.08458862 6.10841951 12.16740227 6.18578079 10.25 6.25 C8.64898437 6.31960937 8.64898437 6.31960937 7.015625 6.390625 C4 6 4 6 1.609375 4.109375 C0 2 0 2 0 0 Z " fill="#7BB9DE" transform="translate(436,116)"/>
<path d="M0 0 C0.33 0.66 0.66 1.32 1 2 C-1.31 4.64 -3.62 7.28 -6 10 C-6.99 9.67 -7.98 9.34 -9 9 C-6.03 6.03 -3.06 3.06 0 0 Z " fill="#1279BF" transform="translate(59,60)"/>
<path d="M0 0 C2.31 0 4.62 0 7 0 C6.01 0.33 5.02 0.66 4 1 C4 3.31 4 5.62 4 8 C4.66 8.33 5.32 8.66 6 9 C5.34 9.66 4.68 10.32 4 11 C2.68 7.37 1.36 3.74 0 0 Z " fill="#519AC6" transform="translate(163,49)"/>
<path d="M0 0 C3.96 0.33 7.92 0.66 12 1 C10.515 2.485 10.515 2.485 9 4 C5.4375 3.875 5.4375 3.875 2 3 C1.34 2.01 0.68 1.02 0 0 Z " fill="#CCE4F0" transform="translate(13,119)"/>
<path d="M0 0 C0.99 0.66 1.98 1.32 3 2 C3.1875 5.125 3.1875 5.125 3 8 C1.35 7.01 -0.3 6.02 -2 5 C-1.34 3.35 -0.68 1.7 0 0 Z " fill="#0E81CE" transform="translate(466,114)"/>
<path d="M0 0 C5 1 5 1 7 3 C5.02 3 3.04 3 1 3 C1.33 5.97 1.66 8.94 2 12 C1.34 12 0.68 12 0 12 C0 8.04 0 4.08 0 0 Z " fill="#6FB3DD" transform="translate(244,114)"/>
<path d="M0 0 C1.98 0 3.96 0 6 0 C3.15314251 2.31966166 0.5236125 3.91581154 -3 5 C-3.99 4.67 -4.98 4.34 -6 4 C-5.67 3.34 -5.34 2.68 -5 2 C-3.35 2 -1.7 2 0 2 C0 1.34 0 0.68 0 0 Z " fill="#7AB8DF" transform="translate(112,144)"/>
<path d="M0 0 C0.99 0.33 1.98 0.66 3 1 C3.33 1.99 3.66 2.98 4 4 C2.71034824 5.37562854 1.37310707 6.70766393 0 8 C-0.66 8 -1.32 8 -2 8 C-2 7.34 -2 6.68 -2 6 C-2.66 5.67 -3.32 5.34 -4 5 C-3.34 4.34 -2.68 3.68 -2 3 C-2 3.66 -2 4.32 -2 5 C-1.01 5 -0.02 5 1 5 C0.67 3.35 0.34 1.7 0 0 Z " fill="#328FD0" transform="translate(524,120)"/>
<path d="M0 0 C2.73704754 2.73704754 3.16182449 5.26044774 4 9 C3.55078125 11.2265625 3.55078125 11.2265625 3 13 C2.30093058 11.40084119 1.61610532 9.79544955 0.9375 8.1875 C0.55464844 7.29417969 0.17179688 6.40085937 -0.22265625 5.48046875 C-1 3 -1 3 0 0 Z " fill="#5CA3D1" transform="translate(185,102)"/>
<path d="M0 0 C0.103125 0.639375 0.20625 1.27875 0.3125 1.9375 C0.539375 2.618125 0.76625 3.29875 1 4 C1.99 4.33 2.98 4.66 4 5 C4.6875 7.0625 4.6875 7.0625 5 9 C5.66 9 6.32 9 7 9 C6.67 9.66 6.34 10.32 6 11 C2.30428266 8.37409557 0.17217838 6.45427785 -1 2 C-0.67 1.34 -0.34 0.68 0 0 Z " fill="#5DA1CD" transform="translate(246,76)"/>
<path d="M0 0 C0.66 0.33 1.32 0.66 2 1 C0.75 3.9375 0.75 3.9375 -1 7 C-3.1875 7.875 -3.1875 7.875 -5 8 C-3.8141763 4.62496331 -2.72426311 2.35277269 0 0 Z " fill="#53A1CC" transform="translate(251,52)"/>
<path d="M0 0 C3.63 0.33 7.26 0.66 11 1 C10.01 2.485 10.01 2.485 9 4 C6.03 3.505 6.03 3.505 3 3 C3 2.34 3 1.68 3 1 C2.01 0.67 1.02 0.34 0 0 Z " fill="#6AA2CB" transform="translate(19,121)"/>
<path d="M0 0 C0.33 0 0.66 0 1 0 C1.6875 3.3125 1.6875 3.3125 2 7 C0.5625 8.9375 0.5625 8.9375 -1 10 C-1.125 3.375 -1.125 3.375 0 0 Z M4 1 C4.33 2.32 4.66 3.64 5 5 C4.34 5 3.68 5 3 5 C3.33 3.68 3.66 2.36 4 1 Z " fill="#0A76BE" transform="translate(348,74)"/>
<path d="M0 0 C0.66 0 1.32 0 2 0 C1.32829194 3.8063457 0.27253436 7.35206816 -1 11 C-1.33 11 -1.66 11 -2 11 C-2 8.03 -2 5.06 -2 2 C-1.34 2 -0.68 2 0 2 C0 1.34 0 0.68 0 0 Z " fill="#59A1D0" transform="translate(225,73)"/>
<path d="M0 0 C1.90389849 2.85584773 2.69462177 4.9311762 3.625 8.1875 C3.88539063 9.08855469 4.14578125 9.98960938 4.4140625 10.91796875 C4.60742188 11.60503906 4.80078125 12.29210937 5 13 C2.7522025 10.94766315 1.9977758 9.99332739 1 7 C0.01 6.34 -0.98 5.68 -2 5 C-1.34 3.35 -0.68 1.7 0 0 Z " fill="#67ABD7" transform="translate(182,67)"/>
<path d="M0 0 C6.875 3.75 6.875 3.75 8 6 C2.25 5.125 2.25 5.125 0 4 C0 2.68 0 1.36 0 0 Z " fill="#5FA8D5" transform="translate(29,63)"/>
<path d="M0 0 C2.64 0 5.28 0 8 0 C7.42655063 2.86724686 7.1385485 3.8614515 5 6 C4.34 5.34 3.68 4.68 3 4 C3.33 3.01 3.66 2.02 4 1 C2.68 0.67 1.36 0.34 0 0 Z " fill="#0F74BB" transform="translate(225,49)"/>
<path d="M0 0 C3.96 0.33 7.92 0.66 12 1 C12 1.66 12 2.32 12 3 C7.45194365 3.17835515 4.1205746 2.99785435 0 1 C0 0.67 0 0.34 0 0 Z " fill="#83BDE2" transform="translate(66,127)"/>
<path d="M0 0 C0 1.98 0 3.96 0 6 C-1.98 6 -3.96 6 -6 6 C-3.4 0 -3.4 0 0 0 Z " fill="#017BD0" transform="translate(607,119)"/>
<path d="M0 0 C0.66 0 1.32 0 2 0 C2 0.66 2 1.32 2 2 C2.66 2 3.32 2 4 2 C4.66 4.64 5.32 7.28 6 10 C2.51668565 6.98112756 1.20842856 4.43090471 0 0 Z " fill="#5AA4D1" transform="translate(423,113)"/>
<path d="M0 0 C0.66 0.33 1.32 0.66 2 1 C1.32829194 4.8063457 0.27253436 8.35206816 -1 12 C-1.33 12 -1.66 12 -2 12 C-2 9.36 -2 6.72 -2 4 C-1.34 4 -0.68 4 0 4 C0 2.68 0 1.36 0 0 Z " fill="#56A2D0" transform="translate(217,93)"/>
<path d="M0 0 C0.66 0 1.32 0 2 0 C2.99 2.97 3.98 5.94 5 9 C4.34 9.66 3.68 10.32 3 11 C2.49384702 9.73160474 1.99530901 8.46016898 1.5 7.1875 C1.2215625 6.47980469 0.943125 5.77210937 0.65625 5.04296875 C0 3 0 3 0 0 Z " fill="#55A0CF" transform="translate(173,73)"/>
<path d="M0 0 C3.36591866 1.44253657 5.51047079 3.33264727 8 6 C7.67 6.66 7.34 7.32 7 8 C5.125 7.75 5.125 7.75 3 7 C1.55852701 4.72399002 0.85554578 2.56663734 0 0 Z " fill="#519ED2" transform="translate(522,69)"/>
<path d="M0 0 C0.66 0 1.32 0 2 0 C2 3.96 2 7.92 2 12 C-3 10 -3 10 -4 8 C-1.525 8.495 -1.525 8.495 1 9 C0.67 6.03 0.34 3.06 0 0 Z " fill="#72B3DB" transform="translate(408,53)"/>
<path d="M0 0 C0 0.66 0 1.32 0 2 C1.32 2.66 2.64 3.32 4 4 C2.741875 3.87625 1.48375 3.7525 0.1875 3.625 C-0.87404297 3.52058594 -0.87404297 3.52058594 -1.95703125 3.4140625 C-4 3 -4 3 -7 1 C-4.50935112 0.31292445 -2.62113708 0 0 0 Z " fill="#57A2D1" transform="translate(254,125)"/>
<path d="M0 0 C0.99 1.485 0.99 1.485 2 3 C2.66 3.66 3.32 4.32 4 5 C4 6.32 4 7.64 4 9 C2.68 8.67 1.36 8.34 0 8 C0 5.36 0 2.72 0 0 Z " fill="#54A6DA" transform="translate(197,107)"/>
<path d="M0 0 C0.66 0 1.32 0 2 0 C1.01 3.3 0.02 6.6 -1 10 C-1.33 10 -1.66 10 -2 10 C-2 7.36 -2 4.72 -2 2 C-1.34 2 -0.68 2 0 2 C0 1.34 0 0.68 0 0 Z " fill="#58A2D0" transform="translate(213,105)"/>
<path d="M0 0 C2.97 0 5.94 0 9 0 C7.515 1.485 7.515 1.485 6 3 C2.8125 2.6875 2.8125 2.6875 0 2 C0 1.34 0 0.68 0 0 Z " fill="#7CB5DB" transform="translate(22,98)"/>
<path d="M0 0 C5.94 0.99 5.94 0.99 12 2 C9 4 9 4 6.73828125 3.7578125 C5.93777344 3.54898438 5.13726562 3.34015625 4.3125 3.125 C3.50425781 2.92132813 2.69601562 2.71765625 1.86328125 2.5078125 C1.24839844 2.34023437 0.63351562 2.17265625 0 2 C0 1.34 0 0.68 0 0 Z " fill="#6CADD5" transform="translate(263,79)"/>
<path d="M0 0 C4.38889325 0.66498383 7.9811485 2.18757677 12 4 C10.125 5.0625 10.125 5.0625 8 6 C7.34 5.67 6.68 5.34 6 5 C6 4.34 6 3.68 6 3 C4.02 2.34 2.04 1.68 0 1 C0 0.67 0 0.34 0 0 Z " fill="#7DBDE3" transform="translate(106,31)"/>
<path d="M0 0 C0.556875 0.350625 1.11375 0.70125 1.6875 1.0625 C4.53886783 2.21845993 6.08517222 1.80967438 9 1 C8.6875 2.9375 8.6875 2.9375 8 5 C7.01 5.33 6.02 5.66 5 6 C3.35 4.02 1.7 2.04 0 0 Z " fill="#5BA7D8" transform="translate(593,77)"/>
<path d="M0 0 C0 2.31 0 4.62 0 7 C-0.99 7.495 -0.99 7.495 -2 8 C-2.33 5.69 -2.66 3.38 -3 1 C-1 0 -1 0 0 0 Z " fill="#0C78BE" transform="translate(359,69)"/>
<path d="M0 0 C2.31 0 4.62 0 7 0 C7.33 1.32 7.66 2.64 8 4 C7.01 4.33 6.02 4.66 5 5 C5 3.68 5 2.36 5 1 C3.35 1 1.7 1 0 1 C0 0.67 0 0.34 0 0 Z " fill="#0878BE" transform="translate(94,133)"/>
<path d="M0 0 C2.12038635 2.61514317 4.13091744 5.19637616 6 8 C5.01 8 4.02 8 3 8 C3 7.34 3 6.68 3 6 C2.34 6 1.68 6 1 6 C0.67 4.02 0.34 2.04 0 0 Z " fill="#56A1D3" transform="translate(361,107)"/>
<path d="M0 0 C2.475 0.495 2.475 0.495 5 1 C5.33 2.65 5.66 4.3 6 6 C3.97945196 4.35830472 1.97956942 2.69088222 0 1 C0 0.67 0 0.34 0 0 Z " fill="#54A0D3" transform="translate(63,107)"/>
<path d="M0 0 C-1 3 -1 3 -3.375 4.1875 C-6 5 -6 5 -9 5 C-3.375 0 -3.375 0 0 0 Z " fill="#5EA3D1" transform="translate(504,68)"/>
<path d="M0 0 C3.465 1.485 3.465 1.485 7 3 C7 3.33 7 3.66 7 4 C5.02 4.33 3.04 4.66 1 5 C0.67 3.35 0.34 1.7 0 0 Z " fill="#52A2D6" transform="translate(573,117)"/>
<path d="M0 0 C0.33 0 0.66 0 1 0 C1.66 3.3 2.32 6.6 3 10 C2.34 9.67 1.68 9.34 1 9 C1 8.34 1 7.68 1 7 C0.34 7 -0.32 7 -1 7 C-0.67 4.69 -0.34 2.38 0 0 Z " fill="#5DA4D2" transform="translate(358,97)"/>
<path d="M0 0 C2.475 0.99 2.475 0.99 5 2 C3.35 3.32 1.7 4.64 0 6 C-0.38218767 4.34385343 -0.71395102 2.67542976 -1 1 C-0.67 0.67 -0.34 0.34 0 0 Z " fill="#3B97D5" transform="translate(571,75)"/>
</svg>
